<svg width="28" height="28" viewBox="0 0 28 28" fill="none" xmlns="http://www.w3.org/2000/svg">
<path d="M22.1667 19.8333V13.7666C21.5833 13.8833 21 14 20.4167 14H19.8333V21H8.16667V12.8333C8.16667 9.56665 10.7333 6.99998 14 6.99998C14.1167 5.48331 14.8167 4.19998 15.75 3.14998C15.4 2.68331 14.7 2.33331 14 2.33331C12.7167 2.33331 11.6667 3.38331 11.6667 4.66665V5.01665C8.16667 6.06665 5.83333 9.21665 5.83333 12.8333V19.8333L3.5 22.1666V23.3333H24.5V22.1666L22.1667 19.8333ZM11.6667 24.5C11.6667 25.7833 12.7167 26.8333 14 26.8333C15.2833 26.8333 16.3333 25.7833 16.3333 24.5H11.6667ZM24.5 7.58331C24.5 9.79998 22.6333 11.6666 20.4167 11.6666C18.2 11.6666 16.3333 9.79998 16.3333 7.58331C16.3333 5.36665 18.2 3.49998 20.4167 3.49998C22.6333 3.49998 24.5 5.36665 24.5 7.58331Z" fill="#D9D9D9"/>
</svg>
