<svg width="35" height="35" viewBox="0 0 35 35" fill="none" xmlns="http://www.w3.org/2000/svg">
<rect x="0.5" y="0.5" width="34" height="34" rx="4.5" fill="white"/>
<mask id="mask0_576_5740" style="mask-type:luminance" maskUnits="userSpaceOnUse" x="6" y="6" width="23" height="23">
<path d="M6.75317 6.875H6.62817V7V28V28.125H6.75317H28.2467H28.3717V28V7V6.875H28.2467H6.75317Z" fill="white" stroke="white" stroke-width="0.25"/>
</mask>
<g mask="url(#mask0_576_5740)">
<path d="M23.7164 6.94086L23.6066 6.73642L23.4963 6.94058C23.4685 6.992 23.446 7.07642 23.4262 7.16676C23.4052 7.26276 23.3838 7.3832 23.3625 7.51854C23.32 7.7895 23.2771 8.12612 23.2389 8.45873C23.163 9.11944 23.1038 9.78071 23.1038 9.87986V16.4386C23.1038 16.5648 23.1617 16.6815 23.2574 16.7646C23.3526 16.8471 23.4783 16.8911 23.6063 16.8911C23.7343 16.8911 23.8599 16.8471 23.9551 16.7646C24.0508 16.6815 24.1088 16.5648 24.1088 16.4386V9.87986C24.1088 9.78089 24.0518 9.12448 23.977 8.4657C23.9393 8.13418 23.8967 7.79803 23.8537 7.52608C23.8322 7.39024 23.8104 7.26892 23.7887 7.17157C23.7682 7.07928 23.7449 6.99397 23.7164 6.94086Z" fill="black" stroke="black" stroke-width="0.25"/>
<path d="M7.30358 25.952L7.30324 25.9516L7.40572 25.88L7.30324 25.9516L7.30323 25.9515L7.3032 25.9515L7.3031 25.9514L7.30269 25.9508L7.30109 25.9485L7.29488 25.9396L7.2711 25.9054C7.25048 25.8757 7.2207 25.8327 7.18401 25.7794C7.11064 25.6729 7.00956 25.5252 6.89875 25.3607C6.82586 25.2539 6.77601 25.1111 6.74036 24.9654C6.70408 24.8171 6.68004 24.6553 6.66398 24.5039C6.63184 24.2011 6.63062 23.9303 6.63062 23.8747V17.4097C6.63062 17.3287 6.66786 17.2552 6.72679 17.2041L7.30358 25.952ZM7.30358 25.952C7.33291 25.9936 7.37265 26.0261 7.41751 26.0478M7.30358 25.952L7.41751 26.0478M7.80514 25.9756L7.80494 25.9758C7.77986 26.0052 7.74911 26.0292 7.71483 26.047L7.71212 26.0484L7.7121 26.0483C7.66449 26.0715 7.6115 26.0824 7.55878 26.0805C7.51013 26.0802 7.4616 26.0693 7.41751 26.0478M7.80514 25.9756L7.41751 26.0478M7.80514 25.9756C7.83018 25.9461 7.84936 25.9114 7.8602 25.8732M7.80514 25.9756L7.8602 25.8732M7.8602 25.8732C7.86022 25.8731 7.86025 25.873 7.86027 25.8729L7.73998 25.839L7.8602 25.8732ZM6.9371 17.1273C6.86112 17.1273 6.78526 17.1533 6.72684 17.204H7.14732C7.08891 17.1533 7.01306 17.1273 6.9371 17.1273ZM7.70304 25.4779C7.63012 25.3724 7.52958 25.2264 7.41899 25.0642L7.71869 25.7198L7.82122 25.6483L7.82122 25.6483L7.82119 25.6482L7.8211 25.6481L7.8209 25.6478L7.82071 25.6475L7.81916 25.6453L7.81305 25.6365L7.78953 25.6027L7.70304 25.4779Z" fill="black" stroke="black" stroke-width="0.25"/>
<path d="M16.7547 14.828C16.8136 14.7769 16.851 14.7034 16.851 14.6223C16.851 14.5411 16.8136 14.4676 16.7548 14.4166L16.7547 14.4165C16.6963 14.3659 16.6205 14.3398 16.5445 14.3398H13.5665C13.4905 14.3398 13.4147 14.3659 13.3563 14.4165C13.2973 14.4677 13.26 14.5412 13.26 14.6223C13.26 14.7034 13.2973 14.7769 13.3563 14.828L13.4382 14.7336L13.3562 14.8279C13.4146 14.8787 13.4905 14.9047 13.5665 14.9047H16.5437H16.5445C16.6204 14.9047 16.6963 14.8787 16.7547 14.828ZM16.7547 14.828L16.6728 14.7336L16.7548 14.8279C16.7547 14.828 16.7547 14.828 16.7547 14.828Z" fill="black" stroke="black" stroke-width="0.25"/>
<path d="M18.9669 14.4242C18.9079 14.4753 18.8706 14.5488 18.8706 14.6299C18.8706 14.711 18.9079 14.7845 18.9669 14.8357C19.0253 14.8863 19.1011 14.9123 19.1771 14.9123H22.2849C22.3609 14.9123 22.4368 14.8863 22.4952 14.8357C22.5541 14.7845 22.5914 14.711 22.5914 14.6299C22.5914 14.5489 22.5542 14.4754 22.4952 14.4242M18.9669 14.4242C19.0253 14.3735 19.1011 14.3475 19.1771 14.3475H22.2849C22.3609 14.3475 22.4368 14.3735 22.4952 14.4242M18.9669 14.4242C18.9669 14.4242 18.9668 14.4242 18.9668 14.4242L19.0488 14.5186L18.9669 14.4241C18.9669 14.4241 18.9669 14.4242 18.9669 14.4242ZM22.4952 14.4242L22.4133 14.5186L22.4951 14.4241C22.4951 14.4242 22.4952 14.4242 22.4952 14.4242Z" fill="black" stroke="black" stroke-width="0.25"/>
<path d="M18.0385 6.94062L17.9286 6.73698L17.8186 6.94057C17.7908 6.99199 17.7683 7.07642 17.7485 7.16676C17.7275 7.26276 17.7061 7.3832 17.6848 7.51854C17.6422 7.7895 17.5993 8.12612 17.5611 8.45873C17.4853 9.11944 17.426 9.78072 17.426 9.87986V16.4386C17.426 16.5648 17.484 16.6815 17.5797 16.7646C17.6748 16.8471 17.8005 16.8911 17.9285 16.8911C18.0565 16.8911 18.1822 16.8471 18.2773 16.7646C18.373 16.6815 18.431 16.5648 18.431 16.4386V9.87986C18.431 9.78091 18.3742 9.12454 18.2995 8.46572C18.2619 8.1342 18.2194 7.79803 18.1763 7.52606C18.1548 7.39022 18.1329 7.26888 18.1112 7.1715C18.0906 7.07922 18.0672 6.99382 18.0385 6.94062Z" fill="black" stroke="black" stroke-width="0.25"/>
<path d="M12.7526 9.91367C12.7529 9.8132 12.6961 9.15711 12.6215 8.49932C12.5839 8.16779 12.5413 7.83164 12.4983 7.55968C12.4768 7.42384 12.455 7.30253 12.4333 7.20517C12.4128 7.11288 12.3895 7.02757 12.361 6.97446L12.2512 6.77004L12.1409 6.97417C12.1131 7.02557 12.0906 7.10999 12.0708 7.20033C12.0498 7.29632 12.0283 7.41675 12.007 7.55209C11.9644 7.82305 11.9214 8.15966 11.8831 8.49228C11.807 9.15297 11.7476 9.81429 11.7476 9.91346V16.4715C11.7476 16.5977 11.8055 16.7144 11.9012 16.7974C11.9964 16.88 12.1221 16.9239 12.2501 16.9239C12.3781 16.9239 12.5037 16.88 12.5989 16.7974C12.6946 16.7144 12.7526 16.5977 12.7526 16.4715V9.91367ZM12.7526 9.91367C12.7526 9.91379 12.7526 9.9139 12.7526 9.91401L12.6276 9.91346M12.7526 9.91367V9.91346H12.6276M12.6276 9.91346V16.4715C12.6276 16.5583 12.5878 16.6416 12.517 16.703C12.4462 16.7644 12.3502 16.7989 12.2501 16.7989C12.15 16.7989 12.0539 16.7644 11.9831 16.703C11.9123 16.6416 11.8726 16.5583 11.8726 16.4715V9.91346C11.8726 9.75747 12.0466 7.92141 12.1876 7.25188C12.1672 7.16137 12.1504 7.11085 12.1407 7.09274L12.2508 7.0336L12.3608 7.09302C12.3524 7.10866 12.336 7.1583 12.3155 7.25156C12.4605 7.92443 12.6282 9.75702 12.6276 9.91346Z" fill="black" stroke="black" stroke-width="0.25"/>
<path d="M25.5851 28.125L25.5849 28.125H11.4492C10.7154 28.125 10.0087 27.8723 9.48515 27.4181L9.56706 27.3237L9.48515 27.4181C8.96105 26.9635 8.66247 26.3428 8.66247 25.691V19.2611C8.66247 18.5255 8.61983 18.2648 8.49364 18.0276L7.69469 16.5758L7.69458 16.5756C7.59432 16.3926 7.54849 16.1893 7.56254 15.985L7.56327 15.9743L7.56373 15.9743C7.6374 15.5008 7.9057 15.0707 8.31296 14.7614M25.5851 28.125L26.6063 16.1167C26.5883 16.1029 26.5673 16.0924 26.5446 16.0857C26.5219 16.079 26.498 16.0763 26.4741 16.0777C26.4501 16.079 26.4267 16.0844 26.4052 16.0936C26.3837 16.1028 26.3645 16.1156 26.3487 16.1312L26.2609 16.0422C26.2609 16.0423 26.2609 16.0423 26.2608 16.0423C26.2332 16.0696 26.2111 16.1024 26.1967 16.1391L26.1966 16.1393C26.1823 16.176 26.1761 16.2155 26.1791 16.2552C26.182 16.2947 26.1939 16.3326 26.213 16.3666C26.2132 16.3669 26.2133 16.3671 26.2135 16.3674L27.0249 17.8388L27.0249 17.8388L27.0269 17.8422C27.4539 18.5623 27.7579 19.5078 27.7579 20.0783V25.6909C27.7575 26.1803 27.5335 26.6537 27.1275 27.006C26.721 27.3587 26.1664 27.5596 25.5848 27.5601H11.4461C10.8645 27.5596 10.3098 27.3588 9.90312 27.006C9.49707 26.6538 9.27284 26.1803 9.27219 25.691C9.27219 25.6909 9.27219 25.6909 9.27219 25.6909L9.27219 19.2611C9.27219 18.56 9.24337 18.1555 9.03871 17.7745L9.03872 17.7745L9.03811 17.7734L8.23855 16.3205C8.19281 16.2335 8.17059 16.1397 8.17252 16.0458C8.22551 15.7207 8.41193 15.4187 8.70391 15.197L8.70391 15.197C8.99849 14.9733 9.37911 14.848 9.77566 14.8473H10.3862V16.8038V16.804C10.3866 17.1868 10.5623 17.5496 10.8673 17.8141C11.1717 18.0781 11.581 18.2242 12.0049 18.2246H12.005C12.081 18.2246 12.1568 18.1986 12.2152 18.1479C12.2742 18.0968 12.3115 18.0233 12.3115 17.9422C12.3115 17.861 12.2742 17.7876 12.2153 17.7365L12.2152 17.7364C12.1568 17.6858 12.081 17.6598 12.005 17.6598C11.7334 17.6598 11.4758 17.566 11.2884 17.4034C11.1016 17.2413 11.0007 17.0256 11.0007 16.8052V14.4074V14.2824H10.8757L9.77555 14.2824L9.77536 14.2824C9.23951 14.2832 8.7199 14.4522 8.31296 14.7614M25.5851 28.125C25.9488 28.1245 26.3091 28.0619 26.6457 27.9404C26.9822 27.819 27.2889 27.6409 27.548 27.4156L27.548 27.4155C27.807 27.1901 28.0134 26.9217 28.1545 26.6251C28.2956 26.3283 28.3683 26.0096 28.3677 25.6873L25.5851 28.125ZM8.31296 14.7614L8.38856 14.8609M8.31296 14.7614L8.38856 14.8609M8.38856 14.8609C8.77249 14.5693 9.26523 14.4082 9.77555 14.4074L8.60357 17.9681L7.8042 16.5155C7.71508 16.3529 7.67489 16.1733 7.68724 15.9936C7.75549 15.5549 8.00464 15.1525 8.38856 14.8609Z" fill="black" stroke="black" stroke-width="0.25"/>
<path d="M26.0366 20.1914H12.3978C12.3218 20.1914 12.246 20.1654 12.1875 20.1147C12.1286 20.0635 12.0913 19.99 12.0913 19.909C12.0913 19.8279 12.1286 19.7544 12.1875 19.7032C12.246 19.6526 12.3218 19.6265 12.3978 19.6265H26.0366C26.1126 19.6265 26.1884 19.6525 26.2468 19.7032C26.2469 19.7032 26.2469 19.7033 26.2469 19.7033L26.1649 19.7977C26.1989 19.8272 26.2181 19.8672 26.2181 19.909C26.2181 19.9507 26.1989 19.9907 26.1649 20.0203L26.0366 20.1914ZM26.0366 20.1914C26.1126 20.1914 26.1884 20.1654 26.2468 20.1147L26.0366 20.1914Z" fill="black" stroke="black" stroke-width="0.25"/>
<path d="M16.7445 17.8158C17.0481 18.0798 17.4566 18.2262 17.8799 18.2274L17.8803 18.2274L16.7813 16.6008C16.723 16.5502 16.6472 16.5242 16.5711 16.5242C16.4951 16.5242 16.4193 16.5503 16.3609 16.6008L16.3609 16.6009C16.3019 16.652 16.2646 16.7255 16.2646 16.8066L16.2646 16.8067C16.2651 17.1891 16.4403 17.5514 16.7445 17.8158ZM16.7445 17.8158L16.8263 17.7217L16.7445 17.8158C16.7445 17.8158 16.7445 17.8158 16.7445 17.8158ZM16.8776 16.8066C16.8776 16.7255 16.8404 16.652 16.7814 16.6009L19.3209 16.6953L19.4028 16.6009C19.4028 16.6009 19.4028 16.6008 19.4027 16.6008C19.3444 16.5502 19.2686 16.5242 19.1926 16.5242C19.1165 16.5242 19.0407 16.5503 18.9824 16.6008L18.9823 16.6009C18.9234 16.652 18.8861 16.7255 18.8861 16.8066C18.8861 17.027 18.7853 17.2427 18.5985 17.4048C18.411 17.5674 18.1535 17.6611 17.8819 17.6611C17.6102 17.6611 17.3527 17.5674 17.1653 17.4048C16.9784 17.2428 16.8776 17.0271 16.8776 16.8066Z" fill="black" stroke="black" stroke-width="0.25"/>
<path d="M23.5823 18.2274L23.5818 18.2274C23.158 18.227 22.7486 18.0809 22.4442 17.8169L22.4442 17.8169C22.1393 17.5524 21.9636 17.1896 21.9631 16.8067L21.9631 16.8066C21.9631 16.7255 22.0004 16.652 22.0594 16.6009C22.1177 16.5503 22.1935 16.5242 22.2696 16.5242C22.3457 16.5242 22.4215 16.5503 22.4798 16.6009C22.5387 16.652 22.5761 16.7254 22.5761 16.8066C22.5761 17.0271 22.6769 17.2427 22.8637 17.4048L23.5823 18.2274ZM23.5823 18.2274C24.0056 18.2262 24.4141 18.0798 24.7177 17.8158C25.0219 17.5514 25.197 17.1891 25.1976 16.8068V16.8066C25.1976 16.7255 25.1603 16.652 25.1013 16.6009M23.5823 18.2274L24.6808 16.6009M24.6808 16.6009L24.6809 16.6008C24.7392 16.5503 24.815 16.5242 24.8911 16.5242C24.9671 16.5242 25.0429 16.5503 25.1013 16.6009M24.6808 16.6009C24.6219 16.652 24.5846 16.7255 24.5846 16.8066C24.5846 17.027 24.4838 17.2427 24.2969 17.4048C24.1095 17.5674 23.852 17.6611 23.5803 17.6611C23.3087 17.6611 23.0512 17.5674 22.8637 17.4049L24.6808 16.6009ZM25.1013 16.6009L25.0194 16.6953L25.1012 16.6008C25.1013 16.6008 25.1013 16.6009 25.1013 16.6009Z" fill="black" stroke="black" stroke-width="0.25"/>
</g>
<rect x="0.5" y="0.5" width="34" height="34" rx="4.5" stroke="#EAF1FF"/>
</svg>
