<svg width="35" height="35" viewBox="0 0 35 35" fill="none" xmlns="http://www.w3.org/2000/svg">
<rect x="0.5" y="0.5" width="34" height="34" rx="4.5" fill="white"/>
<path d="M9.625 9.625H16.625V16.625H9.625V9.625ZM18.375 9.625H25.375V16.625H18.375V9.625ZM9.625 18.375H16.625V25.375H9.625V18.375ZM21 18.375H22.75V21H25.375V22.75H22.75V25.375H21V22.75H18.375V21H21V18.375ZM20.125 11.375V14.875H23.625V11.375H20.125ZM11.375 11.375V14.875H14.875V11.375H11.375ZM11.375 20.125V23.625H14.875V20.125H11.375Z" fill="black"/>
<rect x="0.5" y="0.5" width="34" height="34" rx="4.5" stroke="#EAF1FF"/>
</svg>
