<svg width="35" height="35" viewBox="0 0 35 35" fill="none" xmlns="http://www.w3.org/2000/svg">
<rect x="0.5" y="0.5" width="34" height="34" rx="4.5" fill="white"/>
<path d="M25.9426 24.3906C24.6933 22.2307 22.768 20.682 20.5211 19.9478C21.6325 19.2862 22.496 18.2781 22.979 17.0782C23.4619 15.8783 23.5377 14.5531 23.1946 13.306C22.8515 12.059 22.1085 10.959 21.0798 10.175C20.051 9.3911 18.7933 8.96652 17.4999 8.96652C16.2065 8.96652 14.9489 9.3911 13.9201 10.175C12.8914 10.959 12.1484 12.059 11.8053 13.306C11.4622 14.5531 11.5379 15.8783 12.0209 17.0782C12.5039 18.2781 13.3673 19.2862 14.4787 19.9478C12.2319 20.6812 10.3066 22.2299 9.05728 24.3906C9.01146 24.4653 8.98107 24.5485 8.9679 24.6351C8.95473 24.7217 8.95905 24.8101 8.9806 24.8951C9.00214 24.98 9.04049 25.0598 9.09336 25.1297C9.14624 25.1996 9.21258 25.2581 9.28846 25.302C9.36435 25.3458 9.44824 25.374 9.5352 25.3849C9.62215 25.3958 9.71041 25.3891 9.79475 25.3654C9.8791 25.3416 9.95783 25.3011 10.0263 25.2464C10.0948 25.1917 10.1516 25.1239 10.1934 25.0469C11.7389 22.3759 14.4705 20.7813 17.4999 20.7813C20.5293 20.7813 23.261 22.3759 24.8065 25.0469C24.8483 25.1239 24.9051 25.1917 24.9736 25.2464C25.042 25.3011 25.1208 25.3416 25.2051 25.3654C25.2895 25.3891 25.3777 25.3958 25.4647 25.3849C25.5516 25.374 25.6355 25.3458 25.7114 25.302C25.7873 25.2581 25.8536 25.1996 25.9065 25.1297C25.9594 25.0598 25.9977 24.98 26.0193 24.8951C26.0408 24.8101 26.0451 24.7217 26.032 24.6351C26.0188 24.5485 25.9884 24.4653 25.9426 24.3906ZM12.9062 14.875C12.9062 13.9664 13.1756 13.0783 13.6804 12.3229C14.1851 11.5674 14.9026 10.9786 15.742 10.6309C16.5814 10.2832 17.505 10.1923 18.3961 10.3695C19.2872 10.5468 20.1058 10.9843 20.7482 11.6267C21.3907 12.2692 21.8282 13.0877 22.0054 13.9788C22.1827 14.8699 22.0917 15.7936 21.744 16.633C21.3963 17.4724 20.8075 18.1898 20.0521 18.6946C19.2966 19.1993 18.4085 19.4688 17.4999 19.4688C16.282 19.4675 15.1143 18.9831 14.2531 18.1218C13.3919 17.2606 12.9075 16.0929 12.9062 14.875Z" fill="black"/>
<rect x="0.5" y="0.5" width="34" height="34" rx="4.5" stroke="#EAF1FF"/>
</svg>
