<svg width="35" height="35" viewBox="0 0 35 35" fill="none" xmlns="http://www.w3.org/2000/svg">
<rect x="0.5" y="0.5" width="34" height="34" rx="4.5" fill="white"/>
<path d="M14.7 16.8C13.7718 16.8 12.8816 16.4312 12.2252 15.7749C11.5688 15.1185 11.2 14.2283 11.2 13.3V10.5C11.2 10.3143 11.2738 10.1363 11.4051 10.005C11.5363 9.87374 11.7144 9.79999 11.9 9.79999H12.6C12.7857 9.79999 12.9637 9.72624 13.095 9.59497C13.2263 9.46369 13.3 9.28565 13.3 9.09999C13.3 8.91434 13.2263 8.73629 13.095 8.60502C12.9637 8.47374 12.7857 8.39999 12.6 8.39999H11.9C11.3431 8.39999 10.809 8.62124 10.4151 9.01507C10.0213 9.4089 9.80005 9.94304 9.80005 10.5V13.3C9.80095 14.0908 9.99379 14.8696 10.362 15.5695C10.7302 16.2693 11.2628 16.8693 11.914 17.318C12.5397 17.8696 13.0471 18.5423 13.4057 19.2954C13.7642 20.0486 13.9664 20.8666 14 21.7C14 22.9996 14.5163 24.2459 15.4352 25.1648C16.3542 26.0837 17.6005 26.6 18.9 26.6C20.1996 26.6 21.4459 26.0837 22.3649 25.1648C23.2838 24.2459 23.8 22.9996 23.8 21.7V20.902C24.4599 20.7316 25.035 20.3264 25.4175 19.7624C25.8 19.1983 25.9636 18.5142 25.8777 17.8381C25.7919 17.162 25.4624 16.5405 24.951 16.09C24.4397 15.6395 23.7816 15.3909 23.1 15.3909C22.4185 15.3909 21.7604 15.6395 21.2491 16.09C20.7377 16.5405 20.4082 17.162 20.3224 17.8381C20.2365 18.5142 20.4001 19.1983 20.7826 19.7624C21.1651 20.3264 21.7402 20.7316 22.4 20.902V21.7C22.4 22.6283 22.0313 23.5185 21.3749 24.1749C20.7185 24.8312 19.8283 25.2 18.9 25.2C17.9718 25.2 17.0816 24.8312 16.4252 24.1749C15.7688 23.5185 15.4 22.6283 15.4 21.7C15.4355 20.8655 15.6399 20.0469 16.0008 19.2937C16.3618 18.5405 16.8718 17.8684 17.5 17.318C18.1487 16.8678 18.6786 16.2671 19.0443 15.5673C19.41 14.8675 19.6007 14.0896 19.6 13.3V10.5C19.6 9.94304 19.3788 9.4089 18.985 9.01507C18.5911 8.62124 18.057 8.39999 17.5 8.39999H16.8C16.6144 8.39999 16.4363 8.47374 16.3051 8.60502C16.1738 8.73629 16.1 8.91434 16.1 9.09999C16.1 9.28565 16.1738 9.46369 16.3051 9.59497C16.4363 9.72624 16.6144 9.79999 16.8 9.79999H17.5C17.6857 9.79999 17.8637 9.87374 17.995 10.005C18.1263 10.1363 18.2 10.3143 18.2 10.5V13.3C18.2 13.7596 18.1095 14.2147 17.9336 14.6394C17.7577 15.064 17.4999 15.4499 17.1749 15.7749C16.8499 16.0999 16.4641 16.3577 16.0394 16.5336C15.6148 16.7095 15.1597 16.8 14.7 16.8ZM23.1 19.6C22.7287 19.6 22.3727 19.4525 22.1101 19.1899C21.8475 18.9274 21.7 18.5713 21.7 18.2C21.7 17.8287 21.8475 17.4726 22.1101 17.21C22.3727 16.9475 22.7287 16.8 23.1 16.8C23.4714 16.8 23.8274 16.9475 24.09 17.21C24.3525 17.4726 24.5 17.8287 24.5 18.2C24.5 18.5713 24.3525 18.9274 24.09 19.1899C23.8274 19.4525 23.4714 19.6 23.1 19.6Z" fill="black"/>
<rect x="0.5" y="0.5" width="34" height="34" rx="4.5" stroke="#EAF1FF"/>
</svg>
