<svg width="35" height="35" viewBox="0 0 35 35" fill="none" xmlns="http://www.w3.org/2000/svg">
<rect x="0.5" y="0.5" width="34" height="34" rx="4.5" fill="white"/>
<mask id="path-2-outside-1_576_5736" maskUnits="userSpaceOnUse" x="5.5" y="7.5" width="24" height="20" fill="black">
<rect fill="white" x="5.5" y="7.5" width="24" height="20"/>
<path d="M26.901 21.879C26.7779 21.6284 26.6775 21.3673 26.6009 21.0988C26.2243 19.8542 26.0341 18.1402 26.0326 18.1232L26.0259 18.0626L25.9832 18.0198C25.9471 17.9829 25.0934 17.1237 24.4712 16.7465L24.4203 16.7177L23.4148 10.5864C23.3483 9.97113 23.0409 9.40738 22.56 9.01868C22.0791 8.63001 21.4639 8.44808 20.8493 8.51284L9.35412 9.76773C9.27144 9.77659 9.18924 9.78964 9.10788 9.80688C8.28813 9.84156 7.63792 10.1368 7.1764 10.672C6.67216 11.2566 6.42595 12.1299 6.51956 13.0194L7.81556 21.755C7.87677 22.3421 8.15291 22.8857 8.59068 23.281C9.02847 23.6762 9.59692 23.8952 10.1864 23.8957C10.2726 23.8957 10.3587 23.8913 10.4444 23.8824L18.6731 22.6659C18.7645 22.8335 18.8434 22.9907 18.9156 23.1346C19.0682 23.438 19.1884 23.6779 19.3402 23.8625L19.355 23.878C20.2013 24.6856 21.9352 25.2362 23.1929 25.4053C24.2684 25.5529 24.8339 26.4911 24.8398 26.5L25.1074 26.2719C24.9599 26.0505 24.3451 25.2089 23.2393 25.0598C22.0045 24.893 20.3642 24.3497 19.6027 23.6337C19.4781 23.4794 19.3668 23.2572 19.2267 22.9781C18.9799 22.4571 18.6837 21.9609 18.3421 21.4966C17.6882 20.6271 16.5101 19.2636 16.2823 19.0009C16.2846 18.9563 16.299 18.9133 16.324 18.8763C16.3489 18.8394 16.3835 18.81 16.4239 18.7912C16.5978 18.7521 17.4471 19.0953 18.1475 19.4497L20.0642 21.6465L20.0045 21.0965C19.7582 18.8384 17.3992 16.0548 16.9436 15.5993C16.4423 15.0974 16.5706 14.123 16.5956 13.9598C16.6699 13.9449 16.7463 13.9429 16.8212 13.9539C16.9687 13.9886 17.4921 14.5666 17.9506 15.076C18.6967 15.9049 19.6255 16.9369 20.5721 17.619L20.7756 17.3363C20.3483 17.0196 19.9454 16.6711 19.5702 16.294C19.6093 16.1626 19.7096 15.9131 19.93 15.8282C20.1246 15.8068 20.954 16.356 21.5025 16.7206C21.818 16.931 22.1438 17.148 22.452 17.337L22.6341 17.0417C22.3348 16.8587 22.0156 16.6461 21.7059 16.4401C21.6978 16.305 21.7118 16.0769 21.8342 15.9559L21.8445 15.9456C22.0436 15.9101 22.8353 16.5206 23.3617 16.9266C23.6381 17.1392 23.9234 17.3591 24.2021 17.5599L24.4026 17.275C24.2205 17.1443 24.034 17.0033 23.8497 16.8624C24.005 16.8983 24.1533 16.9599 24.2884 17.0447C24.7992 17.354 25.5114 18.0449 25.689 18.2258C25.7266 18.5506 25.9139 20.0469 26.2633 21.2028C26.3463 21.4916 26.4546 21.7725 26.587 22.0422C26.9467 22.7273 27.5147 23.2802 28.2088 23.6211L28.5 23.3723C27.8142 23.0692 27.2507 22.543 26.901 21.879ZM10.3958 23.5355C10.1291 23.5634 9.85959 23.5383 9.60267 23.4616C9.34572 23.3849 9.10642 23.2582 8.89846 23.0888C8.69054 22.9193 8.51807 22.7104 8.39092 22.4741C8.2638 22.2377 8.18452 21.9785 8.15764 21.7114L6.86457 12.9751C6.78349 12.189 6.99726 11.4131 7.43958 10.8994C7.5636 10.7549 7.7076 10.6289 7.86717 10.5251C7.64683 10.7695 7.48041 11.0577 7.37878 11.3708C7.27715 11.684 7.24262 12.0151 7.27742 12.3425L8.5395 20.8751C8.57169 21.1808 8.66376 21.4772 8.81044 21.7473C8.95712 22.0174 9.15559 22.2559 9.39441 22.4491C9.63323 22.6423 9.90777 22.7864 10.2023 22.8733C10.4968 22.9602 10.8056 22.988 11.1109 22.9553L18.2182 21.9285C18.317 22.0709 18.4047 22.2082 18.4836 22.3404L10.3958 23.5355ZM21.7951 15.5993C21.7123 15.6087 21.6362 15.6497 21.5828 15.7137C21.4576 15.8519 21.3814 16.0276 21.3661 16.2135C20.5891 15.702 20.1128 15.4259 19.8438 15.4908L19.8261 15.496C19.7072 15.5431 19.5992 15.6141 19.5088 15.7046C19.4184 15.7952 19.3475 15.9033 19.3004 16.0223C18.9112 15.6229 18.5419 15.2103 18.2094 14.8412C17.4537 14.0041 17.1095 13.6321 16.8574 13.6063C16.6052 13.5804 16.4283 13.6188 16.3302 13.72C16.2862 13.7644 16.2599 13.8235 16.2565 13.886C16.23 14.0388 16.0545 15.2 16.6989 15.8452C17.3144 16.4615 19.038 18.6502 19.5371 20.5141L18.3576 19.1669L18.3281 19.1514C17.6956 18.8296 16.5868 18.3144 16.2639 18.4753C16.1487 18.5296 16.0541 18.6197 15.9943 18.7323C15.9345 18.8449 15.9127 18.9738 15.9322 19.0998L15.941 19.147L15.9727 19.1832C15.9793 19.1913 16.3656 19.6342 16.833 20.1901L10.5078 21.1024L9.07617 11.8671L21.4759 10.3583L22.3606 15.7765C22.1269 15.6436 21.9433 15.5802 21.7951 15.5993ZM23.4052 16.5184C23.1604 16.3309 22.9452 16.1685 22.7557 16.0341L21.7657 9.97368L8.67662 11.5645L10.2166 21.4966L17.0977 20.506C17.408 20.8802 17.7295 21.2759 17.9823 21.6133L11.0681 22.612C10.808 22.6388 10.5451 22.6139 10.2945 22.5389C10.044 22.4639 9.81063 22.3402 9.60784 22.1749C9.40506 22.0095 9.2368 21.8057 9.11268 21.5753C8.98856 21.3448 8.91105 21.0921 8.88451 20.8315L7.62169 12.2989C7.56782 11.7744 7.72376 11.2498 8.0554 10.8401C8.387 10.4304 8.86726 10.169 9.39097 10.1132L20.8854 8.85831C21.4093 8.80438 21.9332 8.96052 22.3423 9.2926C22.7515 9.62464 23.0125 10.1055 23.0683 10.6299L24.0392 16.5538C23.8346 16.4866 23.616 16.4744 23.4052 16.5184Z"/>
</mask>
<path d="M26.901 21.879C26.7779 21.6284 26.6775 21.3673 26.6009 21.0988C26.2243 19.8542 26.0341 18.1402 26.0326 18.1232L26.0259 18.0626L25.9832 18.0198C25.9471 17.9829 25.0934 17.1237 24.4712 16.7465L24.4203 16.7177L23.4148 10.5864C23.3483 9.97113 23.0409 9.40738 22.56 9.01868C22.0791 8.63001 21.4639 8.44808 20.8493 8.51284L9.35412 9.76773C9.27144 9.77659 9.18924 9.78964 9.10788 9.80688C8.28813 9.84156 7.63792 10.1368 7.1764 10.672C6.67216 11.2566 6.42595 12.1299 6.51956 13.0194L7.81556 21.755C7.87677 22.3421 8.15291 22.8857 8.59068 23.281C9.02847 23.6762 9.59692 23.8952 10.1864 23.8957C10.2726 23.8957 10.3587 23.8913 10.4444 23.8824L18.6731 22.6659C18.7645 22.8335 18.8434 22.9907 18.9156 23.1346C19.0682 23.438 19.1884 23.6779 19.3402 23.8625L19.355 23.878C20.2013 24.6856 21.9352 25.2362 23.1929 25.4053C24.2684 25.5529 24.8339 26.4911 24.8398 26.5L25.1074 26.2719C24.9599 26.0505 24.3451 25.2089 23.2393 25.0598C22.0045 24.893 20.3642 24.3497 19.6027 23.6337C19.4781 23.4794 19.3668 23.2572 19.2267 22.9781C18.9799 22.4571 18.6837 21.9609 18.3421 21.4966C17.6882 20.6271 16.5101 19.2636 16.2823 19.0009C16.2846 18.9563 16.299 18.9133 16.324 18.8763C16.3489 18.8394 16.3835 18.81 16.4239 18.7912C16.5978 18.7521 17.4471 19.0953 18.1475 19.4497L20.0642 21.6465L20.0045 21.0965C19.7582 18.8384 17.3992 16.0548 16.9436 15.5993C16.4423 15.0974 16.5706 14.123 16.5956 13.9598C16.6699 13.9449 16.7463 13.9429 16.8212 13.9539C16.9687 13.9886 17.4921 14.5666 17.9506 15.076C18.6967 15.9049 19.6255 16.9369 20.5721 17.619L20.7756 17.3363C20.3483 17.0196 19.9454 16.6711 19.5702 16.294C19.6093 16.1626 19.7096 15.9131 19.93 15.8282C20.1246 15.8068 20.954 16.356 21.5025 16.7206C21.818 16.931 22.1438 17.148 22.452 17.337L22.6341 17.0417C22.3348 16.8587 22.0156 16.6461 21.7059 16.4401C21.6978 16.305 21.7118 16.0769 21.8342 15.9559L21.8445 15.9456C22.0436 15.9101 22.8353 16.5206 23.3617 16.9266C23.6381 17.1392 23.9234 17.3591 24.2021 17.5599L24.4026 17.275C24.2205 17.1443 24.034 17.0033 23.8497 16.8624C24.005 16.8983 24.1533 16.9599 24.2884 17.0447C24.7992 17.354 25.5114 18.0449 25.689 18.2258C25.7266 18.5506 25.9139 20.0469 26.2633 21.2028C26.3463 21.4916 26.4546 21.7725 26.587 22.0422C26.9467 22.7273 27.5147 23.2802 28.2088 23.6211L28.5 23.3723C27.8142 23.0692 27.2507 22.543 26.901 21.879ZM10.3958 23.5355C10.1291 23.5634 9.85959 23.5383 9.60267 23.4616C9.34572 23.3849 9.10642 23.2582 8.89846 23.0888C8.69054 22.9193 8.51807 22.7104 8.39092 22.4741C8.2638 22.2377 8.18452 21.9785 8.15764 21.7114L6.86457 12.9751C6.78349 12.189 6.99726 11.4131 7.43958 10.8994C7.5636 10.7549 7.7076 10.6289 7.86717 10.5251C7.64683 10.7695 7.48041 11.0577 7.37878 11.3708C7.27715 11.684 7.24262 12.0151 7.27742 12.3425L8.5395 20.8751C8.57169 21.1808 8.66376 21.4772 8.81044 21.7473C8.95712 22.0174 9.15559 22.2559 9.39441 22.4491C9.63323 22.6423 9.90777 22.7864 10.2023 22.8733C10.4968 22.9602 10.8056 22.988 11.1109 22.9553L18.2182 21.9285C18.317 22.0709 18.4047 22.2082 18.4836 22.3404L10.3958 23.5355ZM21.7951 15.5993C21.7123 15.6087 21.6362 15.6497 21.5828 15.7137C21.4576 15.8519 21.3814 16.0276 21.3661 16.2135C20.5891 15.702 20.1128 15.4259 19.8438 15.4908L19.8261 15.496C19.7072 15.5431 19.5992 15.6141 19.5088 15.7046C19.4184 15.7952 19.3475 15.9033 19.3004 16.0223C18.9112 15.6229 18.5419 15.2103 18.2094 14.8412C17.4537 14.0041 17.1095 13.6321 16.8574 13.6063C16.6052 13.5804 16.4283 13.6188 16.3302 13.72C16.2862 13.7644 16.2599 13.8235 16.2565 13.886C16.23 14.0388 16.0545 15.2 16.6989 15.8452C17.3144 16.4615 19.038 18.6502 19.5371 20.5141L18.3576 19.1669L18.3281 19.1514C17.6956 18.8296 16.5868 18.3144 16.2639 18.4753C16.1487 18.5296 16.0541 18.6197 15.9943 18.7323C15.9345 18.8449 15.9127 18.9738 15.9322 19.0998L15.941 19.147L15.9727 19.1832C15.9793 19.1913 16.3656 19.6342 16.833 20.1901L10.5078 21.1024L9.07617 11.8671L21.4759 10.3583L22.3606 15.7765C22.1269 15.6436 21.9433 15.5802 21.7951 15.5993ZM23.4052 16.5184C23.1604 16.3309 22.9452 16.1685 22.7557 16.0341L21.7657 9.97368L8.67662 11.5645L10.2166 21.4966L17.0977 20.506C17.408 20.8802 17.7295 21.2759 17.9823 21.6133L11.0681 22.612C10.808 22.6388 10.5451 22.6139 10.2945 22.5389C10.044 22.4639 9.81063 22.3402 9.60784 22.1749C9.40506 22.0095 9.2368 21.8057 9.11268 21.5753C8.98856 21.3448 8.91105 21.0921 8.88451 20.8315L7.62169 12.2989C7.56782 11.7744 7.72376 11.2498 8.0554 10.8401C8.387 10.4304 8.86726 10.169 9.39097 10.1132L20.8854 8.85831C21.4093 8.80438 21.9332 8.96052 22.3423 9.2926C22.7515 9.62464 23.0125 10.1055 23.0683 10.6299L24.0392 16.5538C23.8346 16.4866 23.616 16.4744 23.4052 16.5184Z" fill="black"/>
<path d="M26.901 21.879C26.7779 21.6284 26.6775 21.3673 26.6009 21.0988C26.2243 19.8542 26.0341 18.1402 26.0326 18.1232L26.0259 18.0626L25.9832 18.0198C25.9471 17.9829 25.0934 17.1237 24.4712 16.7465L24.4203 16.7177L23.4148 10.5864C23.3483 9.97113 23.0409 9.40738 22.56 9.01868C22.0791 8.63001 21.4639 8.44808 20.8493 8.51284L9.35412 9.76773C9.27144 9.77659 9.18924 9.78964 9.10788 9.80688C8.28813 9.84156 7.63792 10.1368 7.1764 10.672C6.67216 11.2566 6.42595 12.1299 6.51956 13.0194L7.81556 21.755C7.87677 22.3421 8.15291 22.8857 8.59068 23.281C9.02847 23.6762 9.59692 23.8952 10.1864 23.8957C10.2726 23.8957 10.3587 23.8913 10.4444 23.8824L18.6731 22.6659C18.7645 22.8335 18.8434 22.9907 18.9156 23.1346C19.0682 23.438 19.1884 23.6779 19.3402 23.8625L19.355 23.878C20.2013 24.6856 21.9352 25.2362 23.1929 25.4053C24.2684 25.5529 24.8339 26.4911 24.8398 26.5L25.1074 26.2719C24.9599 26.0505 24.3451 25.2089 23.2393 25.0598C22.0045 24.893 20.3642 24.3497 19.6027 23.6337C19.4781 23.4794 19.3668 23.2572 19.2267 22.9781C18.9799 22.4571 18.6837 21.9609 18.3421 21.4966C17.6882 20.6271 16.5101 19.2636 16.2823 19.0009C16.2846 18.9563 16.299 18.9133 16.324 18.8763C16.3489 18.8394 16.3835 18.81 16.4239 18.7912C16.5978 18.7521 17.4471 19.0953 18.1475 19.4497L20.0642 21.6465L20.0045 21.0965C19.7582 18.8384 17.3992 16.0548 16.9436 15.5993C16.4423 15.0974 16.5706 14.123 16.5956 13.9598C16.6699 13.9449 16.7463 13.9429 16.8212 13.9539C16.9687 13.9886 17.4921 14.5666 17.9506 15.076C18.6967 15.9049 19.6255 16.9369 20.5721 17.619L20.7756 17.3363C20.3483 17.0196 19.9454 16.6711 19.5702 16.294C19.6093 16.1626 19.7096 15.9131 19.93 15.8282C20.1246 15.8068 20.954 16.356 21.5025 16.7206C21.818 16.931 22.1438 17.148 22.452 17.337L22.6341 17.0417C22.3348 16.8587 22.0156 16.6461 21.7059 16.4401C21.6978 16.305 21.7118 16.0769 21.8342 15.9559L21.8445 15.9456C22.0436 15.9101 22.8353 16.5206 23.3617 16.9266C23.6381 17.1392 23.9234 17.3591 24.2021 17.5599L24.4026 17.275C24.2205 17.1443 24.034 17.0033 23.8497 16.8624C24.005 16.8983 24.1533 16.9599 24.2884 17.0447C24.7992 17.354 25.5114 18.0449 25.689 18.2258C25.7266 18.5506 25.9139 20.0469 26.2633 21.2028C26.3463 21.4916 26.4546 21.7725 26.587 22.0422C26.9467 22.7273 27.5147 23.2802 28.2088 23.6211L28.5 23.3723C27.8142 23.0692 27.2507 22.543 26.901 21.879ZM10.3958 23.5355C10.1291 23.5634 9.85959 23.5383 9.60267 23.4616C9.34572 23.3849 9.10642 23.2582 8.89846 23.0888C8.69054 22.9193 8.51807 22.7104 8.39092 22.4741C8.2638 22.2377 8.18452 21.9785 8.15764 21.7114L6.86457 12.9751C6.78349 12.189 6.99726 11.4131 7.43958 10.8994C7.5636 10.7549 7.7076 10.6289 7.86717 10.5251C7.64683 10.7695 7.48041 11.0577 7.37878 11.3708C7.27715 11.684 7.24262 12.0151 7.27742 12.3425L8.5395 20.8751C8.57169 21.1808 8.66376 21.4772 8.81044 21.7473C8.95712 22.0174 9.15559 22.2559 9.39441 22.4491C9.63323 22.6423 9.90777 22.7864 10.2023 22.8733C10.4968 22.9602 10.8056 22.988 11.1109 22.9553L18.2182 21.9285C18.317 22.0709 18.4047 22.2082 18.4836 22.3404L10.3958 23.5355ZM21.7951 15.5993C21.7123 15.6087 21.6362 15.6497 21.5828 15.7137C21.4576 15.8519 21.3814 16.0276 21.3661 16.2135C20.5891 15.702 20.1128 15.4259 19.8438 15.4908L19.8261 15.496C19.7072 15.5431 19.5992 15.6141 19.5088 15.7046C19.4184 15.7952 19.3475 15.9033 19.3004 16.0223C18.9112 15.6229 18.5419 15.2103 18.2094 14.8412C17.4537 14.0041 17.1095 13.6321 16.8574 13.6063C16.6052 13.5804 16.4283 13.6188 16.3302 13.72C16.2862 13.7644 16.2599 13.8235 16.2565 13.886C16.23 14.0388 16.0545 15.2 16.6989 15.8452C17.3144 16.4615 19.038 18.6502 19.5371 20.5141L18.3576 19.1669L18.3281 19.1514C17.6956 18.8296 16.5868 18.3144 16.2639 18.4753C16.1487 18.5296 16.0541 18.6197 15.9943 18.7323C15.9345 18.8449 15.9127 18.9738 15.9322 19.0998L15.941 19.147L15.9727 19.1832C15.9793 19.1913 16.3656 19.6342 16.833 20.1901L10.5078 21.1024L9.07617 11.8671L21.4759 10.3583L22.3606 15.7765C22.1269 15.6436 21.9433 15.5802 21.7951 15.5993ZM23.4052 16.5184C23.1604 16.3309 22.9452 16.1685 22.7557 16.0341L21.7657 9.97368L8.67662 11.5645L10.2166 21.4966L17.0977 20.506C17.408 20.8802 17.7295 21.2759 17.9823 21.6133L11.0681 22.612C10.808 22.6388 10.5451 22.6139 10.2945 22.5389C10.044 22.4639 9.81063 22.3402 9.60784 22.1749C9.40506 22.0095 9.2368 21.8057 9.11268 21.5753C8.98856 21.3448 8.91105 21.0921 8.88451 20.8315L7.62169 12.2989C7.56782 11.7744 7.72376 11.2498 8.0554 10.8401C8.387 10.4304 8.86726 10.169 9.39097 10.1132L20.8854 8.85831C21.4093 8.80438 21.9332 8.96052 22.3423 9.2926C22.7515 9.62464 23.0125 10.1055 23.0683 10.6299L24.0392 16.5538C23.8346 16.4866 23.616 16.4744 23.4052 16.5184Z" stroke="black" stroke-width="0.3" mask="url(#path-2-outside-1_576_5736)"/>
<rect x="0.5" y="0.5" width="34" height="34" rx="4.5" stroke="#EAF1FF"/>
</svg>
