<svg width="17" height="19" viewBox="0 0 17 19" fill="none" xmlns="http://www.w3.org/2000/svg">
<path d="M16.2149 8.78775C16.0087 7.78006 15.6058 6.82292 15.0293 5.97113C14.4628 5.13312 13.741 4.41137 12.903 3.84488C12.0511 3.26854 11.094 2.86566 10.0864 2.65925C9.55709 2.55191 9.01818 2.49914 8.47813 2.50175V0.75L5 3.375L8.47813 6V4.25175C8.90163 4.25 9.32512 4.29025 9.73375 4.37425C10.5169 4.53473 11.2608 4.84781 11.923 5.29563C12.5761 5.73596 13.1382 6.29805 13.5785 6.95113C14.2622 7.96195 14.6267 9.15469 14.625 10.375C14.6248 11.1939 14.4612 12.0045 14.1438 12.7594C13.9893 13.123 13.8007 13.4711 13.5802 13.7989C13.359 14.1247 13.1076 14.4291 12.8295 14.708C11.9825 15.5534 10.9072 16.1333 9.7355 16.3766C8.92064 16.5411 8.08111 16.5411 7.26625 16.3766C6.48274 16.216 5.73853 15.9026 5.07613 15.4544C4.4238 15.0144 3.86232 14.453 3.42237 13.8006C2.73949 12.7887 2.37474 11.5958 2.375 10.375H0.625C0.625931 11.9445 1.09478 13.4781 1.97163 14.7798C2.53849 15.6164 3.2595 16.3374 4.09613 16.9042C5.39604 17.784 6.93035 18.2529 8.5 18.25C9.03311 18.25 9.56487 18.1963 10.0872 18.0899C11.0941 17.882 12.0507 17.4792 12.903 16.9042C13.3215 16.6223 13.7115 16.3002 14.0676 15.9426C14.4242 15.5851 14.7464 15.1949 15.0301 14.7771C15.9092 13.4776 16.3777 11.9439 16.375 10.375C16.375 9.84189 16.3213 9.31013 16.2149 8.78775Z" fill="white"/>
</svg>
