<svg width="13" height="14" viewBox="0 0 13 14" fill="none" xmlns="http://www.w3.org/2000/svg">
<path d="M6.50002 0.333328C7.33987 0.333328 8.14533 0.684518 8.73919 1.30964C9.33306 1.93476 9.66669 2.78261 9.66669 3.66666C9.66669 4.55072 9.33306 5.39856 8.73919 6.02368C8.14533 6.64881 7.33987 6.99999 6.50002 6.99999C5.66017 6.99999 4.85471 6.64881 4.26085 6.02368C3.66698 5.39856 3.33335 4.55072 3.33335 3.66666C3.33335 2.78261 3.66698 1.93476 4.26085 1.30964C4.85471 0.684518 5.66017 0.333328 6.50002 0.333328ZM6.50002 1.99999C6.08009 1.99999 5.67737 2.17559 5.38043 2.48815C5.0835 2.80071 4.91669 3.22463 4.91669 3.66666C4.91669 4.10869 5.0835 4.53261 5.38043 4.84517C5.67737 5.15773 6.08009 5.33333 6.50002 5.33333C6.91995 5.33333 7.32267 5.15773 7.61961 4.84517C7.91654 4.53261 8.08335 4.10869 8.08335 3.66666C8.08335 3.22463 7.91654 2.80071 7.61961 2.48815C7.32267 2.17559 6.91995 1.99999 6.50002 1.99999ZM6.50002 7.83333C8.61377 7.83333 12.8334 8.94166 12.8334 11.1667V13.6667H0.166687V11.1667C0.166687 8.94166 4.38627 7.83333 6.50002 7.83333ZM6.50002 9.41666C4.14877 9.41666 1.67085 10.6333 1.67085 11.1667V12.0833H11.3292V11.1667C11.3292 10.6333 8.85127 9.41666 6.50002 9.41666Z" fill="black"/>
</svg>
