<svg width="50" height="14" viewBox="0 0 50 14" fill="none" xmlns="http://www.w3.org/2000/svg">
<rect width="14" height="14" rx="2" fill="#F8C617"/>
<path d="M25.1465 10.3965V11H19.8086V10.4551L22.6035 7.28516C22.9512 6.89062 23.2285 6.54492 23.4355 6.24805C23.6426 5.94727 23.791 5.67383 23.8809 5.42773C23.9746 5.17773 24.0215 4.93555 24.0215 4.70117C24.0215 4.35742 23.9531 4.05469 23.8164 3.79297C23.6836 3.53125 23.4844 3.32617 23.2188 3.17773C22.9531 3.0293 22.625 2.95508 22.2344 2.95508C21.8438 2.95508 21.5039 3.03906 21.2148 3.20703C20.9258 3.375 20.7031 3.60938 20.5469 3.91016C20.3945 4.20703 20.3184 4.54492 20.3184 4.92383H19.6211C19.6211 4.45508 19.7246 4.02539 19.9316 3.63477C20.1426 3.24414 20.4434 2.93359 20.834 2.70312C21.2246 2.46875 21.6914 2.35156 22.2344 2.35156C22.75 2.35156 23.1934 2.44336 23.5645 2.62695C23.9355 2.80664 24.2207 3.06641 24.4199 3.40625C24.623 3.74609 24.7246 4.15625 24.7246 4.63672C24.7246 4.89453 24.6777 5.1543 24.584 5.41602C24.4941 5.67773 24.3691 5.93945 24.209 6.20117C24.0527 6.45898 23.873 6.71484 23.6699 6.96875C23.4707 7.22266 23.2617 7.47266 23.043 7.71875L20.6641 10.3965H25.1465ZM30.5141 2.4043H30.6137V3.01953H30.5141C29.975 3.01953 29.4946 3.10742 29.0727 3.2832C28.6547 3.45898 28.3012 3.71289 28.0121 4.04492C27.727 4.37305 27.5102 4.77148 27.3618 5.24023C27.2133 5.70898 27.1391 6.23438 27.1391 6.81641V7.99414C27.1391 8.38867 27.1918 8.74219 27.2973 9.05469C27.4028 9.36328 27.5493 9.62695 27.7368 9.8457C27.9243 10.0645 28.143 10.2305 28.393 10.3438C28.643 10.457 28.9125 10.5137 29.2016 10.5137C29.4868 10.5137 29.7426 10.4551 29.9692 10.3379C30.1957 10.2207 30.3871 10.0566 30.5434 9.8457C30.7035 9.63477 30.8246 9.39258 30.9067 9.11914C30.9926 8.8418 31.0356 8.54492 31.0356 8.22852C31.0356 7.92773 30.9965 7.64453 30.9184 7.37891C30.8442 7.10938 30.7289 6.87109 30.5727 6.66406C30.4164 6.45703 30.2211 6.29492 29.9868 6.17773C29.7524 6.06055 29.477 6.00195 29.1606 6.00195C28.8012 6.00195 28.4653 6.08398 28.1528 6.24805C27.8403 6.41211 27.5844 6.63086 27.3852 6.9043C27.1899 7.17773 27.0864 7.47656 27.0746 7.80078L26.6703 7.79492C26.6977 7.42773 26.7817 7.09766 26.9223 6.80469C27.0629 6.50781 27.2485 6.25586 27.4789 6.04883C27.7133 5.83789 27.9809 5.67773 28.2817 5.56836C28.5864 5.45508 28.9145 5.39844 29.266 5.39844C29.6762 5.39844 30.0336 5.47266 30.3383 5.62109C30.6469 5.76953 30.9028 5.97461 31.1059 6.23633C31.3129 6.49414 31.4672 6.79297 31.5688 7.13281C31.6743 7.46875 31.727 7.82422 31.727 8.19922C31.727 8.60938 31.6684 8.99219 31.5512 9.34766C31.4379 9.69922 31.27 10.0078 31.0473 10.2734C30.8285 10.5391 30.5629 10.7461 30.2504 10.8945C29.9418 11.043 29.5922 11.1172 29.2016 11.1172C28.7719 11.1172 28.3871 11.0352 28.0473 10.8711C27.7075 10.707 27.4164 10.4805 27.1743 10.1914C26.936 9.90234 26.7524 9.57031 26.6235 9.19531C26.4985 8.81641 26.436 8.41211 26.436 7.98242V7.23242C26.436 6.50586 26.52 5.84766 26.6879 5.25781C26.8559 4.66406 27.1078 4.1543 27.4438 3.72852C27.7836 3.30273 28.2075 2.97656 28.7153 2.75C29.227 2.51953 29.8266 2.4043 30.5141 2.4043ZM35.4481 6.93359V7.53711H32.6415V6.93359H35.4481ZM42.2513 8.24609V8.84375H36.2103V8.43945L40.1536 2.46875H40.7395L39.9075 3.91602L37.0657 8.24609H42.2513ZM40.9212 2.46875V11H40.2239V2.46875H40.9212ZM47.3259 2.4043H47.4255V3.01953H47.3259C46.7868 3.01953 46.3064 3.10742 45.8845 3.2832C45.4665 3.45898 45.113 3.71289 44.824 4.04492C44.5388 4.37305 44.322 4.77148 44.1736 5.24023C44.0251 5.70898 43.9509 6.23438 43.9509 6.81641V7.99414C43.9509 8.38867 44.0036 8.74219 44.1091 9.05469C44.2146 9.36328 44.3611 9.62695 44.5486 9.8457C44.7361 10.0645 44.9548 10.2305 45.2048 10.3438C45.4548 10.457 45.7243 10.5137 46.0134 10.5137C46.2986 10.5137 46.5544 10.4551 46.781 10.3379C47.0075 10.2207 47.199 10.0566 47.3552 9.8457C47.5154 9.63477 47.6365 9.39258 47.7185 9.11914C47.8044 8.8418 47.8474 8.54492 47.8474 8.22852C47.8474 7.92773 47.8083 7.64453 47.7302 7.37891C47.656 7.10938 47.5408 6.87109 47.3845 6.66406C47.2283 6.45703 47.0329 6.29492 46.7986 6.17773C46.5642 6.06055 46.2888 6.00195 45.9724 6.00195C45.613 6.00195 45.2771 6.08398 44.9646 6.24805C44.6521 6.41211 44.3962 6.63086 44.197 6.9043C44.0017 7.17773 43.8982 7.47656 43.8865 7.80078L43.4822 7.79492C43.5095 7.42773 43.5935 7.09766 43.7341 6.80469C43.8747 6.50781 44.0603 6.25586 44.2908 6.04883C44.5251 5.83789 44.7927 5.67773 45.0935 5.56836C45.3982 5.45508 45.7263 5.39844 46.0779 5.39844C46.488 5.39844 46.8454 5.47266 47.1501 5.62109C47.4587 5.76953 47.7146 5.97461 47.9177 6.23633C48.1247 6.49414 48.279 6.79297 48.3806 7.13281C48.4861 7.46875 48.5388 7.82422 48.5388 8.19922C48.5388 8.60938 48.4802 8.99219 48.363 9.34766C48.2497 9.69922 48.0818 10.0078 47.8591 10.2734C47.6404 10.5391 47.3747 10.7461 47.0622 10.8945C46.7536 11.043 46.404 11.1172 46.0134 11.1172C45.5837 11.1172 45.199 11.0352 44.8591 10.8711C44.5193 10.707 44.2283 10.4805 43.9861 10.1914C43.7478 9.90234 43.5642 9.57031 43.4353 9.19531C43.3103 8.81641 43.2478 8.41211 43.2478 7.98242V7.23242C43.2478 6.50586 43.3318 5.84766 43.4997 5.25781C43.6677 4.66406 43.9197 4.1543 44.2556 3.72852C44.5954 3.30273 45.0193 2.97656 45.5271 2.75C46.0388 2.51953 46.6384 2.4043 47.3259 2.4043Z" fill="#7B7B7B"/>
</svg>
