<svg width="50" height="14" viewBox="0 0 50 14" fill="none" xmlns="http://www.w3.org/2000/svg">
<rect width="14" height="14" rx="2" fill="#2F80ED"/>
<path d="M25.4395 8.24609V8.84375H19.3984V8.43945L23.3418 2.46875H23.9277L23.0957 3.91602L20.2539 8.24609H25.4395ZM24.1094 2.46875V11H23.4121V2.46875H24.1094ZM31.7328 2.46875V2.87305L28.0883 11H27.3618L30.9828 3.07227H26.1254V2.46875H31.7328ZM35.4481 6.93359V7.53711H32.6415V6.93359H35.4481ZM37.6458 6.78125L37.095 6.62305L37.511 2.46875H41.7767V3.125H38.1087L37.8099 5.99609C37.9583 5.89062 38.1731 5.78711 38.4544 5.68555C38.7395 5.58008 39.0599 5.52734 39.4153 5.52734C39.7942 5.52734 40.138 5.5918 40.4466 5.7207C40.7591 5.8457 41.0267 6.0293 41.2493 6.27148C41.472 6.50977 41.6438 6.79883 41.7649 7.13867C41.886 7.47461 41.9466 7.85547 41.9466 8.28125C41.9466 8.69141 41.8958 9.06836 41.7942 9.41211C41.6927 9.75586 41.5384 10.0566 41.3313 10.3145C41.1243 10.5684 40.8606 10.7656 40.5403 10.9062C40.22 11.0469 39.8392 11.1172 39.3978 11.1172C39.0579 11.1172 38.7376 11.0703 38.4368 10.9766C38.1399 10.8789 37.8743 10.7324 37.6399 10.5371C37.4056 10.3418 37.2142 10.0957 37.0657 9.79883C36.9212 9.50195 36.8313 9.1543 36.7962 8.75586H37.47C37.5169 9.13867 37.6204 9.46094 37.7806 9.72266C37.9407 9.98438 38.1556 10.1816 38.4251 10.3145C38.6985 10.4473 39.0228 10.5137 39.3978 10.5137C39.7024 10.5137 39.9681 10.4648 40.1946 10.3672C40.4251 10.2695 40.6165 10.127 40.7688 9.93945C40.9251 9.74805 41.0423 9.51562 41.1204 9.24219C41.2024 8.96484 41.2435 8.64844 41.2435 8.29297C41.2435 7.98828 41.2005 7.70898 41.1145 7.45508C41.0286 7.19727 40.9017 6.97266 40.7337 6.78125C40.5696 6.58594 40.3665 6.43555 40.1243 6.33008C39.8821 6.22461 39.6048 6.17188 39.2923 6.17188C38.886 6.17188 38.5618 6.22656 38.3196 6.33594C38.0813 6.44531 37.8567 6.59375 37.6458 6.78125ZM44.32 6.78125L43.7693 6.62305L44.1853 2.46875H48.4509V3.125H44.7829L44.4841 5.99609C44.6325 5.89062 44.8474 5.78711 45.1286 5.68555C45.4138 5.58008 45.7341 5.52734 46.0896 5.52734C46.4685 5.52734 46.8122 5.5918 47.1208 5.7207C47.4333 5.8457 47.7009 6.0293 47.9236 6.27148C48.1462 6.50977 48.3181 6.79883 48.4392 7.13867C48.5603 7.47461 48.6208 7.85547 48.6208 8.28125C48.6208 8.69141 48.57 9.06836 48.4685 9.41211C48.3669 9.75586 48.2126 10.0566 48.0056 10.3145C47.7986 10.5684 47.5349 10.7656 47.2146 10.9062C46.8943 11.0469 46.5134 11.1172 46.072 11.1172C45.7322 11.1172 45.4118 11.0703 45.1111 10.9766C44.8142 10.8789 44.5486 10.7324 44.3142 10.5371C44.0798 10.3418 43.8884 10.0957 43.74 9.79883C43.5954 9.50195 43.5056 9.1543 43.4704 8.75586H44.1443C44.1911 9.13867 44.2947 9.46094 44.4548 9.72266C44.615 9.98438 44.8298 10.1816 45.0993 10.3145C45.3728 10.4473 45.697 10.5137 46.072 10.5137C46.3767 10.5137 46.6423 10.4648 46.8689 10.3672C47.0993 10.2695 47.2908 10.127 47.4431 9.93945C47.5993 9.74805 47.7165 9.51562 47.7947 9.24219C47.8767 8.96484 47.9177 8.64844 47.9177 8.29297C47.9177 7.98828 47.8747 7.70898 47.7888 7.45508C47.7029 7.19727 47.5759 6.97266 47.4079 6.78125C47.2439 6.58594 47.0408 6.43555 46.7986 6.33008C46.5564 6.22461 46.279 6.17188 45.9665 6.17188C45.5603 6.17188 45.2361 6.22656 44.9939 6.33594C44.7556 6.44531 44.531 6.59375 44.32 6.78125Z" fill="#7B7B7B"/>
</svg>
