<svg width="50" height="14" viewBox="0 0 50 14" fill="none" xmlns="http://www.w3.org/2000/svg">
<rect width="14" height="14" rx="2" fill="#1DD96C"/>
<path d="M20.834 6.78125L20.2832 6.62305L20.6992 2.46875H24.9648V3.125H21.2969L20.998 5.99609C21.1465 5.89062 21.3613 5.78711 21.6426 5.68555C21.9277 5.58008 22.248 5.52734 22.6035 5.52734C22.9824 5.52734 23.3262 5.5918 23.6348 5.7207C23.9473 5.8457 24.2148 6.0293 24.4375 6.27148C24.6602 6.50977 24.832 6.79883 24.9531 7.13867C25.0742 7.47461 25.1348 7.85547 25.1348 8.28125C25.1348 8.69141 25.084 9.06836 24.9824 9.41211C24.8809 9.75586 24.7266 10.0566 24.5195 10.3145C24.3125 10.5684 24.0488 10.7656 23.7285 10.9062C23.4082 11.0469 23.0273 11.1172 22.5859 11.1172C22.2461 11.1172 21.9258 11.0703 21.625 10.9766C21.3281 10.8789 21.0625 10.7324 20.8281 10.5371C20.5938 10.3418 20.4023 10.0957 20.2539 9.79883C20.1094 9.50195 20.0195 9.1543 19.9844 8.75586H20.6582C20.7051 9.13867 20.8086 9.46094 20.9688 9.72266C21.1289 9.98438 21.3438 10.1816 21.6133 10.3145C21.8867 10.4473 22.2109 10.5137 22.5859 10.5137C22.8906 10.5137 23.1562 10.4648 23.3828 10.3672C23.6133 10.2695 23.8047 10.127 23.957 9.93945C24.1133 9.74805 24.2305 9.51562 24.3086 9.24219C24.3906 8.96484 24.4316 8.64844 24.4316 8.29297C24.4316 7.98828 24.3887 7.70898 24.3027 7.45508C24.2168 7.19727 24.0898 6.97266 23.9219 6.78125C23.7578 6.58594 23.5547 6.43555 23.3125 6.33008C23.0703 6.22461 22.793 6.17188 22.4805 6.17188C22.0742 6.17188 21.75 6.22656 21.5078 6.33594C21.2695 6.44531 21.0449 6.59375 20.834 6.78125ZM30.5141 2.4043H30.6137V3.01953H30.5141C29.975 3.01953 29.4946 3.10742 29.0727 3.2832C28.6547 3.45898 28.3012 3.71289 28.0121 4.04492C27.727 4.37305 27.5102 4.77148 27.3618 5.24023C27.2133 5.70898 27.1391 6.23438 27.1391 6.81641V7.99414C27.1391 8.38867 27.1918 8.74219 27.2973 9.05469C27.4028 9.36328 27.5493 9.62695 27.7368 9.8457C27.9243 10.0645 28.143 10.2305 28.393 10.3438C28.643 10.457 28.9125 10.5137 29.2016 10.5137C29.4868 10.5137 29.7426 10.4551 29.9692 10.3379C30.1957 10.2207 30.3871 10.0566 30.5434 9.8457C30.7035 9.63477 30.8246 9.39258 30.9067 9.11914C30.9926 8.8418 31.0356 8.54492 31.0356 8.22852C31.0356 7.92773 30.9965 7.64453 30.9184 7.37891C30.8442 7.10938 30.7289 6.87109 30.5727 6.66406C30.4164 6.45703 30.2211 6.29492 29.9868 6.17773C29.7524 6.06055 29.477 6.00195 29.1606 6.00195C28.8012 6.00195 28.4653 6.08398 28.1528 6.24805C27.8403 6.41211 27.5844 6.63086 27.3852 6.9043C27.1899 7.17773 27.0864 7.47656 27.0746 7.80078L26.6703 7.79492C26.6977 7.42773 26.7817 7.09766 26.9223 6.80469C27.0629 6.50781 27.2485 6.25586 27.4789 6.04883C27.7133 5.83789 27.9809 5.67773 28.2817 5.56836C28.5864 5.45508 28.9145 5.39844 29.266 5.39844C29.6762 5.39844 30.0336 5.47266 30.3383 5.62109C30.6469 5.76953 30.9028 5.97461 31.1059 6.23633C31.3129 6.49414 31.4672 6.79297 31.5688 7.13281C31.6743 7.46875 31.727 7.82422 31.727 8.19922C31.727 8.60938 31.6684 8.99219 31.5512 9.34766C31.4379 9.69922 31.27 10.0078 31.0473 10.2734C30.8285 10.5391 30.5629 10.7461 30.2504 10.8945C29.9418 11.043 29.5922 11.1172 29.2016 11.1172C28.7719 11.1172 28.3871 11.0352 28.0473 10.8711C27.7075 10.707 27.4164 10.4805 27.1743 10.1914C26.936 9.90234 26.7524 9.57031 26.6235 9.19531C26.4985 8.81641 26.436 8.41211 26.436 7.98242V7.23242C26.436 6.50586 26.52 5.84766 26.6879 5.25781C26.8559 4.66406 27.1078 4.1543 27.4438 3.72852C27.7836 3.30273 28.2075 2.97656 28.7153 2.75C29.227 2.51953 29.8266 2.4043 30.5141 2.4043ZM35.4481 6.93359V7.53711H32.6415V6.93359H35.4481ZM41.8704 2.46875V2.87305L38.2259 11H37.4993L41.1204 3.07227H36.263V2.46875H41.8704ZM48.4333 6.00195V7.4375C48.4333 8.0625 48.3747 8.60742 48.2575 9.07227C48.1404 9.5332 47.9685 9.91602 47.7419 10.2207C47.5193 10.5215 47.2458 10.7461 46.9216 10.8945C46.6013 11.043 46.2341 11.1172 45.82 11.1172C45.4919 11.1172 45.1911 11.0703 44.9177 10.9766C44.6443 10.8828 44.4001 10.7402 44.1853 10.5488C43.9743 10.3535 43.7947 10.1094 43.6462 9.81641C43.4978 9.52344 43.3845 9.17969 43.3064 8.78516C43.2283 8.38672 43.1892 7.9375 43.1892 7.4375V6.00195C43.1892 5.37305 43.2478 4.83008 43.365 4.37305C43.4861 3.91602 43.6579 3.53711 43.8806 3.23633C44.1072 2.93555 44.3825 2.71289 44.7068 2.56836C45.031 2.41992 45.3982 2.3457 45.8083 2.3457C46.1365 2.3457 46.4372 2.39453 46.7107 2.49219C46.988 2.58594 47.2322 2.72656 47.4431 2.91406C47.6579 3.10156 47.8376 3.3418 47.9822 3.63477C48.1306 3.92383 48.2419 4.26562 48.3161 4.66016C48.3943 5.05469 48.4333 5.50195 48.4333 6.00195ZM47.7361 7.51953V5.91406C47.7361 5.52734 47.7087 5.17578 47.654 4.85938C47.6033 4.54297 47.5271 4.26562 47.4255 4.02734C47.324 3.78906 47.195 3.58984 47.0388 3.42969C46.8865 3.26953 46.7068 3.15039 46.4997 3.07227C46.2966 2.99023 46.0661 2.94922 45.8083 2.94922C45.4919 2.94922 45.2126 3.01367 44.9704 3.14258C44.7322 3.26758 44.5329 3.45508 44.3728 3.70508C44.2126 3.95117 44.0915 4.25977 44.0095 4.63086C43.9314 5.00195 43.8923 5.42969 43.8923 5.91406V7.51953C43.8923 7.90234 43.9177 8.25195 43.9685 8.56836C44.0193 8.88086 44.0974 9.1582 44.2029 9.40039C44.3083 9.64258 44.4372 9.84766 44.5896 10.0156C44.7458 10.1797 44.9255 10.3047 45.1286 10.3906C45.3357 10.4727 45.5661 10.5137 45.82 10.5137C46.1443 10.5137 46.4255 10.4492 46.6638 10.3203C46.9021 10.1875 47.1013 9.99414 47.2615 9.74023C47.4216 9.48242 47.5408 9.16797 47.6189 8.79688C47.697 8.42188 47.7361 7.99609 47.7361 7.51953Z" fill="#7B7B7B"/>
</svg>
