<svg width="100" height="100" viewBox="0 0 100 100" fill="none" xmlns="http://www.w3.org/2000/svg">
<path d="M100 50C100 61.2262 96.222 72.1258 89.2744 80.9439C82.3267 89.7619 72.6137 95.9853 61.6991 98.612C50.7845 101.239 39.3035 100.116 29.1046 95.4245C18.9057 90.733 10.5824 82.7457 5.47477 72.7487L29.0108 60.7238C31.4185 65.4364 35.3421 69.2016 40.1499 71.4131C44.9577 73.6247 50.3698 74.154 55.515 72.9158C60.6601 71.6775 65.2389 68.7438 68.514 64.587C71.7891 60.4301 73.57 55.292 73.57 50H100Z" fill="#F8C617"/>
<path d="M5.49689 72.792C2.17585 66.3074 0.312051 59.1753 0.0359243 51.895L26.4469 50.8933C26.5771 54.3253 27.4557 57.6873 29.0212 60.7441L5.49689 72.792Z" fill="#1DD96C"/>
<path d="M0.0365641 51.9118C-0.234061 44.8393 0.999909 37.79 3.65686 31.23C6.31382 24.67 10.3332 18.7488 15.4492 13.858L33.7127 32.9626C31.301 35.2681 29.4063 38.0594 28.1538 41.1518C26.9013 44.2442 26.3196 47.5673 26.4472 50.9012L0.0365641 51.9118Z" fill="#2F80ED"/>
<path d="M15.4383 13.8684C19.5421 9.94291 24.2847 6.74523 29.4625 4.41259L40.3186 28.5101C37.8778 29.6097 35.6421 31.1171 33.7076 32.9675L15.4383 13.8684Z" fill="#2F80ED"/>
<path d="M29.4483 4.41898C35.9174 1.50221 42.9332 -0.00416021 50.0294 8.62818e-06L50.0138 26.43C46.6687 26.428 43.3614 27.1381 40.3119 28.5131L29.4483 4.41898Z" fill="#F8C617"/>
<path d="M100 50C100 43.4339 98.7067 36.9321 96.194 30.8658C93.6812 24.7995 89.9983 19.2876 85.3553 14.6447C80.7124 10.0017 75.2004 6.31876 69.1342 3.80602C63.0679 1.29329 56.5661 -2.87013e-07 50 0L50 26.43C53.0953 26.43 56.1602 27.0396 59.0199 28.2241C61.8795 29.4086 64.4779 31.1448 66.6665 33.3335C68.8552 35.5221 70.5914 38.1205 71.7759 40.9801C72.9604 43.8398 73.57 46.9047 73.57 50H100Z" fill="#F8C617"/>
</svg>
