<svg width="45" height="14" viewBox="0 0 45 14" fill="none" xmlns="http://www.w3.org/2000/svg">
<rect width="14" height="14" rx="2" fill="#2F80ED"/>
<path d="M20.3066 2.46875H21.0332L24.1855 9.98047L27.3438 2.46875H28.0645L24.4609 11H23.9102L20.3066 2.46875ZM20.084 2.46875H20.7227L20.7988 7.27344V11H20.084V2.46875ZM27.6602 2.46875H28.2988V11H27.5781V7.27344L27.6602 2.46875ZM34.1762 9.86328V6.59375C34.1762 6.29297 34.1137 6.0332 33.9887 5.81445C33.8637 5.5957 33.6801 5.42773 33.4379 5.31055C33.1957 5.19336 32.8969 5.13477 32.5414 5.13477C32.2133 5.13477 31.9203 5.19336 31.6625 5.31055C31.4086 5.42383 31.2075 5.57812 31.059 5.77344C30.9145 5.96484 30.8422 6.17773 30.8422 6.41211L30.1391 6.40625C30.1391 6.16797 30.1977 5.9375 30.3149 5.71484C30.4321 5.49219 30.5981 5.29297 30.8129 5.11719C31.0278 4.94141 31.2836 4.80273 31.5805 4.70117C31.8813 4.5957 32.2114 4.54297 32.5707 4.54297C33.0239 4.54297 33.4223 4.61914 33.766 4.77148C34.1137 4.92383 34.3852 5.15234 34.5805 5.45703C34.7758 5.76172 34.8735 6.14453 34.8735 6.60547V9.66992C34.8735 9.88867 34.8891 10.1152 34.9203 10.3496C34.9555 10.584 35.0043 10.7773 35.0668 10.9297V11H34.3227C34.2758 10.8594 34.2387 10.6836 34.2114 10.4727C34.1879 10.2578 34.1762 10.0547 34.1762 9.86328ZM34.3403 7.30859L34.352 7.84766H32.975C32.6157 7.84766 32.2934 7.88086 32.0082 7.94727C31.727 8.00977 31.4887 8.10352 31.2934 8.22852C31.0981 8.34961 30.9477 8.49609 30.8422 8.66797C30.7407 8.83984 30.6899 9.03516 30.6899 9.25391C30.6899 9.48047 30.7465 9.6875 30.8598 9.875C30.977 10.0625 31.141 10.2129 31.352 10.3262C31.5668 10.4355 31.8207 10.4902 32.1137 10.4902C32.5043 10.4902 32.8481 10.418 33.145 10.2734C33.4457 10.1289 33.6938 9.93945 33.8891 9.70508C34.0844 9.4707 34.2153 9.21484 34.2817 8.9375L34.5864 9.3418C34.5356 9.53711 34.4418 9.73828 34.3051 9.94531C34.1723 10.1484 33.9985 10.3398 33.7836 10.5195C33.5688 10.6953 33.3149 10.8398 33.0219 10.9531C32.7328 11.0625 32.4047 11.1172 32.0375 11.1172C31.6235 11.1172 31.2621 11.0391 30.9535 10.8828C30.6489 10.7266 30.4106 10.5137 30.2387 10.2441C30.0707 9.9707 29.9867 9.66211 29.9867 9.31836C29.9867 9.00586 30.0532 8.72656 30.186 8.48047C30.3188 8.23047 30.5102 8.01953 30.7602 7.84766C31.0141 7.67188 31.3188 7.53906 31.6742 7.44922C32.0336 7.35547 32.436 7.30859 32.8813 7.30859H34.3403ZM37.5516 2V11H36.8544V2H37.5516ZM41.9349 11.1172C41.5208 11.1172 41.1399 11.041 40.7923 10.8887C40.4485 10.7363 40.1478 10.5215 39.8899 10.2441C39.636 9.9668 39.4388 9.63867 39.2981 9.25977C39.1614 8.87695 39.0931 8.45898 39.0931 8.00586V7.75391C39.0931 7.26562 39.1653 6.82422 39.3099 6.42969C39.4544 6.03516 39.6536 5.69727 39.9075 5.41602C40.1614 5.13477 40.4505 4.91992 40.7747 4.77148C41.1028 4.61914 41.4466 4.54297 41.806 4.54297C42.2083 4.54297 42.5657 4.61523 42.8782 4.75977C43.1907 4.90039 43.4524 5.10156 43.6634 5.36328C43.8782 5.62109 44.0403 5.92773 44.1497 6.2832C44.2591 6.63477 44.3138 7.02344 44.3138 7.44922V7.87695H39.5149V7.2793H43.6165V7.19727C43.6087 6.8418 43.5364 6.50977 43.3997 6.20117C43.2669 5.88867 43.0677 5.63477 42.802 5.43945C42.5364 5.24414 42.2044 5.14648 41.806 5.14648C41.5091 5.14648 41.2356 5.20898 40.9856 5.33398C40.7395 5.45898 40.5267 5.63867 40.347 5.87305C40.1712 6.10352 40.0345 6.37891 39.9368 6.69922C39.8431 7.01562 39.7962 7.36719 39.7962 7.75391V8.00586C39.7962 8.35742 39.847 8.68555 39.9485 8.99023C40.054 9.29102 40.2024 9.55664 40.3938 9.78711C40.5892 10.0176 40.8196 10.1973 41.0853 10.3262C41.3509 10.4551 41.6438 10.5195 41.9642 10.5195C42.3392 10.5195 42.6712 10.4512 42.9603 10.3145C43.2493 10.1738 43.5091 9.95312 43.7395 9.65234L44.179 9.99219C44.0423 10.1953 43.8704 10.3828 43.6634 10.5547C43.4603 10.7266 43.2161 10.8633 42.931 10.9648C42.6458 11.0664 42.3138 11.1172 41.9349 11.1172Z" fill="#7B7B7B"/>
</svg>
