<svg width="58" height="14" viewBox="0 0 58 14" fill="none" xmlns="http://www.w3.org/2000/svg">
<rect width="14" height="14" rx="2" fill="#FB9435"/>
<path d="M20.8047 2.46875V11H20.084V2.46875H20.8047ZM24.7773 6.39453V7.01562H20.5645V6.39453H24.7773ZM25.3691 2.46875V3.08984H20.5645V2.46875H25.3691ZM29.0082 11.1172C28.5942 11.1172 28.2133 11.041 27.8657 10.8887C27.5219 10.7363 27.2211 10.5215 26.9633 10.2441C26.7094 9.9668 26.5121 9.63867 26.3715 9.25977C26.2348 8.87695 26.1664 8.45898 26.1664 8.00586V7.75391C26.1664 7.26562 26.2387 6.82422 26.3832 6.42969C26.5278 6.03516 26.727 5.69727 26.9809 5.41602C27.2348 5.13477 27.5239 4.91992 27.8481 4.77148C28.1762 4.61914 28.52 4.54297 28.8793 4.54297C29.2817 4.54297 29.6391 4.61523 29.9516 4.75977C30.2641 4.90039 30.5258 5.10156 30.7368 5.36328C30.9516 5.62109 31.1137 5.92773 31.2231 6.2832C31.3325 6.63477 31.3871 7.02344 31.3871 7.44922V7.87695H26.5883V7.2793H30.6899V7.19727C30.6821 6.8418 30.6098 6.50977 30.4731 6.20117C30.3403 5.88867 30.141 5.63477 29.8754 5.43945C29.6098 5.24414 29.2778 5.14648 28.8793 5.14648C28.5825 5.14648 28.309 5.20898 28.059 5.33398C27.8129 5.45898 27.6 5.63867 27.4203 5.87305C27.2446 6.10352 27.1078 6.37891 27.0102 6.69922C26.9164 7.01562 26.8696 7.36719 26.8696 7.75391V8.00586C26.8696 8.35742 26.9203 8.68555 27.0219 8.99023C27.1274 9.29102 27.2758 9.55664 27.4672 9.78711C27.6625 10.0176 27.893 10.1973 28.1586 10.3262C28.4243 10.4551 28.7172 10.5195 29.0375 10.5195C29.4125 10.5195 29.7446 10.4512 30.0336 10.3145C30.3227 10.1738 30.5825 9.95312 30.8129 9.65234L31.2524 9.99219C31.1157 10.1953 30.9438 10.3828 30.7368 10.5547C30.5336 10.7266 30.2895 10.8633 30.0043 10.9648C29.7192 11.0664 29.3871 11.1172 29.0082 11.1172ZM33.4501 5.97266V11H32.7469V4.66016H33.4208L33.4501 5.97266ZM33.3212 7.4375L32.9813 7.26172C33.0048 6.88672 33.0751 6.53516 33.1923 6.20703C33.3133 5.87891 33.4813 5.58984 33.6962 5.33984C33.911 5.08984 34.1688 4.89453 34.4696 4.75391C34.7704 4.61328 35.1122 4.54297 35.495 4.54297C35.8036 4.54297 36.0829 4.58594 36.3329 4.67188C36.5868 4.75391 36.8016 4.88477 36.9774 5.06445C37.1571 5.24023 37.2958 5.4707 37.3934 5.75586C37.4911 6.04102 37.5399 6.38281 37.5399 6.78125V11H36.8426V6.80469C36.8426 6.38281 36.7762 6.05273 36.6434 5.81445C36.5145 5.57617 36.3329 5.40625 36.0985 5.30469C35.868 5.20312 35.6005 5.15234 35.2958 5.15234C34.9364 5.15234 34.6317 5.22656 34.3817 5.375C34.1356 5.51953 33.9344 5.70898 33.7782 5.94336C33.6258 6.17383 33.5126 6.42188 33.4383 6.6875C33.3641 6.94922 33.3251 7.19922 33.3212 7.4375ZM37.534 6.88672L37.0653 6.89844C37.0848 6.58984 37.1551 6.29492 37.2762 6.01367C37.4012 5.73242 37.5712 5.48242 37.786 5.26367C38.0008 5.04102 38.2567 4.86523 38.5536 4.73633C38.8544 4.60742 39.1923 4.54297 39.5673 4.54297C39.8954 4.54297 40.1883 4.58789 40.4462 4.67773C40.704 4.76367 40.9208 4.90234 41.0965 5.09375C41.2762 5.28125 41.413 5.52148 41.5067 5.81445C41.6005 6.10742 41.6473 6.45898 41.6473 6.86914V11H40.9442V6.86328C40.9442 6.41406 40.8778 6.06641 40.745 5.82031C40.6161 5.57031 40.4364 5.39648 40.2059 5.29883C39.9755 5.20117 39.7059 5.15234 39.3973 5.15234C39.0926 5.15625 38.8251 5.21289 38.5946 5.32227C38.3641 5.42773 38.1708 5.56836 38.0145 5.74414C37.8622 5.91602 37.745 6.10156 37.663 6.30078C37.5848 6.5 37.5419 6.69531 37.534 6.88672ZM47.302 9.86328V6.59375C47.302 6.29297 47.2395 6.0332 47.1145 5.81445C46.9895 5.5957 46.806 5.42773 46.5638 5.31055C46.3216 5.19336 46.0228 5.13477 45.6673 5.13477C45.3392 5.13477 45.0462 5.19336 44.7884 5.31055C44.5345 5.42383 44.3333 5.57812 44.1849 5.77344C44.0403 5.96484 43.9681 6.17773 43.9681 6.41211L43.2649 6.40625C43.2649 6.16797 43.3235 5.9375 43.4407 5.71484C43.5579 5.49219 43.7239 5.29297 43.9388 5.11719C44.1536 4.94141 44.4095 4.80273 44.7063 4.70117C45.0071 4.5957 45.3372 4.54297 45.6966 4.54297C46.1497 4.54297 46.5481 4.61914 46.8919 4.77148C47.2395 4.92383 47.511 5.15234 47.7063 5.45703C47.9017 5.76172 47.9993 6.14453 47.9993 6.60547V9.66992C47.9993 9.88867 48.0149 10.1152 48.0462 10.3496C48.0813 10.584 48.1302 10.7773 48.1927 10.9297V11H47.4485C47.4017 10.8594 47.3645 10.6836 47.3372 10.4727C47.3138 10.2578 47.302 10.0547 47.302 9.86328ZM47.4661 7.30859L47.4778 7.84766H46.1009C45.7415 7.84766 45.4192 7.88086 45.1341 7.94727C44.8528 8.00977 44.6145 8.10352 44.4192 8.22852C44.2239 8.34961 44.0735 8.49609 43.9681 8.66797C43.8665 8.83984 43.8157 9.03516 43.8157 9.25391C43.8157 9.48047 43.8724 9.6875 43.9856 9.875C44.1028 10.0625 44.2669 10.2129 44.4778 10.3262C44.6927 10.4355 44.9466 10.4902 45.2395 10.4902C45.6302 10.4902 45.9739 10.418 46.2708 10.2734C46.5716 10.1289 46.8196 9.93945 47.0149 9.70508C47.2103 9.4707 47.3411 9.21484 47.4075 8.9375L47.7122 9.3418C47.6614 9.53711 47.5677 9.73828 47.431 9.94531C47.2981 10.1484 47.1243 10.3398 46.9095 10.5195C46.6946 10.6953 46.4407 10.8398 46.1478 10.9531C45.8587 11.0625 45.5306 11.1172 45.1634 11.1172C44.7493 11.1172 44.388 11.0391 44.0794 10.8828C43.7747 10.7266 43.5364 10.5137 43.3645 10.2441C43.1966 9.9707 43.1126 9.66211 43.1126 9.31836C43.1126 9.00586 43.179 8.72656 43.3118 8.48047C43.4446 8.23047 43.636 8.01953 43.886 7.84766C44.1399 7.67188 44.4446 7.53906 44.8001 7.44922C45.1595 7.35547 45.5618 7.30859 46.0071 7.30859H47.4661ZM50.6775 2V11H49.9802V2H50.6775ZM55.0607 11.1172C54.6466 11.1172 54.2658 11.041 53.9181 10.8887C53.5744 10.7363 53.2736 10.5215 53.0158 10.2441C52.7619 9.9668 52.5646 9.63867 52.424 9.25977C52.2873 8.87695 52.2189 8.45898 52.2189 8.00586V7.75391C52.2189 7.26562 52.2912 6.82422 52.4357 6.42969C52.5802 6.03516 52.7795 5.69727 53.0334 5.41602C53.2873 5.13477 53.5763 4.91992 53.9005 4.77148C54.2287 4.61914 54.5724 4.54297 54.9318 4.54297C55.3341 4.54297 55.6916 4.61523 56.0041 4.75977C56.3166 4.90039 56.5783 5.10156 56.7892 5.36328C57.0041 5.62109 57.1662 5.92773 57.2755 6.2832C57.3849 6.63477 57.4396 7.02344 57.4396 7.44922V7.87695H52.6408V7.2793H56.7423V7.19727C56.7345 6.8418 56.6623 6.50977 56.5255 6.20117C56.3927 5.88867 56.1935 5.63477 55.9279 5.43945C55.6623 5.24414 55.3302 5.14648 54.9318 5.14648C54.6349 5.14648 54.3615 5.20898 54.1115 5.33398C53.8654 5.45898 53.6525 5.63867 53.4728 5.87305C53.297 6.10352 53.1603 6.37891 53.0627 6.69922C52.9689 7.01562 52.922 7.36719 52.922 7.75391V8.00586C52.922 8.35742 52.9728 8.68555 53.0744 8.99023C53.1798 9.29102 53.3283 9.55664 53.5197 9.78711C53.715 10.0176 53.9455 10.1973 54.2111 10.3262C54.4767 10.4551 54.7697 10.5195 55.09 10.5195C55.465 10.5195 55.797 10.4512 56.0861 10.3145C56.3752 10.1738 56.6349 9.95312 56.8654 9.65234L57.3048 9.99219C57.1681 10.1953 56.9963 10.3828 56.7892 10.5547C56.5861 10.7266 56.342 10.8633 56.0568 10.9648C55.7716 11.0664 55.4396 11.1172 55.0607 11.1172Z" fill="#7B7B7B"/>
</svg>
