<svg width="326" height="287" viewBox="0 0 326 287" fill="none" xmlns="http://www.w3.org/2000/svg">
<path opacity="0.16" d="M24.459 0H9.58956C4.29339 0 0 4.29899 0 9.60206V217.233C0 222.536 4.29339 226.835 9.58956 226.835H24.459C29.7552 226.835 34.0486 222.536 34.0486 217.233V9.60206C34.0486 4.29899 29.7552 0 24.459 0Z" fill="url(#paint0_linear_1_586)"/>
<path d="M24.459 122.861H9.58956C4.29339 122.861 0 127.16 0 132.463V217.21C0 222.513 4.29339 226.812 9.58956 226.812H24.459C29.7552 226.812 34.0486 222.513 34.0486 217.21V132.463C34.0486 127.16 29.7552 122.861 24.459 122.861Z" fill="url(#paint1_linear_1_586)"/>
<path opacity="0.16" d="M97.4526 0H82.5831C77.2869 0 72.9935 4.29899 72.9935 9.60206V217.233C72.9935 222.536 77.2869 226.835 82.5831 226.835H97.4526C102.749 226.835 107.042 222.536 107.042 217.233V9.60206C107.042 4.29899 102.749 0 97.4526 0Z" fill="url(#paint2_linear_1_586)"/>
<path d="M97.4526 90.3723H82.5831C77.2869 90.3723 72.9935 94.6713 72.9935 99.9744V217.21C72.9935 222.513 77.2869 226.812 82.5831 226.812H97.4526C102.749 226.812 107.042 222.513 107.042 217.21V99.9744C107.042 94.6713 102.749 90.3723 97.4526 90.3723Z" fill="url(#paint3_linear_1_586)"/>
<path opacity="0.16" d="M170.423 0H155.554C150.258 0 145.964 4.29899 145.964 9.60206V217.233C145.964 222.536 150.258 226.835 155.554 226.835H170.423C175.72 226.835 180.013 222.536 180.013 217.233V9.60206C180.013 4.29899 175.72 0 170.423 0Z" fill="url(#paint4_linear_1_586)"/>
<path d="M170.423 69.2252H155.554C150.258 69.2252 145.964 73.5242 145.964 78.8273V217.233C145.964 222.536 150.258 226.835 155.554 226.835H170.423C175.72 226.835 180.013 222.536 180.013 217.233V78.8273C180.013 73.5242 175.72 69.2252 170.423 69.2252Z" fill="url(#paint5_linear_1_586)"/>
<path opacity="0.16" d="M243.417 0H228.547C223.251 0 218.958 4.29899 218.958 9.60206V217.233C218.958 222.536 223.251 226.835 228.547 226.835H243.417C248.713 226.835 253.006 222.536 253.006 217.233V9.60206C253.006 4.29899 248.713 0 243.417 0Z" fill="url(#paint6_linear_1_586)"/>
<path d="M243.417 151.577H228.547C223.251 151.577 218.958 155.876 218.958 161.179V217.233C218.958 222.536 223.251 226.835 228.547 226.835H243.417C248.713 226.835 253.006 222.536 253.006 217.233V161.179C253.006 155.876 248.713 151.577 243.417 151.577Z" fill="url(#paint7_linear_1_586)"/>
<path opacity="0.16" d="M316.41 0H301.541C296.245 0 291.951 4.29899 291.951 9.60206V217.233C291.951 222.536 296.245 226.835 301.541 226.835H316.41C321.707 226.835 326 222.536 326 217.233V9.60206C326 4.29899 321.707 0 316.41 0Z" fill="url(#paint8_linear_1_586)"/>
<path d="M316.41 23.5872H301.541C296.245 23.5872 291.951 27.8861 291.951 33.1892V217.233C291.951 222.536 296.245 226.835 301.541 226.835H316.41C321.707 226.835 326 222.536 326 217.233V33.1892C326 27.8861 321.707 23.5872 316.41 23.5872Z" fill="url(#paint9_linear_1_586)"/>
<path d="M19.535 254.009C20.095 254.009 20.5967 254.079 21.04 254.219C21.4833 254.354 21.859 254.557 22.167 254.828C22.4703 255.094 22.7037 255.423 22.867 255.815C23.0303 256.207 23.112 256.657 23.112 257.166C23.112 257.619 23.0467 258.09 22.916 258.58C22.7807 258.571 22.6477 258.559 22.517 258.545C22.3817 258.531 22.2487 258.517 22.118 258.503C22.0387 258.494 21.9757 258.466 21.929 258.419C21.8777 258.368 21.852 258.293 21.852 258.195C21.852 258.111 21.873 257.999 21.915 257.859C21.957 257.719 21.978 257.532 21.978 257.299C21.978 256.991 21.9313 256.718 21.838 256.48C21.7447 256.237 21.6 256.034 21.404 255.871C21.208 255.703 20.9583 255.577 20.655 255.493C20.347 255.404 19.983 255.36 19.563 255.36L12.969 255.36L12.969 254.009L19.535 254.009ZM23 246.449L23 247.002C23 247.124 22.9813 247.222 22.944 247.296C22.9067 247.371 22.8273 247.42 22.706 247.443L22.048 247.583C22.216 247.77 22.3677 247.952 22.503 248.129C22.6337 248.307 22.7457 248.493 22.839 248.689C22.9277 248.885 22.9953 249.095 23.042 249.319C23.0887 249.539 23.112 249.784 23.112 250.054C23.112 250.33 23.0747 250.589 23 250.831C22.9207 251.069 22.804 251.277 22.65 251.454C22.496 251.632 22.3023 251.774 22.069 251.881C21.831 251.984 21.551 252.035 21.229 252.035C20.949 252.035 20.6807 251.958 20.424 251.804C20.1627 251.65 19.9317 251.403 19.731 251.062C19.5303 250.717 19.367 250.267 19.241 249.711C19.1103 249.156 19.0357 248.477 19.017 247.674L18.464 247.674C17.9133 247.674 17.498 247.793 17.218 248.031C16.9333 248.265 16.791 248.612 16.791 249.074C16.791 249.378 16.8307 249.634 16.91 249.844C16.9847 250.05 17.071 250.229 17.169 250.383C17.2623 250.533 17.3487 250.663 17.428 250.775C17.5027 250.883 17.54 250.99 17.54 251.097C17.54 251.181 17.519 251.256 17.477 251.321C17.4303 251.382 17.3743 251.431 17.309 251.468L16.91 251.692C16.532 251.3 16.2497 250.878 16.063 250.425C15.8763 249.973 15.783 249.471 15.783 248.92C15.783 248.524 15.8483 248.171 15.979 247.863C16.1097 247.555 16.2917 247.296 16.525 247.086C16.7583 246.876 17.0407 246.718 17.372 246.61C17.7033 246.503 18.0673 246.449 18.464 246.449L23 246.449ZM22.237 249.683C22.237 249.464 22.216 249.263 22.174 249.081C22.1273 248.899 22.0643 248.729 21.985 248.57C21.901 248.407 21.8007 248.253 21.684 248.108C21.5673 247.959 21.4343 247.814 21.285 247.674L19.808 247.674C19.8267 248.248 19.8733 248.736 19.948 249.137C20.018 249.539 20.1113 249.865 20.228 250.117C20.3447 250.369 20.4823 250.554 20.641 250.67C20.7997 250.782 20.977 250.838 21.173 250.838C21.3597 250.838 21.5207 250.808 21.656 250.747C21.7913 250.687 21.9033 250.605 21.992 250.502C22.076 250.4 22.139 250.278 22.181 250.138C22.2183 249.998 22.237 249.847 22.237 249.683ZM23 244.462L15.909 244.462L15.909 243.72C15.909 243.542 15.9953 243.43 16.168 243.384L16.938 243.286C16.5973 242.978 16.322 242.635 16.112 242.257C15.902 241.874 15.797 241.433 15.797 240.934C15.797 240.546 15.8623 240.206 15.993 239.912C16.119 239.613 16.301 239.366 16.539 239.17C16.7723 238.969 17.0547 238.817 17.386 238.715C17.7173 238.612 18.0837 238.561 18.485 238.561L23 238.561L23 239.807L18.485 239.807C17.9483 239.807 17.533 239.93 17.239 240.178C16.9403 240.42 16.791 240.794 16.791 241.298C16.791 241.666 16.8797 242.012 17.057 242.334C17.2343 242.651 17.4747 242.945 17.778 243.216L23 243.216L23 244.462Z" fill="#868686"/>
<path d="M85.969 252.601L87.075 252.601L87.075 257.417L90.582 257.417L90.582 253.301L91.688 253.301L91.688 257.417L96 257.417L96 258.782L85.969 258.782L85.969 252.601ZM88.797 248.633C88.797 248.209 88.8693 247.817 89.014 247.457C89.154 247.098 89.3593 246.788 89.63 246.526C89.896 246.265 90.2273 246.062 90.624 245.917C91.016 245.768 91.464 245.693 91.968 245.693C92.164 245.693 92.2947 245.714 92.36 245.756C92.4253 245.798 92.458 245.878 92.458 245.994L92.458 250.712C92.906 250.703 93.2957 250.642 93.627 250.53C93.9583 250.418 94.236 250.264 94.46 250.068C94.6793 249.872 94.845 249.639 94.957 249.368C95.0643 249.098 95.118 248.794 95.118 248.458C95.118 248.146 95.083 247.877 95.013 247.653C94.9383 247.425 94.859 247.229 94.775 247.065C94.691 246.902 94.614 246.767 94.544 246.659C94.4693 246.547 94.432 246.452 94.432 246.372C94.432 246.27 94.4717 246.19 94.551 246.134L95.006 245.784C95.1927 245.938 95.356 246.123 95.496 246.337C95.6313 246.552 95.7433 246.783 95.832 247.03C95.9207 247.273 95.986 247.525 96.028 247.786C96.0747 248.048 96.098 248.307 96.098 248.563C96.098 249.053 96.0163 249.506 95.853 249.921C95.685 250.332 95.4423 250.689 95.125 250.992C94.803 251.291 94.4063 251.524 93.935 251.692C93.4637 251.86 92.9223 251.944 92.311 251.944C91.8163 251.944 91.3543 251.87 90.925 251.72C90.4957 251.566 90.1247 251.347 89.812 251.062C89.4947 250.778 89.2473 250.43 89.07 250.019C88.888 249.609 88.797 249.147 88.797 248.633ZM89.714 248.605C89.714 249.207 89.889 249.681 90.239 250.026C90.5843 250.372 91.065 250.586 91.681 250.67L91.681 246.813C91.3917 246.813 91.128 246.853 90.89 246.932C90.6473 247.012 90.4397 247.128 90.267 247.282C90.0897 247.436 89.9543 247.625 89.861 247.849C89.763 248.069 89.714 248.321 89.714 248.605ZM96 243.957L85.689 243.957L85.689 242.704L89.931 242.704C89.5903 242.41 89.3173 242.074 89.112 241.696C88.902 241.313 88.797 240.877 88.797 240.387C88.797 239.976 88.874 239.605 89.028 239.274C89.182 238.942 89.413 238.66 89.721 238.427C90.0243 238.193 90.4023 238.014 90.855 237.888C91.303 237.762 91.821 237.699 92.409 237.699C92.9317 237.699 93.4193 237.769 93.872 237.909C94.32 238.049 94.7097 238.252 95.041 238.518C95.3677 238.779 95.6267 239.101 95.818 239.484C96.0047 239.862 96.098 240.289 96.098 240.765C96.098 241.222 96.0093 241.612 95.832 241.934C95.6547 242.251 95.4073 242.529 95.09 242.767L95.734 242.83C95.9113 242.867 96 242.974 96 243.152L96 243.957ZM89.791 240.793C89.791 241.199 89.8843 241.556 90.071 241.864C90.2577 242.167 90.5213 242.447 90.862 242.704L94.292 242.704C94.6 242.48 94.817 242.232 94.943 241.962C95.069 241.686 95.132 241.381 95.132 241.045C95.132 240.382 94.8963 239.873 94.425 239.519C93.9537 239.164 93.2817 238.987 92.409 238.987C91.947 238.987 91.5503 239.029 91.219 239.113C90.8877 239.192 90.617 239.309 90.407 239.463C90.1923 239.617 90.036 239.806 89.938 240.03C89.84 240.254 89.791 240.508 89.791 240.793Z" fill="#868686"/>
<path d="M165.374 256.847C165.486 256.782 165.605 256.726 165.731 256.679C165.852 256.628 165.976 256.579 166.102 256.532C165.971 256.485 165.848 256.436 165.731 256.385C165.61 256.334 165.488 256.275 165.367 256.21L159.2 252.815C159.093 252.754 159.027 252.691 159.004 252.626C158.981 252.561 158.969 252.467 158.969 252.346L158.969 251.345L169 251.345L169 252.535L161.629 252.535C161.531 252.535 161.426 252.533 161.314 252.528C161.202 252.523 161.088 252.516 160.971 252.507L167.243 255.944C167.453 256.061 167.558 256.224 167.558 256.434L167.558 256.63C167.558 256.84 167.453 257.003 167.243 257.12L160.95 260.634C161.071 260.62 161.19 260.611 161.307 260.606C161.424 260.597 161.531 260.592 161.629 260.592L169 260.592L169 261.782L158.969 261.782L158.969 260.781C158.969 260.66 158.981 260.566 159.004 260.501C159.027 260.436 159.093 260.373 159.2 260.312L165.374 256.847ZM169 243.791L169 244.344C169 244.465 168.981 244.563 168.944 244.638C168.907 244.713 168.827 244.762 168.706 244.785L168.048 244.925C168.216 245.112 168.368 245.294 168.503 245.471C168.634 245.648 168.746 245.835 168.839 246.031C168.928 246.227 168.995 246.437 169.042 246.661C169.089 246.88 169.112 247.125 169.112 247.396C169.112 247.671 169.075 247.93 169 248.173C168.921 248.411 168.804 248.619 168.65 248.796C168.496 248.973 168.302 249.116 168.069 249.223C167.831 249.326 167.551 249.377 167.229 249.377C166.949 249.377 166.681 249.3 166.424 249.146C166.163 248.992 165.932 248.745 165.731 248.404C165.53 248.059 165.367 247.608 165.241 247.053C165.11 246.498 165.036 245.819 165.017 245.016L164.464 245.016C163.913 245.016 163.498 245.135 163.218 245.373C162.933 245.606 162.791 245.954 162.791 246.416C162.791 246.719 162.831 246.976 162.91 247.186C162.985 247.391 163.071 247.571 163.169 247.725C163.262 247.874 163.349 248.005 163.428 248.117C163.503 248.224 163.54 248.332 163.54 248.439C163.54 248.523 163.519 248.598 163.477 248.663C163.43 248.724 163.374 248.773 163.309 248.81L162.91 249.034C162.532 248.642 162.25 248.22 162.063 247.767C161.876 247.314 161.783 246.813 161.783 246.262C161.783 245.865 161.848 245.513 161.979 245.205C162.11 244.897 162.292 244.638 162.525 244.428C162.758 244.218 163.041 244.059 163.372 243.952C163.703 243.845 164.067 243.791 164.464 243.791L169 243.791ZM168.237 247.025C168.237 246.806 168.216 246.605 168.174 246.423C168.127 246.241 168.064 246.071 167.985 245.912C167.901 245.749 167.801 245.595 167.684 245.45C167.567 245.301 167.434 245.156 167.285 245.016L165.808 245.016C165.827 245.59 165.873 246.078 165.948 246.479C166.018 246.88 166.111 247.207 166.228 247.459C166.345 247.711 166.482 247.895 166.641 248.012C166.8 248.124 166.977 248.18 167.173 248.18C167.36 248.18 167.521 248.15 167.656 248.089C167.791 248.028 167.903 247.947 167.992 247.844C168.076 247.741 168.139 247.62 168.181 247.48C168.218 247.34 168.237 247.188 168.237 247.025ZM169 241.803L161.909 241.803L161.909 241.089C161.909 240.954 161.935 240.861 161.986 240.809C162.037 240.758 162.126 240.723 162.252 240.704L163.358 240.62C162.863 240.378 162.478 240.079 162.203 239.724C161.923 239.365 161.783 238.945 161.783 238.464C161.783 238.268 161.806 238.091 161.853 237.932C161.895 237.774 161.956 237.627 162.035 237.491L162.966 237.652C163.083 237.685 163.141 237.757 163.141 237.869C163.141 237.935 163.12 238.035 163.078 238.17C163.031 238.306 163.008 238.495 163.008 238.737C163.008 239.171 163.134 239.535 163.386 239.829C163.638 240.119 164.004 240.361 164.485 240.557L169 240.557L169 241.803Z" fill="#868686"/>
<path d="M242 251.529L242 252.579C242 252.7 241.97 252.798 241.909 252.873C241.848 252.948 241.771 253.004 241.678 253.041L239.256 253.979L239.256 258.48L241.678 259.418C241.762 259.451 241.837 259.507 241.902 259.586C241.967 259.665 242 259.763 242 259.88L242 260.93L231.969 256.919L231.969 255.54L242 251.529ZM238.276 258.102L238.276 254.357L234.195 255.932C233.943 256.035 233.628 256.135 233.25 256.233C233.441 256.284 233.619 256.336 233.782 256.387C233.941 256.434 234.081 256.48 234.202 256.527L238.276 258.102ZM244.401 250.362L234.909 250.362L234.909 249.62C234.909 249.443 234.995 249.331 235.168 249.284L236.008 249.179C235.639 248.876 235.343 248.531 235.119 248.143C234.895 247.751 234.783 247.301 234.783 246.792C234.783 246.386 234.862 246.018 235.021 245.686C235.175 245.355 235.406 245.073 235.714 244.839C236.017 244.606 236.395 244.426 236.848 244.3C237.301 244.174 237.821 244.111 238.409 244.111C238.932 244.111 239.419 244.181 239.872 244.321C240.32 244.461 240.71 244.662 241.041 244.923C241.368 245.185 241.627 245.507 241.818 245.889C242.005 246.267 242.098 246.694 242.098 247.17C242.098 247.609 242.026 247.985 241.881 248.297C241.736 248.605 241.531 248.878 241.265 249.116L244.401 249.116L244.401 250.362ZM235.791 247.205C235.791 247.611 235.884 247.968 236.071 248.276C236.258 248.58 236.521 248.86 236.862 249.116L240.292 249.116C240.6 248.888 240.817 248.638 240.943 248.367C241.069 248.092 241.132 247.786 241.132 247.45C241.132 246.792 240.896 246.286 240.425 245.931C239.954 245.577 239.282 245.399 238.409 245.399C237.947 245.399 237.55 245.441 237.219 245.525C236.888 245.605 236.617 245.721 236.407 245.875C236.192 246.029 236.036 246.218 235.938 246.442C235.84 246.666 235.791 246.921 235.791 247.205ZM242 242.538L234.909 242.538L234.909 241.824C234.909 241.688 234.935 241.595 234.986 241.544C235.037 241.492 235.126 241.457 235.252 241.439L236.358 241.355C235.863 241.112 235.478 240.813 235.203 240.459C234.923 240.099 234.783 239.679 234.783 239.199C234.783 239.003 234.806 238.825 234.853 238.667C234.895 238.508 234.956 238.361 235.035 238.226L235.966 238.387C236.083 238.419 236.141 238.492 236.141 238.604C236.141 238.669 236.12 238.769 236.078 238.905C236.031 239.04 236.008 239.229 236.008 239.472C236.008 239.906 236.134 240.27 236.386 240.564C236.638 240.853 237.004 241.096 237.485 241.292L242 241.292L242 242.538Z" fill="#868686"/>
<path d="M311.374 258.847C311.486 258.782 311.605 258.726 311.731 258.679C311.852 258.628 311.976 258.579 312.102 258.532C311.971 258.485 311.848 258.436 311.731 258.385C311.61 258.334 311.488 258.275 311.367 258.21L305.2 254.815C305.093 254.754 305.027 254.691 305.004 254.626C304.981 254.561 304.969 254.467 304.969 254.346L304.969 253.345L315 253.345L315 254.535L307.629 254.535C307.531 254.535 307.426 254.533 307.314 254.528C307.202 254.523 307.088 254.516 306.971 254.507L313.243 257.944C313.453 258.061 313.558 258.224 313.558 258.434L313.558 258.63C313.558 258.84 313.453 259.003 313.243 259.12L306.95 262.634C307.071 262.62 307.19 262.611 307.307 262.606C307.424 262.597 307.531 262.592 307.629 262.592L315 262.592L315 263.782L304.969 263.782L304.969 262.781C304.969 262.66 304.981 262.566 305.004 262.501C305.027 262.436 305.093 262.373 305.2 262.312L311.374 258.847ZM315 245.791L315 246.344C315 246.465 314.981 246.563 314.944 246.638C314.907 246.713 314.827 246.762 314.706 246.785L314.048 246.925C314.216 247.112 314.368 247.294 314.503 247.471C314.634 247.648 314.746 247.835 314.839 248.031C314.928 248.227 314.995 248.437 315.042 248.661C315.089 248.88 315.112 249.125 315.112 249.396C315.112 249.671 315.075 249.93 315 250.173C314.921 250.411 314.804 250.619 314.65 250.796C314.496 250.973 314.302 251.116 314.069 251.223C313.831 251.326 313.551 251.377 313.229 251.377C312.949 251.377 312.681 251.3 312.424 251.146C312.163 250.992 311.932 250.745 311.731 250.404C311.53 250.059 311.367 249.608 311.241 249.053C311.11 248.498 311.036 247.819 311.017 247.016L310.464 247.016C309.913 247.016 309.498 247.135 309.218 247.373C308.933 247.606 308.791 247.954 308.791 248.416C308.791 248.719 308.831 248.976 308.91 249.186C308.985 249.391 309.071 249.571 309.169 249.725C309.262 249.874 309.349 250.005 309.428 250.117C309.503 250.224 309.54 250.332 309.54 250.439C309.54 250.523 309.519 250.598 309.477 250.663C309.43 250.724 309.374 250.773 309.309 250.81L308.91 251.034C308.532 250.642 308.25 250.22 308.063 249.767C307.876 249.314 307.783 248.813 307.783 248.262C307.783 247.865 307.848 247.513 307.979 247.205C308.11 246.897 308.292 246.638 308.525 246.428C308.758 246.218 309.041 246.059 309.372 245.952C309.703 245.845 310.067 245.791 310.464 245.791L315 245.791ZM314.237 249.025C314.237 248.806 314.216 248.605 314.174 248.423C314.127 248.241 314.064 248.071 313.985 247.912C313.901 247.749 313.801 247.595 313.684 247.45C313.567 247.301 313.434 247.156 313.285 247.016L311.808 247.016C311.827 247.59 311.873 248.078 311.948 248.479C312.018 248.88 312.111 249.207 312.228 249.459C312.345 249.711 312.482 249.895 312.641 250.012C312.8 250.124 312.977 250.18 313.173 250.18C313.36 250.18 313.521 250.15 313.656 250.089C313.791 250.028 313.903 249.947 313.992 249.844C314.076 249.741 314.139 249.62 314.181 249.48C314.218 249.34 314.237 249.188 314.237 249.025ZM317.093 241.943C317.186 241.985 317.261 242.039 317.317 242.104C317.373 242.165 317.401 242.26 317.401 242.391L317.401 243.315L314.587 242.02L307.909 244.946L307.909 243.868C307.909 243.761 307.937 243.677 307.993 243.616C308.044 243.555 308.103 243.511 308.168 243.483L312.634 241.586C312.737 241.544 312.839 241.509 312.942 241.481C313.045 241.448 313.15 241.42 313.257 241.397C313.15 241.364 313.045 241.332 312.942 241.299C312.839 241.266 312.734 241.229 312.627 241.187L308.168 239.346C308.093 239.318 308.033 239.271 307.986 239.206C307.935 239.136 307.909 239.061 307.909 238.982L307.909 237.988L317.093 241.943Z" fill="#868686"/>
<defs>
<linearGradient id="paint0_linear_1_586" x1="16.2007" y1="-24.039" x2="18.5987" y2="378.095" gradientUnits="userSpaceOnUse">
<stop stop-color="#A9C0FF"/>
<stop offset="1" stop-color="#D6E5FF"/>
</linearGradient>
<linearGradient id="paint1_linear_1_586" x1="15.0951" y1="272.902" x2="23.4654" y2="-153.203" gradientUnits="userSpaceOnUse">
<stop stop-color="#446AA8"/>
<stop offset="1" stop-color="#A986FF"/>
</linearGradient>
<linearGradient id="paint2_linear_1_586" x1="89.1943" y1="-24.039" x2="91.5696" y2="378.095" gradientUnits="userSpaceOnUse">
<stop stop-color="#A9C0FF"/>
<stop offset="1" stop-color="#D6E5FF"/>
</linearGradient>
<linearGradient id="paint3_linear_1_586" x1="80.0785" y1="177.536" x2="217.908" y2="-84.6441" gradientUnits="userSpaceOnUse">
<stop stop-color="#FA7457"/>
<stop offset="1" stop-color="#FF3F7A"/>
</linearGradient>
<linearGradient id="paint4_linear_1_586" x1="162.188" y1="-24.039" x2="164.563" y2="378.095" gradientUnits="userSpaceOnUse">
<stop stop-color="#A9C0FF"/>
<stop offset="1" stop-color="#D6E5FF"/>
</linearGradient>
<linearGradient id="paint5_linear_1_586" x1="161.06" y1="296.716" x2="180.292" y2="-349.018" gradientUnits="userSpaceOnUse">
<stop stop-color="#446AA8"/>
<stop offset="1" stop-color="#A986FF"/>
</linearGradient>
<linearGradient id="paint6_linear_1_586" x1="235.181" y1="-24.039" x2="237.557" y2="378.095" gradientUnits="userSpaceOnUse">
<stop stop-color="#A9C0FF"/>
<stop offset="1" stop-color="#D6E5FF"/>
</linearGradient>
<linearGradient id="paint7_linear_1_586" x1="226.043" y1="199.655" x2="275.414" y2="29.3911" gradientUnits="userSpaceOnUse">
<stop stop-color="#FA7457"/>
<stop offset="1" stop-color="#FF3F7A"/>
</linearGradient>
<linearGradient id="paint8_linear_1_586" x1="308.152" y1="-24.039" x2="310.528" y2="378.095" gradientUnits="userSpaceOnUse">
<stop stop-color="#A9C0FF"/>
<stop offset="1" stop-color="#D6E5FF"/>
</linearGradient>
<linearGradient id="paint9_linear_1_586" x1="307.047" y1="316.951" x2="339.011" y2="-515.275" gradientUnits="userSpaceOnUse">
<stop stop-color="#446AA8"/>
<stop offset="1" stop-color="#A986FF"/>
</linearGradient>
</defs>
</svg>
