<svg width="1440" height="1024" viewBox="0 0 1440 1024" fill="none" xmlns="http://www.w3.org/2000/svg">
<rect width="1440" height="1024" fill="#F2F6FF"/>
<path d="M1078.8 18.6C1080.9 18.6 1082.6 16.9 1082.6 14.8C1082.6 12.7 1080.9 11 1078.8 11C1076.7 11 1075 12.7 1075 14.8C1075 16.9 1076.7 18.6 1078.8 18.6Z" fill="#90A5D1"/>
<path d="M1106.4 18.2998C1108.4 18.2998 1109.9 16.6998 1109.9 14.7998C1109.9 12.8998 1108.3 11.2998 1106.4 11.2998C1104.4 11.2998 1102.9 12.8998 1102.9 14.7998C1102.9 16.6998 1104.4 18.2998 1106.4 18.2998Z" fill="#90A5D1"/>
<path d="M1133.9 18.1C1135.7 18.1 1137.2 16.6 1137.2 14.8C1137.2 13 1135.7 11.5 1133.9 11.5C1132.1 11.5 1130.6 13 1130.6 14.8C1130.6 16.6 1132.1 18.1 1133.9 18.1Z" fill="#90A5D1"/>
<path d="M1161.4 17.7998C1163.1 17.7998 1164.4 16.3998 1164.4 14.7998C1164.4 13.1998 1163 11.7998 1161.4 11.7998C1159.8 11.7998 1158.4 13.1998 1158.4 14.7998C1158.4 16.3998 1159.8 17.7998 1161.4 17.7998Z" fill="#90A5D1"/>
<path d="M1189 17.6C1190.5 17.6 1191.8 16.4 1191.8 14.8C1191.8 13.2 1190.5 12 1189 12C1187.5 12 1186.2 13.2 1186.2 14.8C1186.2 16.4 1187.5 17.6 1189 17.6Z" fill="#90A5D1"/>
<path d="M1216.5 17.2998C1217.9 17.2998 1219 16.1998 1219 14.7998C1219 13.3998 1217.9 12.2998 1216.5 12.2998C1215.1 12.2998 1214 13.3998 1214 14.7998C1214 16.1998 1215.1 17.2998 1216.5 17.2998Z" fill="#90A5D1"/>
<path d="M1244.1 17.0004C1245.3 17.0004 1246.4 16.0004 1246.4 14.7004C1246.4 13.5004 1245.4 12.4004 1244.1 12.4004C1242.9 12.4004 1241.8 13.4004 1241.8 14.7004C1241.8 16.0004 1242.8 17.0004 1244.1 17.0004Z" fill="#90A5D1"/>
<path d="M1271.6 16.7998C1272.7 16.7998 1273.6 15.8998 1273.6 14.7998C1273.6 13.6998 1272.7 12.7998 1271.6 12.7998C1270.5 12.7998 1269.6 13.6998 1269.6 14.7998C1269.6 15.8998 1270.5 16.7998 1271.6 16.7998Z" fill="#90A5D1"/>
<path d="M1299.2 16.4996C1300.2 16.4996 1300.9 15.6996 1300.9 14.7996C1300.9 13.7996 1300.1 13.0996 1299.2 13.0996C1298.2 13.0996 1297.5 13.8996 1297.5 14.7996C1297.4 15.6996 1298.2 16.4996 1299.2 16.4996Z" fill="#90A5D1"/>
<path d="M1326.7 16.2002C1327.5 16.2002 1328.2 15.5002 1328.2 14.7002C1328.2 13.9002 1327.5 13.2002 1326.7 13.2002C1325.9 13.2002 1325.2 13.9002 1325.2 14.7002C1325.2 15.6002 1325.9 16.2002 1326.7 16.2002Z" fill="#90A5D1"/>
<path d="M1354.3 15.9996C1355 15.9996 1355.5 15.4996 1355.5 14.7996C1355.5 14.0996 1355 13.5996 1354.3 13.5996C1353.6 13.5996 1353.1 14.0996 1353.1 14.7996C1353.1 15.4996 1353.6 15.9996 1354.3 15.9996Z" fill="#90A5D1"/>
<path d="M1381.8 15.7002C1382.3 15.7002 1382.8 15.3002 1382.8 14.7002C1382.8 14.1002 1382.4 13.7002 1381.8 13.7002C1381.2 13.7002 1380.8 14.1002 1380.8 14.7002C1380.8 15.3002 1381.3 15.7002 1381.8 15.7002Z" fill="#90A5D1"/>
<path d="M1409.3 15.4C1409.7 15.4 1410 15.1 1410 14.7C1410 14.3 1409.7 14 1409.3 14C1408.9 14 1408.6 14.3 1408.6 14.7C1408.6 15.1 1409 15.4 1409.3 15.4Z" fill="#90A5D1"/>
<path d="M1436.9 15.2002C1437.2 15.2002 1437.4 15.0002 1437.4 14.7002C1437.4 14.4002 1437.2 14.2002 1436.9 14.2002C1436.6 14.2002 1436.4 14.4002 1436.4 14.7002C1436.4 15.0002 1436.6 15.2002 1436.9 15.2002Z" fill="#90A5D1"/>
<path d="M1078.8 45.6996C1080.9 45.6996 1082.6 43.9996 1082.6 41.8996C1082.6 39.7996 1080.9 38.0996 1078.8 38.0996C1076.7 38.0996 1075 39.7996 1075 41.8996C1075 43.9996 1076.7 45.6996 1078.8 45.6996Z" fill="#90A5D1"/>
<path d="M1106.4 45.4004C1108.4 45.4004 1109.9 43.8004 1109.9 41.9004C1109.9 39.9004 1108.3 38.4004 1106.4 38.4004C1104.4 38.4004 1102.9 40.0004 1102.9 41.9004C1102.8 43.8004 1104.4 45.4004 1106.4 45.4004Z" fill="#90A5D1"/>
<path d="M1133.9 45.1C1135.7 45.1 1137.2 43.6 1137.2 41.8C1137.2 40 1135.7 38.5 1133.9 38.5C1132.1 38.5 1130.6 40 1130.6 41.8C1130.6 43.7 1132.1 45.1 1133.9 45.1Z" fill="#90A5D1"/>
<path d="M1161.4 44.9004C1163.1 44.9004 1164.4 43.5004 1164.4 41.9004C1164.4 40.2004 1163 38.9004 1161.4 38.9004C1159.8 38.9004 1158.4 40.3004 1158.4 41.9004C1158.4 43.5004 1159.8 44.9004 1161.4 44.9004Z" fill="#90A5D1"/>
<path d="M1189 44.6C1190.5 44.6 1191.8 43.4 1191.8 41.8C1191.8 40.2 1190.6 39 1189 39C1187.5 39 1186.2 40.2 1186.2 41.8C1186.2 43.4 1187.5 44.6 1189 44.6Z" fill="#90A5D1"/>
<path d="M1216.5 44.4004C1217.9 44.4004 1219 43.3004 1219 41.9004C1219 40.5004 1217.9 39.4004 1216.5 39.4004C1215.1 39.4004 1214 40.5004 1214 41.9004C1214 43.3004 1215.1 44.4004 1216.5 44.4004Z" fill="#90A5D1"/>
<path d="M1244.1 44.1C1245.3 44.1 1246.4 43.1 1246.4 41.8C1246.4 40.5 1245.4 39.5 1244.1 39.5C1242.9 39.5 1241.8 40.5 1241.8 41.8C1241.8 43.1 1242.8 44.1 1244.1 44.1Z" fill="#90A5D1"/>
<path d="M1271.6 43.7998C1272.7 43.7998 1273.6 42.8998 1273.6 41.7998C1273.6 40.6998 1272.7 39.7998 1271.6 39.7998C1270.5 39.7998 1269.6 40.6998 1269.6 41.7998C1269.6 42.8998 1270.5 43.7998 1271.6 43.7998Z" fill="#90A5D1"/>
<path d="M1299.2 43.6002C1300.2 43.6002 1300.9 42.8002 1300.9 41.9002C1300.9 40.9002 1300.1 40.2002 1299.2 40.2002C1298.2 40.2002 1297.5 41.0002 1297.5 41.9002C1297.4 42.8002 1298.2 43.6002 1299.2 43.6002Z" fill="#90A5D1"/>
<path d="M1326.7 43.2998C1327.5 43.2998 1328.2 42.5998 1328.2 41.7998C1328.2 40.9998 1327.5 40.2998 1326.7 40.2998C1325.9 40.2998 1325.2 40.9998 1325.2 41.7998C1325.2 42.5998 1325.9 43.2998 1326.7 43.2998Z" fill="#90A5D1"/>
<path d="M1354.3 42.9996C1355 42.9996 1355.5 42.4996 1355.5 41.7996C1355.5 41.0996 1355 40.5996 1354.3 40.5996C1353.6 40.5996 1353.1 41.0996 1353.1 41.7996C1353 42.4996 1353.6 42.9996 1354.3 42.9996Z" fill="#90A5D1"/>
<path d="M1381.8 42.7998C1382.3 42.7998 1382.8 42.3998 1382.8 41.7998C1382.8 41.2998 1382.4 40.7998 1381.8 40.7998C1381.2 40.7998 1380.8 41.1998 1380.8 41.7998C1380.8 42.2998 1381.3 42.7998 1381.8 42.7998Z" fill="#90A5D1"/>
<path d="M1409.3 42.4996C1409.7 42.4996 1410 42.1996 1410 41.7996C1410 41.3996 1409.7 41.0996 1409.3 41.0996C1408.9 41.0996 1408.6 41.3996 1408.6 41.7996C1408.6 42.1996 1409 42.4996 1409.3 42.4996Z" fill="#90A5D1"/>
<path d="M1436.9 42.2002C1437.2 42.2002 1437.4 42.0002 1437.4 41.7002C1437.4 41.4002 1437.2 41.2002 1436.9 41.2002C1436.6 41.2002 1436.4 41.4002 1436.4 41.7002C1436.4 42.0002 1436.6 42.2002 1436.9 42.2002Z" fill="#90A5D1"/>
<path d="M1078.8 72.6996C1080.9 72.6996 1082.6 70.9996 1082.6 68.8996C1082.6 66.7996 1080.9 65.0996 1078.8 65.0996C1076.7 65.0996 1075 66.7996 1075 68.8996C1075 70.9996 1076.7 72.6996 1078.8 72.6996Z" fill="#90A5D1"/>
<path d="M1106.4 72.5C1108.4 72.5 1109.9 70.9 1109.9 69C1109.9 67 1108.3 65.5 1106.4 65.5C1104.4 65.5 1102.9 67.1 1102.9 69C1102.8 70.9 1104.4 72.5 1106.4 72.5Z" fill="#90A5D1"/>
<path d="M1133.9 72.1996C1135.7 72.1996 1137.2 70.6996 1137.2 68.8996C1137.2 67.0996 1135.7 65.5996 1133.9 65.5996C1132.1 65.5996 1130.6 67.0996 1130.6 68.8996C1130.6 70.6996 1132.1 72.1996 1133.9 72.1996Z" fill="#90A5D1"/>
<path d="M1161.4 71.9004C1163.1 71.9004 1164.4 70.5004 1164.4 68.9004C1164.4 67.2004 1163 65.9004 1161.4 65.9004C1159.8 65.9004 1158.4 67.3004 1158.4 68.9004C1158.4 70.6004 1159.8 71.9004 1161.4 71.9004Z" fill="#90A5D1"/>
<path d="M1189 71.6996C1190.5 71.6996 1191.8 70.4996 1191.8 68.8996C1191.8 67.3996 1190.6 66.0996 1189 66.0996C1187.5 66.0996 1186.2 67.2996 1186.2 68.8996C1186.2 70.3996 1187.5 71.6996 1189 71.6996Z" fill="#90A5D1"/>
<path d="M1216.5 71.4004C1217.9 71.4004 1219 70.3004 1219 68.9004C1219 67.5004 1217.9 66.4004 1216.5 66.4004C1215.1 66.4004 1214 67.5004 1214 68.9004C1214 70.3004 1215.1 71.4004 1216.5 71.4004Z" fill="#90A5D1"/>
<path d="M1244.1 71.1996C1245.3 71.1996 1246.4 70.1996 1246.4 68.8996C1246.4 67.6996 1245.4 66.5996 1244.1 66.5996C1242.9 66.5996 1241.8 67.5996 1241.8 68.8996C1241.8 70.0996 1242.8 71.1996 1244.1 71.1996Z" fill="#90A5D1"/>
<path d="M1271.6 70.9004C1272.7 70.9004 1273.6 70.0004 1273.6 68.9004C1273.6 67.8004 1272.7 66.9004 1271.6 66.9004C1270.5 66.9004 1269.6 67.8004 1269.6 68.9004C1269.6 70.0004 1270.5 70.9004 1271.6 70.9004Z" fill="#90A5D1"/>
<path d="M1299.2 70.6002C1300.2 70.6002 1300.9 69.8002 1300.9 68.9002C1300.9 67.9002 1300.1 67.2002 1299.2 67.2002C1298.2 67.2002 1297.5 68.0002 1297.5 68.9002C1297.4 69.8002 1298.2 70.6002 1299.2 70.6002Z" fill="#90A5D1"/>
<path d="M1326.7 70.4004C1327.5 70.4004 1328.2 69.7004 1328.2 68.9004C1328.2 68.1004 1327.5 67.4004 1326.7 67.4004C1325.9 67.4004 1325.2 68.1004 1325.2 68.9004C1325.2 69.7004 1325.9 70.4004 1326.7 70.4004Z" fill="#90A5D1"/>
<path d="M1354.3 70.1002C1355 70.1002 1355.5 69.6002 1355.5 68.9002C1355.5 68.2002 1355 67.7002 1354.3 67.7002C1353.6 67.7002 1353.1 68.2002 1353.1 68.9002C1353 69.5002 1353.6 70.1002 1354.3 70.1002Z" fill="#90A5D1"/>
<path d="M1381.8 69.7998C1382.3 69.7998 1382.8 69.3998 1382.8 68.7998C1382.8 68.2998 1382.4 67.7998 1381.8 67.7998C1381.2 67.7998 1380.8 68.1998 1380.8 68.7998C1380.8 69.3998 1381.3 69.7998 1381.8 69.7998Z" fill="#90A5D1"/>
<path d="M1409.3 69.6002C1409.7 69.6002 1410 69.3002 1410 68.9002C1410 68.5002 1409.7 68.2002 1409.3 68.2002C1408.9 68.2002 1408.6 68.5002 1408.6 68.9002C1408.6 69.3002 1409 69.6002 1409.3 69.6002Z" fill="#90A5D1"/>
<path d="M1436.9 69.2998C1437.2 69.2998 1437.4 69.0998 1437.4 68.7998C1437.4 68.4998 1437.2 68.2998 1436.9 68.2998C1436.6 68.2998 1436.4 68.4998 1436.4 68.7998C1436.4 69.0998 1436.6 69.2998 1436.9 69.2998Z" fill="#90A5D1"/>
<path d="M1078.8 99.8002C1080.9 99.8002 1082.6 98.1002 1082.6 96.0002C1082.6 93.9002 1080.9 92.2002 1078.8 92.2002C1076.7 92.2002 1075 93.9002 1075 96.0002C1075 98.1002 1076.7 99.8002 1078.8 99.8002Z" fill="#90A5D1"/>
<path d="M1106.4 99.5C1108.4 99.5 1109.9 97.9 1109.9 96C1109.9 94 1108.3 92.5 1106.4 92.5C1104.4 92.5 1102.9 94.1 1102.9 96C1102.8 97.9 1104.4 99.5 1106.4 99.5Z" fill="#90A5D1"/>
<path d="M1133.9 99.3002C1135.7 99.3002 1137.2 97.8002 1137.2 96.0002C1137.2 94.2002 1135.7 92.7002 1133.9 92.7002C1132.1 92.7002 1130.6 94.2002 1130.6 96.0002C1130.6 97.8002 1132.1 99.3002 1133.9 99.3002Z" fill="#90A5D1"/>
<path d="M1161.4 99C1163.1 99 1164.4 97.6 1164.4 96C1164.4 94.3 1163 93 1161.4 93C1159.8 93 1158.4 94.4 1158.4 96C1158.4 97.6 1159.8 99 1161.4 99Z" fill="#90A5D1"/>
<path d="M1189 98.6996C1190.5 98.6996 1191.8 97.4996 1191.8 95.8996C1191.8 94.3996 1190.6 93.0996 1189 93.0996C1187.5 93.0996 1186.2 94.2996 1186.2 95.8996C1186.2 97.4996 1187.5 98.6996 1189 98.6996Z" fill="#90A5D1"/>
<path d="M1216.5 98.5C1217.9 98.5 1219 97.4 1219 96C1219 94.6 1217.9 93.5 1216.5 93.5C1215.1 93.5 1214 94.6 1214 96C1214 97.4 1215.1 98.5 1216.5 98.5Z" fill="#90A5D1"/>
<path d="M1244.1 98.1996C1245.3 98.1996 1246.4 97.1996 1246.4 95.8996C1246.4 94.6996 1245.4 93.5996 1244.1 93.5996C1242.9 93.5996 1241.8 94.5996 1241.8 95.8996C1241.8 97.1996 1242.8 98.1996 1244.1 98.1996Z" fill="#90A5D1"/>
<path d="M1271.6 98C1272.7 98 1273.6 97.1 1273.6 96C1273.6 94.9 1272.7 94 1271.6 94C1270.5 94 1269.6 94.9 1269.6 96C1269.6 97.1 1270.5 98 1271.6 98Z" fill="#90A5D1"/>
<path d="M1299.2 97.6998C1300.2 97.6998 1300.9 96.8998 1300.9 95.9998C1300.9 94.9998 1300.1 94.2998 1299.2 94.2998C1298.2 94.2998 1297.5 95.0998 1297.5 95.9998C1297.4 96.8998 1298.2 97.6998 1299.2 97.6998Z" fill="#90A5D1"/>
<path d="M1326.7 97.4004C1327.5 97.4004 1328.2 96.7004 1328.2 95.9004C1328.2 95.1004 1327.5 94.4004 1326.7 94.4004C1325.9 94.4004 1325.2 95.1004 1325.2 95.9004C1325.2 96.8004 1325.9 97.4004 1326.7 97.4004Z" fill="#90A5D1"/>
<path d="M1354.3 97.1998C1355 97.1998 1355.5 96.6998 1355.5 95.9998C1355.5 95.2998 1355 94.7998 1354.3 94.7998C1353.6 94.7998 1353.1 95.2998 1353.1 95.9998C1353 96.5998 1353.6 97.1998 1354.3 97.1998Z" fill="#90A5D1"/>
<path d="M1381.8 96.9004C1382.3 96.9004 1382.8 96.5004 1382.8 95.9004C1382.8 95.4004 1382.4 94.9004 1381.8 94.9004C1381.2 94.9004 1380.8 95.3004 1380.8 95.9004C1380.8 96.5004 1381.3 96.9004 1381.8 96.9004Z" fill="#90A5D1"/>
<path d="M1409.3 96.6002C1409.7 96.6002 1410 96.3002 1410 95.9002C1410 95.5002 1409.7 95.2002 1409.3 95.2002C1408.9 95.2002 1408.6 95.5002 1408.6 95.9002C1408.6 96.3002 1409 96.6002 1409.3 96.6002Z" fill="#90A5D1"/>
<path d="M1436.9 96.4004C1437.2 96.4004 1437.4 96.2004 1437.4 95.9004C1437.4 95.6004 1437.2 95.4004 1436.9 95.4004C1436.6 95.4004 1436.4 95.6004 1436.4 95.9004C1436.4 96.2004 1436.6 96.4004 1436.9 96.4004Z" fill="#90A5D1"/>
<path d="M1078.8 126.9C1080.9 126.9 1082.6 125.2 1082.6 123.1C1082.6 121 1080.9 119.3 1078.8 119.3C1076.7 119.3 1075 120.9 1075 123C1075 125.1 1076.7 126.9 1078.8 126.9Z" fill="#90A5D1"/>
<path d="M1106.4 126.6C1108.4 126.6 1109.9 125 1109.9 123.1C1109.9 121.2 1108.3 119.6 1106.4 119.6C1104.4 119.6 1102.9 121.2 1102.9 123.1C1102.9 125 1104.4 126.6 1106.4 126.6Z" fill="#90A5D1"/>
<path d="M1133.9 126.3C1135.7 126.3 1137.2 124.8 1137.2 123C1137.2 121.2 1135.7 119.7 1133.9 119.7C1132.1 119.7 1130.6 121.2 1130.6 123C1130.6 124.9 1132.1 126.3 1133.9 126.3Z" fill="#90A5D1"/>
<path d="M1161.4 126.1C1163.1 126.1 1164.4 124.7 1164.4 123.1C1164.4 121.5 1163 120.1 1161.4 120.1C1159.8 120.1 1158.4 121.5 1158.4 123.1C1158.4 124.7 1159.8 126.1 1161.4 126.1Z" fill="#90A5D1"/>
<path d="M1189 125.8C1190.5 125.8 1191.8 124.6 1191.8 123C1191.8 121.5 1190.6 120.2 1189 120.2C1187.5 120.2 1186.2 121.4 1186.2 123C1186.2 124.6 1187.5 125.8 1189 125.8Z" fill="#90A5D1"/>
<path d="M1216.5 125.5C1217.9 125.5 1219 124.4 1219 123C1219 121.6 1217.9 120.5 1216.5 120.5C1215.1 120.5 1214 121.6 1214 123C1214 124.4 1215.1 125.5 1216.5 125.5Z" fill="#90A5D1"/>
<path d="M1244.1 125.3C1245.3 125.3 1246.4 124.3 1246.4 123C1246.4 121.7 1245.4 120.7 1244.1 120.7C1242.9 120.7 1241.8 121.7 1241.8 123C1241.8 124.3 1242.8 125.3 1244.1 125.3Z" fill="#90A5D1"/>
<path d="M1271.6 125C1272.7 125 1273.6 124.1 1273.6 123C1273.6 121.9 1272.7 121 1271.6 121C1270.5 121 1269.6 121.9 1269.6 123C1269.6 124.1 1270.5 125 1271.6 125Z" fill="#90A5D1"/>
<path d="M1299.2 124.7C1300.2 124.7 1300.9 123.9 1300.9 123C1300.9 122 1300.1 121.3 1299.2 121.3C1298.2 121.3 1297.5 122.1 1297.5 123C1297.4 124 1298.2 124.7 1299.2 124.7Z" fill="#90A5D1"/>
<path d="M1326.7 124.5C1327.5 124.5 1328.2 123.8 1328.2 123C1328.2 122.2 1327.5 121.5 1326.7 121.5C1325.9 121.5 1325.2 122.2 1325.2 123C1325.2 123.8 1325.9 124.5 1326.7 124.5Z" fill="#90A5D1"/>
<path d="M1354.3 124.2C1355 124.2 1355.5 123.7 1355.5 123C1355.5 122.3 1355 121.8 1354.3 121.8C1353.6 121.8 1353.1 122.3 1353.1 123C1353 123.7 1353.6 124.2 1354.3 124.2Z" fill="#90A5D1"/>
<path d="M1381.8 124C1382.3 124 1382.8 123.6 1382.8 123C1382.8 122.5 1382.4 122 1381.8 122C1381.2 122 1380.8 122.4 1380.8 123C1380.8 123.5 1381.3 124 1381.8 124Z" fill="#90A5D1"/>
<path d="M1409.3 123.7C1409.7 123.7 1410 123.4 1410 123C1410 122.6 1409.7 122.3 1409.3 122.3C1408.9 122.3 1408.6 122.6 1408.6 123C1408.6 123.4 1409 123.7 1409.3 123.7Z" fill="#90A5D1"/>
<path d="M1436.9 123.4C1437.2 123.4 1437.4 123.2 1437.4 122.9C1437.4 122.6 1437.2 122.4 1436.9 122.4C1436.6 122.4 1436.4 122.6 1436.4 122.9C1436.4 123.2 1436.6 123.4 1436.9 123.4Z" fill="#90A5D1"/>
<path d="M1078.8 153.9C1080.9 153.9 1082.6 152.2 1082.6 150.1C1082.6 148 1080.9 146.3 1078.8 146.3C1076.7 146.3 1075 148 1075 150.1C1075 152.2 1076.7 153.9 1078.8 153.9Z" fill="#90A5D1"/>
<path d="M1106.4 153.6C1108.4 153.6 1109.9 152 1109.9 150.1C1109.9 148.1 1108.3 146.6 1106.4 146.6C1104.4 146.6 1102.9 148.2 1102.9 150.1C1102.8 152.1 1104.4 153.6 1106.4 153.6Z" fill="#90A5D1"/>
<path d="M1133.9 153.4C1135.7 153.4 1137.2 151.9 1137.2 150.1C1137.2 148.3 1135.7 146.8 1133.9 146.8C1132.1 146.8 1130.6 148.3 1130.6 150.1C1130.6 151.9 1132.1 153.4 1133.9 153.4Z" fill="#90A5D1"/>
<path d="M1161.4 153.1C1163.1 153.1 1164.4 151.7 1164.4 150.1C1164.4 148.4 1163 147.1 1161.4 147.1C1159.8 147.1 1158.4 148.5 1158.4 150.1C1158.4 151.8 1159.8 153.1 1161.4 153.1Z" fill="#90A5D1"/>
<path d="M1189 152.9C1190.5 152.9 1191.8 151.7 1191.8 150.1C1191.8 148.6 1190.6 147.3 1189 147.3C1187.5 147.3 1186.2 148.5 1186.2 150.1C1186.2 151.6 1187.5 152.9 1189 152.9Z" fill="#90A5D1"/>
<path d="M1216.5 152.6C1217.9 152.6 1219 151.5 1219 150.1C1219 148.7 1217.9 147.6 1216.5 147.6C1215.1 147.6 1214 148.7 1214 150.1C1214 151.5 1215.1 152.6 1216.5 152.6Z" fill="#90A5D1"/>
<path d="M1244.1 152.3C1245.3 152.3 1246.4 151.3 1246.4 150C1246.4 148.7 1245.4 147.7 1244.1 147.7C1242.9 147.7 1241.8 148.7 1241.8 150C1241.8 151.3 1242.8 152.3 1244.1 152.3Z" fill="#90A5D1"/>
<path d="M1271.6 152.1C1272.7 152.1 1273.6 151.2 1273.6 150.1C1273.6 149 1272.7 148.1 1271.6 148.1C1270.5 148.1 1269.6 149 1269.6 150.1C1269.6 151.2 1270.5 152.1 1271.6 152.1Z" fill="#90A5D1"/>
<path d="M1299.2 151.8C1300.2 151.8 1300.9 151 1300.9 150.1C1300.9 149.1 1300.1 148.4 1299.2 148.4C1298.2 148.4 1297.5 149.2 1297.5 150.1C1297.4 151 1298.2 151.8 1299.2 151.8Z" fill="#90A5D1"/>
<path d="M1326.7 151.5C1327.5 151.5 1328.2 150.8 1328.2 150C1328.2 149.2 1327.5 148.5 1326.7 148.5C1325.9 148.5 1325.2 149.2 1325.2 150C1325.2 150.9 1325.9 151.5 1326.7 151.5Z" fill="#90A5D1"/>
<path d="M1354.3 151.3C1355 151.3 1355.5 150.8 1355.5 150.1C1355.5 149.4 1355 148.9 1354.3 148.9C1353.6 148.9 1353.1 149.4 1353.1 150.1C1353.1 150.8 1353.6 151.3 1354.3 151.3Z" fill="#90A5D1"/>
<path d="M1381.8 151C1382.3 151 1382.8 150.6 1382.8 150C1382.8 149.5 1382.4 149 1381.8 149C1381.2 149 1380.8 149.4 1380.8 150C1380.8 150.6 1381.3 151 1381.8 151Z" fill="#90A5D1"/>
<path d="M1409.3 150.8C1409.7 150.8 1410 150.5 1410 150.1C1410 149.7 1409.7 149.4 1409.3 149.4C1408.9 149.4 1408.6 149.7 1408.6 150.1C1408.6 150.4 1409 150.8 1409.3 150.8Z" fill="#90A5D1"/>
<path d="M1436.9 150.5C1437.2 150.5 1437.4 150.3 1437.4 150C1437.4 149.7 1437.2 149.5 1436.9 149.5C1436.6 149.5 1436.4 149.7 1436.4 150C1436.4 150.3 1436.6 150.5 1436.9 150.5Z" fill="#90A5D1"/>
<path d="M1078.8 181C1080.9 181 1082.6 179.3 1082.6 177.2C1082.6 175.1 1080.9 173.4 1078.8 173.4C1076.7 173.4 1075 175.1 1075 177.2C1075 179.3 1076.7 181 1078.8 181Z" fill="#90A5D1"/>
<path d="M1106.4 180.7C1108.4 180.7 1109.9 179.1 1109.9 177.2C1109.9 175.2 1108.3 173.7 1106.4 173.7C1104.4 173.7 1102.9 175.3 1102.9 177.2C1102.8 179.1 1104.4 180.7 1106.4 180.7Z" fill="#90A5D1"/>
<path d="M1133.9 180.4C1135.7 180.4 1137.2 178.9 1137.2 177.1C1137.2 175.3 1135.7 173.8 1133.9 173.8C1132.1 173.8 1130.6 175.3 1130.6 177.1C1130.6 178.9 1132.1 180.4 1133.9 180.4Z" fill="#90A5D1"/>
<path d="M1161.4 180.2C1163.1 180.2 1164.4 178.8 1164.4 177.2C1164.4 175.6 1163 174.2 1161.4 174.2C1159.8 174.2 1158.4 175.6 1158.4 177.2C1158.4 178.8 1159.8 180.2 1161.4 180.2Z" fill="#90A5D1"/>
<path d="M1189 179.9C1190.5 179.9 1191.8 178.7 1191.8 177.1C1191.8 175.6 1190.6 174.3 1189 174.3C1187.5 174.3 1186.2 175.5 1186.2 177.1C1186.2 178.7 1187.5 179.9 1189 179.9Z" fill="#90A5D1"/>
<path d="M1216.5 179.7C1217.9 179.7 1219 178.6 1219 177.2C1219 175.8 1217.9 174.7 1216.5 174.7C1215.1 174.7 1214 175.8 1214 177.2C1214 178.5 1215.1 179.7 1216.5 179.7Z" fill="#90A5D1"/>
<path d="M1244.1 179.4C1245.3 179.4 1246.4 178.4 1246.4 177.1C1246.4 175.9 1245.4 174.8 1244.1 174.8C1242.9 174.8 1241.8 175.8 1241.8 177.1C1241.8 178.4 1242.8 179.4 1244.1 179.4Z" fill="#90A5D1"/>
<path d="M1271.6 179.1C1272.7 179.1 1273.6 178.2 1273.6 177.1C1273.6 176 1272.7 175.1 1271.6 175.1C1270.5 175.1 1269.6 176 1269.6 177.1C1269.6 178.2 1270.5 179.1 1271.6 179.1Z" fill="#90A5D1"/>
<path d="M1299.2 178.9C1300.2 178.9 1300.9 178.1 1300.9 177.2C1300.9 176.2 1300.1 175.5 1299.2 175.5C1298.2 175.5 1297.5 176.3 1297.5 177.2C1297.4 178.1 1298.2 178.9 1299.2 178.9Z" fill="#90A5D1"/>
<path d="M1326.7 178.6C1327.5 178.6 1328.2 177.9 1328.2 177.1C1328.2 176.3 1327.5 175.6 1326.7 175.6C1325.9 175.6 1325.2 176.3 1325.2 177.1C1325.2 177.9 1325.9 178.6 1326.7 178.6Z" fill="#90A5D1"/>
<path d="M1354.3 178.3C1355 178.3 1355.5 177.8 1355.5 177.1C1355.5 176.4 1355 175.9 1354.3 175.9C1353.6 175.9 1353.1 176.4 1353.1 177.1C1353 177.8 1353.6 178.3 1354.3 178.3Z" fill="#90A5D1"/>
<path d="M1381.8 178.1C1382.3 178.1 1382.8 177.7 1382.8 177.1C1382.8 176.6 1382.4 176.1 1381.8 176.1C1381.2 176.1 1380.8 176.5 1380.8 177.1C1380.8 177.6 1381.3 178.1 1381.8 178.1Z" fill="#90A5D1"/>
<path d="M1409.3 177.8C1409.7 177.8 1410 177.5 1410 177.1C1410 176.7 1409.7 176.4 1409.3 176.4C1408.9 176.4 1408.6 176.7 1408.6 177.1C1408.6 177.5 1409 177.8 1409.3 177.8Z" fill="#90A5D1"/>
<path d="M1436.9 177.6C1437.2 177.6 1437.4 177.4 1437.4 177.1C1437.4 176.8 1437.2 176.6 1436.9 176.6C1436.6 176.6 1436.4 176.8 1436.4 177.1C1436.4 177.4 1436.6 177.6 1436.9 177.6Z" fill="#90A5D1"/>
<path d="M1078.8 208C1080.9 208 1082.6 206.3 1082.6 204.2C1082.6 202.1 1080.9 200.4 1078.8 200.4C1076.7 200.4 1075 202.1 1075 204.2C1075 206.3 1076.7 208 1078.8 208Z" fill="#90A5D1"/>
<path d="M1106.4 207.8C1108.4 207.8 1109.9 206.2 1109.9 204.3C1109.9 202.3 1108.3 200.8 1106.4 200.8C1104.4 200.8 1102.9 202.4 1102.9 204.3C1102.8 206.2 1104.4 207.8 1106.4 207.8Z" fill="#90A5D1"/>
<path d="M1133.9 207.5C1135.7 207.5 1137.2 206 1137.2 204.2C1137.2 202.4 1135.7 200.9 1133.9 200.9C1132.1 200.9 1130.6 202.4 1130.6 204.2C1130.6 206 1132.1 207.5 1133.9 207.5Z" fill="#90A5D1"/>
<path d="M1161.4 207.2C1163.1 207.2 1164.4 205.8 1164.4 204.2C1164.4 202.5 1163 201.2 1161.4 201.2C1159.8 201.2 1158.4 202.6 1158.4 204.2C1158.4 205.9 1159.8 207.2 1161.4 207.2Z" fill="#90A5D1"/>
<path d="M1189 207C1190.5 207 1191.8 205.8 1191.8 204.2C1191.8 202.7 1190.6 201.4 1189 201.4C1187.5 201.4 1186.2 202.6 1186.2 204.2C1186.2 205.7 1187.5 207 1189 207Z" fill="#90A5D1"/>
<path d="M1216.5 206.7C1217.9 206.7 1219 205.6 1219 204.2C1219 202.8 1217.9 201.7 1216.5 201.7C1215.1 201.7 1214 202.8 1214 204.2C1214 205.6 1215.1 206.7 1216.5 206.7Z" fill="#90A5D1"/>
<path d="M1244.1 206.5C1245.3 206.5 1246.4 205.5 1246.4 204.2C1246.4 202.9 1245.4 201.9 1244.1 201.9C1242.9 201.9 1241.8 202.9 1241.8 204.2C1241.8 205.5 1242.8 206.5 1244.1 206.5Z" fill="#90A5D1"/>
<path d="M1271.6 206.2C1272.7 206.2 1273.6 205.3 1273.6 204.2C1273.6 203.1 1272.7 202.2 1271.6 202.2C1270.5 202.2 1269.6 203.1 1269.6 204.2C1269.6 205.3 1270.5 206.2 1271.6 206.2Z" fill="#90A5D1"/>
<path d="M1299.2 205.9C1300.2 205.9 1300.9 205.1 1300.9 204.2C1300.9 203.2 1300.1 202.5 1299.2 202.5C1298.2 202.5 1297.5 203.3 1297.5 204.2C1297.4 205.1 1298.2 205.9 1299.2 205.9Z" fill="#90A5D1"/>
<path d="M1326.7 205.7C1327.5 205.7 1328.2 205 1328.2 204.2C1328.2 203.4 1327.5 202.7 1326.7 202.7C1325.9 202.7 1325.2 203.4 1325.2 204.2C1325.2 205 1325.9 205.7 1326.7 205.7Z" fill="#90A5D1"/>
<path d="M1354.3 205.4C1355 205.4 1355.5 204.9 1355.5 204.2C1355.5 203.5 1355 203 1354.3 203C1353.6 203 1353.1 203.5 1353.1 204.2C1353.1 204.9 1353.6 205.4 1354.3 205.4Z" fill="#90A5D1"/>
<path d="M1381.8 205.1C1382.3 205.1 1382.8 204.7 1382.8 204.1C1382.8 203.5 1382.4 203.1 1381.8 203.1C1381.2 203.1 1380.8 203.5 1380.8 204.1C1380.8 204.7 1381.3 205.1 1381.8 205.1Z" fill="#90A5D1"/>
<path d="M1409.3 204.9C1409.7 204.9 1410 204.6 1410 204.2C1410 203.8 1409.7 203.5 1409.3 203.5C1408.9 203.5 1408.6 203.8 1408.6 204.2C1408.6 204.6 1409 204.9 1409.3 204.9Z" fill="#90A5D1"/>
<path d="M1436.9 204.6C1437.2 204.6 1437.4 204.4 1437.4 204.1C1437.4 203.8 1437.2 203.6 1436.9 203.6C1436.6 203.6 1436.4 203.8 1436.4 204.1C1436.4 204.4 1436.6 204.6 1436.9 204.6Z" fill="#90A5D1"/>
<path d="M1078.8 235.1C1080.9 235.1 1082.6 233.4 1082.6 231.3C1082.6 229.2 1080.9 227.5 1078.8 227.5C1076.7 227.5 1075 229.2 1075 231.3C1075 233.4 1076.7 235.1 1078.8 235.1Z" fill="#90A5D1"/>
<path d="M1106.4 234.8C1108.4 234.8 1109.9 233.2 1109.9 231.3C1109.9 229.3 1108.3 227.8 1106.4 227.8C1104.4 227.8 1102.9 229.4 1102.9 231.3C1102.8 233.2 1104.4 234.8 1106.4 234.8Z" fill="#90A5D1"/>
<path d="M1133.9 234.6C1135.7 234.6 1137.2 233.1 1137.2 231.3C1137.2 229.5 1135.7 228 1133.9 228C1132.1 228 1130.6 229.5 1130.6 231.3C1130.6 233.1 1132.1 234.6 1133.9 234.6Z" fill="#90A5D1"/>
<path d="M1161.4 234.3C1163.1 234.3 1164.4 232.9 1164.4 231.3C1164.4 229.6 1163 228.3 1161.4 228.3C1159.8 228.3 1158.4 229.7 1158.4 231.3C1158.4 232.9 1159.8 234.3 1161.4 234.3Z" fill="#90A5D1"/>
<path d="M1189 234C1190.5 234 1191.8 232.8 1191.8 231.2C1191.8 229.6 1190.6 228.4 1189 228.4C1187.5 228.4 1186.2 229.6 1186.2 231.2C1186.2 232.8 1187.5 234 1189 234Z" fill="#90A5D1"/>
<path d="M1216.5 233.8C1217.9 233.8 1219 232.7 1219 231.3C1219 229.9 1217.9 228.8 1216.5 228.8C1215.1 228.8 1214 229.9 1214 231.3C1214 232.7 1215.1 233.8 1216.5 233.8Z" fill="#90A5D1"/>
<path d="M1244.1 233.5C1245.3 233.5 1246.4 232.5 1246.4 231.2C1246.4 229.9 1245.4 228.9 1244.1 228.9C1242.9 228.9 1241.8 229.9 1241.8 231.2C1241.8 232.5 1242.8 233.5 1244.1 233.5Z" fill="#90A5D1"/>
<path d="M1271.6 233.2C1272.7 233.2 1273.6 232.3 1273.6 231.2C1273.6 230.1 1272.7 229.2 1271.6 229.2C1270.5 229.2 1269.6 230.1 1269.6 231.2C1269.6 232.4 1270.5 233.2 1271.6 233.2Z" fill="#90A5D1"/>
<path d="M1299.2 233C1300.2 233 1300.9 232.2 1300.9 231.3C1300.9 230.3 1300.1 229.6 1299.2 229.6C1298.2 229.6 1297.5 230.4 1297.5 231.3C1297.4 232.2 1298.2 233 1299.2 233Z" fill="#90A5D1"/>
<path d="M1326.7 232.7C1327.5 232.7 1328.2 232 1328.2 231.2C1328.2 230.4 1327.5 229.7 1326.7 229.7C1325.9 229.7 1325.2 230.4 1325.2 231.2C1325.2 232.1 1325.9 232.7 1326.7 232.7Z" fill="#90A5D1"/>
<path d="M1354.3 232.5C1355 232.5 1355.5 232 1355.5 231.3C1355.5 230.6 1355 230.1 1354.3 230.1C1353.6 230.1 1353.1 230.6 1353.1 231.3C1353.1 232 1353.6 232.5 1354.3 232.5Z" fill="#90A5D1"/>
<path d="M1381.8 232.2C1382.3 232.2 1382.8 231.8 1382.8 231.2C1382.8 230.7 1382.4 230.2 1381.8 230.2C1381.2 230.2 1380.8 230.6 1380.8 231.2C1380.8 231.8 1381.3 232.2 1381.8 232.2Z" fill="#90A5D1"/>
<path d="M1409.3 231.9C1409.7 231.9 1410 231.6 1410 231.2C1410 230.8 1409.7 230.5 1409.3 230.5C1408.9 230.5 1408.6 230.8 1408.6 231.2C1408.6 231.6 1409 231.9 1409.3 231.9Z" fill="#90A5D1"/>
<path d="M1436.9 231.7C1437.2 231.7 1437.4 231.5 1437.4 231.2C1437.4 230.9 1437.2 230.7 1436.9 230.7C1436.6 230.7 1436.4 230.9 1436.4 231.2C1436.4 231.5 1436.6 231.7 1436.9 231.7Z" fill="#90A5D1"/>
<path d="M1078.8 262.2C1080.9 262.2 1082.6 260.5 1082.6 258.4C1082.6 256.3 1080.9 254.6 1078.8 254.6C1076.7 254.6 1075 256.2 1075 258.4C1075 260.5 1076.7 262.2 1078.8 262.2Z" fill="#90A5D1"/>
<path d="M1106.4 261.9C1108.4 261.9 1109.9 260.3 1109.9 258.4C1109.9 256.4 1108.3 254.9 1106.4 254.9C1104.4 254.9 1102.9 256.5 1102.9 258.4C1102.8 260.3 1104.4 261.9 1106.4 261.9Z" fill="#90A5D1"/>
<path d="M1133.9 261.6C1135.7 261.6 1137.2 260.1 1137.2 258.3C1137.2 256.5 1135.7 255 1133.9 255C1132.1 255 1130.6 256.5 1130.6 258.3C1130.6 260.2 1132.1 261.6 1133.9 261.6Z" fill="#90A5D1"/>
<path d="M1161.4 261.4C1163.1 261.4 1164.4 260 1164.4 258.4C1164.4 256.7 1163 255.4 1161.4 255.4C1159.8 255.4 1158.4 256.8 1158.4 258.4C1158.4 260 1159.8 261.4 1161.4 261.4Z" fill="#90A5D1"/>
<path d="M1189 261.1C1190.5 261.1 1191.8 259.9 1191.8 258.3C1191.8 256.7 1190.6 255.5 1189 255.5C1187.5 255.5 1186.2 256.7 1186.2 258.3C1186.2 259.9 1187.5 261.1 1189 261.1Z" fill="#90A5D1"/>
<path d="M1216.5 260.8C1217.9 260.8 1219 259.7 1219 258.3C1219 256.9 1217.9 255.8 1216.5 255.8C1215.1 255.8 1214 256.9 1214 258.3C1214 259.7 1215.1 260.8 1216.5 260.8Z" fill="#90A5D1"/>
<path d="M1244.1 260.6C1245.3 260.6 1246.4 259.6 1246.4 258.3C1246.4 257.1 1245.4 256 1244.1 256C1242.9 256 1241.8 257 1241.8 258.3C1241.8 259.6 1242.8 260.6 1244.1 260.6Z" fill="#90A5D1"/>
<path d="M1271.6 260.3C1272.7 260.3 1273.6 259.4 1273.6 258.3C1273.6 257.2 1272.7 256.3 1271.6 256.3C1270.5 256.3 1269.6 257.2 1269.6 258.3C1269.6 259.4 1270.5 260.3 1271.6 260.3Z" fill="#90A5D1"/>
<path d="M1299.2 260C1300.2 260 1300.9 259.2 1300.9 258.3C1300.9 257.3 1300.1 256.6 1299.2 256.6C1298.2 256.6 1297.5 257.4 1297.5 258.3C1297.4 259.3 1298.2 260 1299.2 260Z" fill="#90A5D1"/>
<path d="M1326.7 259.8C1327.5 259.8 1328.2 259.1 1328.2 258.3C1328.2 257.5 1327.5 256.8 1326.7 256.8C1325.9 256.8 1325.2 257.5 1325.2 258.3C1325.2 259.1 1325.9 259.8 1326.7 259.8Z" fill="#90A5D1"/>
<path d="M1354.3 259.5C1355 259.5 1355.5 259 1355.5 258.3C1355.5 257.6 1355 257.1 1354.3 257.1C1353.6 257.1 1353.1 257.6 1353.1 258.3C1353 259 1353.6 259.5 1354.3 259.5Z" fill="#90A5D1"/>
<path d="M1381.8 259.3C1382.3 259.3 1382.8 258.9 1382.8 258.3C1382.8 257.7 1382.4 257.3 1381.8 257.3C1381.2 257.3 1380.8 257.7 1380.8 258.3C1380.8 258.9 1381.3 259.3 1381.8 259.3Z" fill="#90A5D1"/>
<path d="M1409.3 259C1409.7 259 1410 258.7 1410 258.3C1410 257.9 1409.7 257.6 1409.3 257.6C1408.9 257.6 1408.6 257.9 1408.6 258.3C1408.6 258.7 1409 259 1409.3 259Z" fill="#90A5D1"/>
<path d="M1436.9 258.7C1437.2 258.7 1437.4 258.5 1437.4 258.2C1437.4 257.9 1437.2 257.7 1436.9 257.7C1436.6 257.7 1436.4 257.9 1436.4 258.2C1436.4 258.5 1436.6 258.7 1436.9 258.7Z" fill="#90A5D1"/>
<path d="M1078.8 289.2C1080.9 289.2 1082.6 287.5 1082.6 285.4C1082.6 283.3 1080.9 281.6 1078.8 281.6C1076.7 281.6 1075 283.3 1075 285.4C1075 287.5 1076.7 289.2 1078.8 289.2Z" fill="#90A5D1"/>
<path d="M1106.4 289C1108.4 289 1109.9 287.4 1109.9 285.5C1109.9 283.5 1108.3 282 1106.4 282C1104.4 282 1102.9 283.6 1102.9 285.5C1102.8 287.4 1104.4 289 1106.4 289Z" fill="#90A5D1"/>
<path d="M1133.9 288.7C1135.7 288.7 1137.2 287.2 1137.2 285.4C1137.2 283.6 1135.7 282.1 1133.9 282.1C1132.1 282.1 1130.6 283.6 1130.6 285.4C1130.6 287.2 1132.1 288.7 1133.9 288.7Z" fill="#90A5D1"/>
<path d="M1161.4 288.4C1163.1 288.4 1164.4 287 1164.4 285.4C1164.4 283.7 1163 282.4 1161.4 282.4C1159.8 282.4 1158.4 283.8 1158.4 285.4C1158.4 287.1 1159.8 288.4 1161.4 288.4Z" fill="#90A5D1"/>
<path d="M1189 288.2C1190.5 288.2 1191.8 287 1191.8 285.4C1191.8 283.8 1190.6 282.6 1189 282.6C1187.5 282.6 1186.2 283.8 1186.2 285.4C1186.2 287 1187.5 288.2 1189 288.2Z" fill="#90A5D1"/>
<path d="M1216.5 287.9C1217.9 287.9 1219 286.8 1219 285.4C1219 284 1217.9 282.9 1216.5 282.9C1215.1 282.9 1214 284 1214 285.4C1214 286.8 1215.1 287.9 1216.5 287.9Z" fill="#90A5D1"/>
<path d="M1244.1 287.6C1245.3 287.6 1246.4 286.6 1246.4 285.3C1246.4 284 1245.4 283 1244.1 283C1242.9 283 1241.8 284 1241.8 285.3C1241.8 286.6 1242.8 287.6 1244.1 287.6Z" fill="#90A5D1"/>
<path d="M1271.6 287.4C1272.7 287.4 1273.6 286.5 1273.6 285.4C1273.6 284.3 1272.7 283.4 1271.6 283.4C1270.5 283.4 1269.6 284.3 1269.6 285.4C1269.6 286.5 1270.5 287.4 1271.6 287.4Z" fill="#90A5D1"/>
<path d="M1299.2 287.1C1300.2 287.1 1300.9 286.3 1300.9 285.4C1300.9 284.4 1300.1 283.7 1299.2 283.7C1298.2 283.7 1297.5 284.5 1297.5 285.4C1297.4 286.3 1298.2 287.1 1299.2 287.1Z" fill="#90A5D1"/>
<path d="M1326.7 286.8C1327.5 286.8 1328.2 286.1 1328.2 285.3C1328.2 284.5 1327.5 283.8 1326.7 283.8C1325.9 283.8 1325.2 284.5 1325.2 285.3C1325.2 286.2 1325.9 286.8 1326.7 286.8Z" fill="#90A5D1"/>
<path d="M1354.3 286.6C1355 286.6 1355.5 286.1 1355.5 285.4C1355.5 284.7 1355 284.2 1354.3 284.2C1353.6 284.2 1353.1 284.7 1353.1 285.4C1353 286 1353.6 286.6 1354.3 286.6Z" fill="#90A5D1"/>
<path d="M1381.8 286.3C1382.3 286.3 1382.8 285.9 1382.8 285.3C1382.8 284.8 1382.4 284.3 1381.8 284.3C1381.2 284.3 1380.8 284.7 1380.8 285.3C1380.8 285.9 1381.3 286.3 1381.8 286.3Z" fill="#90A5D1"/>
<path d="M1409.3 286.1C1409.7 286.1 1410 285.8 1410 285.4C1410 285 1409.7 284.7 1409.3 284.7C1408.9 284.7 1408.6 285 1408.6 285.4C1408.6 285.7 1409 286.1 1409.3 286.1Z" fill="#90A5D1"/>
<path d="M1436.9 285.8C1437.2 285.8 1437.4 285.6 1437.4 285.3C1437.4 285 1437.2 284.8 1436.9 284.8C1436.6 284.8 1436.4 285 1436.4 285.3C1436.4 285.6 1436.6 285.8 1436.9 285.8Z" fill="#90A5D1"/>
<path d="M1078.8 316.3C1080.9 316.3 1082.6 314.6 1082.6 312.5C1082.6 310.4 1080.9 308.7 1078.8 308.7C1076.7 308.7 1075 310.4 1075 312.5C1075 314.6 1076.7 316.3 1078.8 316.3Z" fill="#90A5D1"/>
<path d="M1106.4 316C1108.4 316 1109.9 314.4 1109.9 312.5C1109.9 310.6 1108.3 309 1106.4 309C1104.4 309 1102.9 310.6 1102.9 312.5C1102.9 314.4 1104.4 316 1106.4 316Z" fill="#90A5D1"/>
<path d="M1133.9 315.8C1135.7 315.8 1137.2 314.3 1137.2 312.5C1137.2 310.7 1135.7 309.2 1133.9 309.2C1132.1 309.2 1130.6 310.7 1130.6 312.5C1130.6 314.3 1132.1 315.8 1133.9 315.8Z" fill="#90A5D1"/>
<path d="M1161.4 315.5C1163.1 315.5 1164.4 314.1 1164.4 312.5C1164.4 310.8 1163 309.5 1161.4 309.5C1159.8 309.5 1158.4 310.9 1158.4 312.5C1158.4 314.1 1159.8 315.5 1161.4 315.5Z" fill="#90A5D1"/>
<path d="M1189 315.2C1190.5 315.2 1191.8 314 1191.8 312.4C1191.8 310.9 1190.6 309.6 1189 309.6C1187.5 309.6 1186.2 310.8 1186.2 312.4C1186.2 314 1187.5 315.2 1189 315.2Z" fill="#90A5D1"/>
<path d="M1216.5 315C1217.9 315 1219 313.9 1219 312.5C1219 311.1 1217.9 310 1216.5 310C1215.1 310 1214 311.1 1214 312.5C1214 313.8 1215.1 315 1216.5 315Z" fill="#90A5D1"/>
<path d="M1244.1 314.7C1245.3 314.7 1246.4 313.7 1246.4 312.4C1246.4 311.1 1245.4 310.1 1244.1 310.1C1242.9 310.1 1241.8 311.1 1241.8 312.4C1241.8 313.7 1242.8 314.7 1244.1 314.7Z" fill="#90A5D1"/>
<path d="M1271.6 314.4C1272.7 314.4 1273.6 313.5 1273.6 312.4C1273.6 311.3 1272.7 310.4 1271.6 310.4C1270.5 310.4 1269.6 311.3 1269.6 312.4C1269.6 313.5 1270.5 314.4 1271.6 314.4Z" fill="#90A5D1"/>
<path d="M1299.2 314.2C1300.2 314.2 1300.9 313.4 1300.9 312.5C1300.9 311.5 1300.1 310.8 1299.2 310.8C1298.2 310.8 1297.5 311.6 1297.5 312.5C1297.4 313.4 1298.2 314.2 1299.2 314.2Z" fill="#90A5D1"/>
<path d="M1326.7 313.9C1327.5 313.9 1328.2 313.2 1328.2 312.4C1328.2 311.6 1327.5 310.9 1326.7 310.9C1325.9 310.9 1325.2 311.6 1325.2 312.4C1325.2 313.2 1325.9 313.9 1326.7 313.9Z" fill="#90A5D1"/>
<path d="M1354.3 313.6C1355 313.6 1355.5 313.1 1355.5 312.4C1355.5 311.7 1355 311.2 1354.3 311.2C1353.6 311.2 1353.1 311.7 1353.1 312.4C1353.1 313.1 1353.6 313.6 1354.3 313.6Z" fill="#90A5D1"/>
<path d="M1381.8 313.4C1382.3 313.4 1382.8 313 1382.8 312.4C1382.8 311.8 1382.4 311.4 1381.8 311.4C1381.2 311.4 1380.8 311.8 1380.8 312.4C1380.8 313 1381.3 313.4 1381.8 313.4Z" fill="#90A5D1"/>
<path d="M1409.3 313.1C1409.7 313.1 1410 312.8 1410 312.4C1410 312 1409.7 311.7 1409.3 311.7C1408.9 311.7 1408.6 312 1408.6 312.4C1408.6 312.8 1409 313.1 1409.3 313.1Z" fill="#90A5D1"/>
<path d="M1436.9 312.9C1437.2 312.9 1437.4 312.7 1437.4 312.4C1437.4 312.1 1437.2 311.9 1436.9 311.9C1436.6 311.9 1436.4 312.1 1436.4 312.4C1436.4 312.6 1436.6 312.9 1436.9 312.9Z" fill="#90A5D1"/>
<path d="M1078.8 344.5C1080.9 344.5 1082.6 342.8 1082.6 340.7C1082.6 338.6 1080.9 336.9 1078.8 336.9C1076.7 336.9 1075 338.6 1075 340.7C1075 342.8 1076.7 344.5 1078.8 344.5Z" fill="#90A5D1"/>
<path d="M1106.4 344.2C1108.4 344.2 1109.9 342.6 1109.9 340.7C1109.9 338.7 1108.3 337.2 1106.4 337.2C1104.4 337.2 1102.9 338.8 1102.9 340.7C1102.8 342.6 1104.4 344.2 1106.4 344.2Z" fill="#90A5D1"/>
<path d="M1133.9 344C1135.7 344 1137.2 342.5 1137.2 340.7C1137.2 338.9 1135.7 337.4 1133.9 337.4C1132.1 337.4 1130.6 338.9 1130.6 340.7C1130.6 342.5 1132.1 344 1133.9 344Z" fill="#90A5D1"/>
<path d="M1161.4 343.7C1163.1 343.7 1164.4 342.3 1164.4 340.7C1164.4 339 1163 337.7 1161.4 337.7C1159.8 337.7 1158.4 339.1 1158.4 340.7C1158.4 342.3 1159.8 343.7 1161.4 343.7Z" fill="#90A5D1"/>
<path d="M1189 343.4C1190.5 343.4 1191.8 342.2 1191.8 340.6C1191.8 339.1 1190.6 337.8 1189 337.8C1187.5 337.8 1186.2 339 1186.2 340.6C1186.2 342.2 1187.5 343.4 1189 343.4Z" fill="#90A5D1"/>
<path d="M1216.5 343.2C1217.9 343.2 1219 342.1 1219 340.7C1219 339.3 1217.9 338.2 1216.5 338.2C1215.1 338.2 1214 339.3 1214 340.7C1214 342 1215.1 343.2 1216.5 343.2Z" fill="#90A5D1"/>
<path d="M1244.1 342.9C1245.3 342.9 1246.4 341.9 1246.4 340.6C1246.4 339.3 1245.4 338.3 1244.1 338.3C1242.9 338.3 1241.8 339.3 1241.8 340.6C1241.8 341.9 1242.8 342.9 1244.1 342.9Z" fill="#90A5D1"/>
<path d="M1271.6 342.6C1272.7 342.6 1273.6 341.7 1273.6 340.6C1273.6 339.5 1272.7 338.6 1271.6 338.6C1270.5 338.6 1269.6 339.5 1269.6 340.6C1269.6 341.7 1270.5 342.6 1271.6 342.6Z" fill="#90A5D1"/>
<path d="M1299.2 342.4C1300.2 342.4 1300.9 341.6 1300.9 340.7C1300.9 339.7 1300.1 339 1299.2 339C1298.2 339 1297.5 339.8 1297.5 340.7C1297.4 341.6 1298.2 342.4 1299.2 342.4Z" fill="#90A5D1"/>
<path d="M1326.7 342.1C1327.5 342.1 1328.2 341.4 1328.2 340.6C1328.2 339.8 1327.5 339.1 1326.7 339.1C1325.9 339.1 1325.2 339.8 1325.2 340.6C1325.2 341.4 1325.9 342.1 1326.7 342.1Z" fill="#90A5D1"/>
<path d="M1354.3 341.8C1355 341.8 1355.5 341.3 1355.5 340.6C1355.5 339.9 1355 339.4 1354.3 339.4C1353.6 339.4 1353.1 339.9 1353.1 340.6C1353.1 341.3 1353.6 341.8 1354.3 341.8Z" fill="#90A5D1"/>
<path d="M1381.8 341.6C1382.3 341.6 1382.8 341.2 1382.8 340.6C1382.8 340.1 1382.4 339.6 1381.8 339.6C1381.2 339.6 1380.8 340 1380.8 340.6C1380.8 341.1 1381.3 341.6 1381.8 341.6Z" fill="#90A5D1"/>
<path d="M1409.3 341.3C1409.7 341.3 1410 341 1410 340.6C1410 340.2 1409.7 339.9 1409.3 339.9C1408.9 339.9 1408.6 340.2 1408.6 340.6C1408.6 341 1409 341.3 1409.3 341.3Z" fill="#90A5D1"/>
<path d="M1436.9 341.1C1437.2 341.1 1437.4 340.9 1437.4 340.6C1437.4 340.3 1437.2 340.1 1436.9 340.1C1436.6 340.1 1436.4 340.3 1436.4 340.6C1436.4 340.8 1436.6 341.1 1436.9 341.1Z" fill="#90A5D1"/>
<path d="M1078.8 371.5C1080.9 371.5 1082.6 369.8 1082.6 367.7C1082.6 365.6 1080.9 363.9 1078.8 363.9C1076.7 363.9 1075 365.6 1075 367.7C1075 369.8 1076.7 371.5 1078.8 371.5Z" fill="#90A5D1"/>
<path d="M1106.4 371.3C1108.4 371.3 1109.9 369.7 1109.9 367.8C1109.9 365.8 1108.3 364.3 1106.4 364.3C1104.4 364.3 1102.9 365.9 1102.9 367.8C1102.8 369.7 1104.4 371.3 1106.4 371.3Z" fill="#90A5D1"/>
<path d="M1133.9 371C1135.7 371 1137.2 369.5 1137.2 367.7C1137.2 365.9 1135.7 364.4 1133.9 364.4C1132.1 364.4 1130.6 365.9 1130.6 367.7C1130.6 369.5 1132.1 371 1133.9 371Z" fill="#90A5D1"/>
<path d="M1161.4 370.7C1163.1 370.7 1164.4 369.3 1164.4 367.7C1164.4 366 1163 364.7 1161.4 364.7C1159.8 364.7 1158.4 366.1 1158.4 367.7C1158.4 369.4 1159.8 370.7 1161.4 370.7Z" fill="#90A5D1"/>
<path d="M1189 370.5C1190.5 370.5 1191.8 369.3 1191.8 367.7C1191.8 366.2 1190.6 364.9 1189 364.9C1187.5 364.9 1186.2 366.1 1186.2 367.7C1186.2 369.2 1187.5 370.5 1189 370.5Z" fill="#90A5D1"/>
<path d="M1216.5 370.2C1217.9 370.2 1219 369.1 1219 367.7C1219 366.3 1217.9 365.2 1216.5 365.2C1215.1 365.2 1214 366.3 1214 367.7C1214 369.1 1215.1 370.2 1216.5 370.2Z" fill="#90A5D1"/>
<path d="M1244.1 370C1245.3 370 1246.4 369 1246.4 367.7C1246.4 366.4 1245.4 365.4 1244.1 365.4C1242.9 365.4 1241.8 366.4 1241.8 367.7C1241.8 369 1242.8 370 1244.1 370Z" fill="#90A5D1"/>
<path d="M1271.6 369.7C1272.7 369.7 1273.6 368.8 1273.6 367.7C1273.6 366.6 1272.7 365.7 1271.6 365.7C1270.5 365.7 1269.6 366.6 1269.6 367.7C1269.6 368.8 1270.5 369.7 1271.6 369.7Z" fill="#90A5D1"/>
<path d="M1299.2 369.4C1300.2 369.4 1300.9 368.6 1300.9 367.7C1300.9 366.7 1300.1 366 1299.2 366C1298.2 366 1297.5 366.8 1297.5 367.7C1297.4 368.6 1298.2 369.4 1299.2 369.4Z" fill="#90A5D1"/>
<path d="M1326.7 369.2C1327.5 369.2 1328.2 368.5 1328.2 367.7C1328.2 366.9 1327.5 366.2 1326.7 366.2C1325.9 366.2 1325.2 366.9 1325.2 367.7C1325.2 368.5 1325.9 369.2 1326.7 369.2Z" fill="#90A5D1"/>
<path d="M1354.3 368.9C1355 368.9 1355.5 368.4 1355.5 367.7C1355.5 367 1355 366.5 1354.3 366.5C1353.6 366.5 1353.1 367 1353.1 367.7C1353.1 368.4 1353.6 368.9 1354.3 368.9Z" fill="#90A5D1"/>
<path d="M1381.8 368.6C1382.3 368.6 1382.8 368.2 1382.8 367.6C1382.8 367 1382.4 366.6 1381.8 366.6C1381.2 366.6 1380.8 367 1380.8 367.6C1380.8 368.2 1381.3 368.6 1381.8 368.6Z" fill="#90A5D1"/>
<path d="M1409.3 368.4C1409.7 368.4 1410 368.1 1410 367.7C1410 367.3 1409.7 367 1409.3 367C1408.9 367 1408.6 367.3 1408.6 367.7C1408.6 368.1 1409 368.4 1409.3 368.4Z" fill="#90A5D1"/>
<path d="M1436.9 368.1C1437.2 368.1 1437.4 367.9 1437.4 367.6C1437.4 367.3 1437.2 367.1 1436.9 367.1C1436.6 367.1 1436.4 367.3 1436.4 367.6C1436.4 367.9 1436.6 368.1 1436.9 368.1Z" fill="#90A5D1"/>
<path d="M1078.8 371.6C1080.9 371.6 1082.6 369.9 1082.6 367.8C1082.6 365.7 1080.9 364 1078.8 364C1076.7 364 1075 365.7 1075 367.8C1075 369.9 1076.7 371.6 1078.8 371.6Z" fill="#90A5D1"/>
<path d="M1106.4 371.3C1108.4 371.3 1109.9 369.7 1109.9 367.8C1109.9 365.8 1108.3 364.3 1106.4 364.3C1104.4 364.3 1102.9 365.9 1102.9 367.8C1102.8 369.7 1104.4 371.3 1106.4 371.3Z" fill="#90A5D1"/>
<path d="M1133.9 371.1C1135.7 371.1 1137.2 369.6 1137.2 367.8C1137.2 366 1135.7 364.5 1133.9 364.5C1132.1 364.5 1130.6 366 1130.6 367.8C1130.6 369.6 1132.1 371.1 1133.9 371.1Z" fill="#90A5D1"/>
<path d="M1161.4 370.8C1163.1 370.8 1164.4 369.4 1164.4 367.8C1164.4 366.1 1163 364.8 1161.4 364.8C1159.8 364.8 1158.4 366.2 1158.4 367.8C1158.4 369.5 1159.8 370.8 1161.4 370.8Z" fill="#90A5D1"/>
<path d="M1189 370.5C1190.5 370.5 1191.8 369.3 1191.8 367.7C1191.8 366.2 1190.6 364.9 1189 364.9C1187.5 364.9 1186.2 366.1 1186.2 367.7C1186.2 369.3 1187.5 370.5 1189 370.5Z" fill="#90A5D1"/>
<path d="M1216.5 370.3C1217.9 370.3 1219 369.2 1219 367.8C1219 366.4 1217.9 365.3 1216.5 365.3C1215.1 365.3 1214 366.4 1214 367.8C1214 369.2 1215.1 370.3 1216.5 370.3Z" fill="#90A5D1"/>
<path d="M1244.1 370C1245.3 370 1246.4 369 1246.4 367.7C1246.4 366.5 1245.4 365.4 1244.1 365.4C1242.9 365.4 1241.8 366.4 1241.8 367.7C1241.8 369 1242.8 370 1244.1 370Z" fill="#90A5D1"/>
<path d="M1271.6 369.8C1272.7 369.8 1273.6 368.9 1273.6 367.8C1273.6 366.7 1272.7 365.8 1271.6 365.8C1270.5 365.8 1269.6 366.7 1269.6 367.8C1269.6 368.9 1270.5 369.8 1271.6 369.8Z" fill="#90A5D1"/>
<path d="M1299.2 369.5C1300.2 369.5 1300.9 368.7 1300.9 367.8C1300.9 366.8 1300.1 366.1 1299.2 366.1C1298.2 366.1 1297.5 366.9 1297.5 367.8C1297.4 368.7 1298.2 369.5 1299.2 369.5Z" fill="#90A5D1"/>
<path d="M1326.7 369.2C1327.5 369.2 1328.2 368.5 1328.2 367.7C1328.2 366.9 1327.5 366.2 1326.7 366.2C1325.9 366.2 1325.2 366.9 1325.2 367.7C1325.2 368.6 1325.9 369.2 1326.7 369.2Z" fill="#90A5D1"/>
<path d="M1354.3 369C1355 369 1355.5 368.5 1355.5 367.8C1355.5 367.1 1355 366.6 1354.3 366.6C1353.6 366.6 1353.1 367.1 1353.1 367.8C1353 368.4 1353.6 369 1354.3 369Z" fill="#90A5D1"/>
<path d="M1381.8 368.7C1382.3 368.7 1382.8 368.3 1382.8 367.7C1382.8 367.2 1382.4 366.7 1381.8 366.7C1381.2 366.7 1380.8 367.1 1380.8 367.7C1380.8 368.3 1381.3 368.7 1381.8 368.7Z" fill="#90A5D1"/>
<path d="M1409.3 368.4C1409.7 368.4 1410 368.1 1410 367.7C1410 367.3 1409.7 367 1409.3 367C1408.9 367 1408.6 367.3 1408.6 367.7C1408.6 368.1 1409 368.4 1409.3 368.4Z" fill="#90A5D1"/>
<path d="M1436.9 368.2C1437.2 368.2 1437.4 368 1437.4 367.7C1437.4 367.4 1437.2 367.2 1436.9 367.2C1436.6 367.2 1436.4 367.4 1436.4 367.7C1436.4 368 1436.6 368.2 1436.9 368.2Z" fill="#90A5D1"/>
<path d="M1078.8 398.7C1080.9 398.7 1082.6 397 1082.6 394.9C1082.6 392.8 1080.9 391.1 1078.8 391.1C1076.7 391.1 1075 392.7 1075 394.9C1075 397 1076.7 398.7 1078.8 398.7Z" fill="#90A5D1"/>
<path d="M1106.4 398.4C1108.4 398.4 1109.9 396.8 1109.9 394.9C1109.9 392.9 1108.3 391.4 1106.4 391.4C1104.4 391.4 1102.9 393 1102.9 394.9C1102.8 396.8 1104.4 398.4 1106.4 398.4Z" fill="#90A5D1"/>
<path d="M1133.9 398.1C1135.7 398.1 1137.2 396.6 1137.2 394.8C1137.2 393 1135.7 391.5 1133.9 391.5C1132.1 391.5 1130.6 393 1130.6 394.8C1130.6 396.7 1132.1 398.1 1133.9 398.1Z" fill="#90A5D1"/>
<path d="M1161.4 397.9C1163.1 397.9 1164.4 396.5 1164.4 394.9C1164.4 393.2 1163 391.9 1161.4 391.9C1159.8 391.9 1158.4 393.3 1158.4 394.9C1158.4 396.5 1159.8 397.9 1161.4 397.9Z" fill="#90A5D1"/>
<path d="M1189 397.6C1190.5 397.6 1191.8 396.4 1191.8 394.8C1191.8 393.3 1190.6 392 1189 392C1187.5 392 1186.2 393.2 1186.2 394.8C1186.2 396.4 1187.5 397.6 1189 397.6Z" fill="#90A5D1"/>
<path d="M1216.5 397.3C1217.9 397.3 1219 396.2 1219 394.8C1219 393.4 1217.9 392.3 1216.5 392.3C1215.1 392.3 1214 393.4 1214 394.8C1214 396.2 1215.1 397.3 1216.5 397.3Z" fill="#90A5D1"/>
<path d="M1244.1 397.1C1245.3 397.1 1246.4 396.1 1246.4 394.8C1246.4 393.6 1245.4 392.5 1244.1 392.5C1242.9 392.5 1241.8 393.5 1241.8 394.8C1241.8 396.1 1242.8 397.1 1244.1 397.1Z" fill="#90A5D1"/>
<path d="M1271.6 396.8C1272.7 396.8 1273.6 395.9 1273.6 394.8C1273.6 393.7 1272.7 392.8 1271.6 392.8C1270.5 392.8 1269.6 393.7 1269.6 394.8C1269.6 395.9 1270.5 396.8 1271.6 396.8Z" fill="#90A5D1"/>
<path d="M1299.2 396.6C1300.2 396.6 1300.9 395.8 1300.9 394.9C1300.9 393.9 1300.1 393.2 1299.2 393.2C1298.2 393.2 1297.5 394 1297.5 394.9C1297.4 395.8 1298.2 396.6 1299.2 396.6Z" fill="#90A5D1"/>
<path d="M1326.7 396.3C1327.5 396.3 1328.2 395.6 1328.2 394.8C1328.2 394 1327.5 393.3 1326.7 393.3C1325.9 393.3 1325.2 394 1325.2 394.8C1325.2 395.6 1325.9 396.3 1326.7 396.3Z" fill="#90A5D1"/>
<path d="M1354.3 396C1355 396 1355.5 395.5 1355.5 394.8C1355.5 394.1 1355 393.6 1354.3 393.6C1353.6 393.6 1353.1 394.1 1353.1 394.8C1353 395.5 1353.6 396 1354.3 396Z" fill="#90A5D1"/>
<path d="M1381.8 395.8C1382.3 395.8 1382.8 395.4 1382.8 394.8C1382.8 394.3 1382.4 393.8 1381.8 393.8C1381.2 393.8 1380.8 394.2 1380.8 394.8C1380.8 395.3 1381.3 395.8 1381.8 395.8Z" fill="#90A5D1"/>
<path d="M1409.3 395.5C1409.7 395.5 1410 395.2 1410 394.8C1410 394.4 1409.7 394.1 1409.3 394.1C1408.9 394.1 1408.6 394.4 1408.6 394.8C1408.6 395.2 1409 395.5 1409.3 395.5Z" fill="#90A5D1"/>
<path d="M1436.9 395.2C1437.2 395.2 1437.4 395 1437.4 394.7C1437.4 394.4 1437.2 394.2 1436.9 394.2C1436.6 394.2 1436.4 394.4 1436.4 394.7C1436.4 395 1436.6 395.2 1436.9 395.2Z" fill="#90A5D1"/>
<path d="M1078.8 425.7C1080.9 425.7 1082.6 424 1082.6 421.9C1082.6 419.8 1080.9 418.1 1078.8 418.1C1076.7 418.1 1075 419.8 1075 421.9C1075 424 1076.7 425.7 1078.8 425.7Z" fill="#90A5D1"/>
<path d="M1106.4 425.5C1108.4 425.5 1109.9 423.9 1109.9 422C1109.9 420.1 1108.3 418.5 1106.4 418.5C1104.4 418.5 1102.9 420.1 1102.9 422C1102.9 423.9 1104.4 425.5 1106.4 425.5Z" fill="#90A5D1"/>
<path d="M1133.9 425.2C1135.7 425.2 1137.2 423.7 1137.2 421.9C1137.2 420.1 1135.7 418.6 1133.9 418.6C1132.1 418.6 1130.6 420.1 1130.6 421.9C1130.6 423.7 1132.1 425.2 1133.9 425.2Z" fill="#90A5D1"/>
<path d="M1161.4 424.9C1163.1 424.9 1164.4 423.5 1164.4 421.9C1164.4 420.2 1163 418.9 1161.4 418.9C1159.8 418.9 1158.4 420.3 1158.4 421.9C1158.4 423.6 1159.8 424.9 1161.4 424.9Z" fill="#90A5D1"/>
<path d="M1189 424.7C1190.5 424.7 1191.8 423.5 1191.8 421.9C1191.8 420.4 1190.6 419.1 1189 419.1C1187.5 419.1 1186.2 420.3 1186.2 421.9C1186.2 423.4 1187.5 424.7 1189 424.7Z" fill="#90A5D1"/>
<path d="M1216.5 424.4C1217.9 424.4 1219 423.3 1219 421.9C1219 420.5 1217.9 419.4 1216.5 419.4C1215.1 419.4 1214 420.5 1214 421.9C1214 423.3 1215.1 424.4 1216.5 424.4Z" fill="#90A5D1"/>
<path d="M1244.1 424.1C1245.3 424.1 1246.4 423.1 1246.4 421.8C1246.4 420.6 1245.4 419.5 1244.1 419.5C1242.9 419.5 1241.8 420.5 1241.8 421.8C1241.8 423.1 1242.8 424.1 1244.1 424.1Z" fill="#90A5D1"/>
<path d="M1271.6 423.9C1272.7 423.9 1273.6 423 1273.6 421.9C1273.6 420.8 1272.7 419.9 1271.6 419.9C1270.5 419.9 1269.6 420.8 1269.6 421.9C1269.6 423 1270.5 423.9 1271.6 423.9Z" fill="#90A5D1"/>
<path d="M1299.2 423.6C1300.2 423.6 1300.9 422.8 1300.9 421.9C1300.9 420.9 1300.1 420.2 1299.2 420.2C1298.2 420.2 1297.5 421 1297.5 421.9C1297.4 422.8 1298.2 423.6 1299.2 423.6Z" fill="#90A5D1"/>
<path d="M1326.7 423.4C1327.5 423.4 1328.2 422.7 1328.2 421.9C1328.2 421.1 1327.5 420.4 1326.7 420.4C1325.9 420.4 1325.2 421.1 1325.2 421.9C1325.2 422.7 1325.9 423.4 1326.7 423.4Z" fill="#90A5D1"/>
<path d="M1354.3 423.1C1355 423.1 1355.5 422.6 1355.5 421.9C1355.5 421.2 1355 420.7 1354.3 420.7C1353.6 420.7 1353.1 421.2 1353.1 421.9C1353 422.5 1353.6 423.1 1354.3 423.1Z" fill="#90A5D1"/>
<path d="M1381.8 422.8C1382.3 422.8 1382.8 422.4 1382.8 421.8C1382.8 421.2 1382.4 420.8 1381.8 420.8C1381.2 420.8 1380.8 421.2 1380.8 421.8C1380.8 422.4 1381.3 422.8 1381.8 422.8Z" fill="#90A5D1"/>
<path d="M1409.3 422.6C1409.7 422.6 1410 422.3 1410 421.9C1410 421.5 1409.7 421.2 1409.3 421.2C1408.9 421.2 1408.6 421.5 1408.6 421.9C1408.6 422.2 1409 422.6 1409.3 422.6Z" fill="#90A5D1"/>
<path d="M1436.9 422.3C1437.2 422.3 1437.4 422.1 1437.4 421.8C1437.4 421.5 1437.2 421.3 1436.9 421.3C1436.6 421.3 1436.4 421.5 1436.4 421.8C1436.4 422.1 1436.6 422.3 1436.9 422.3Z" fill="#90A5D1"/>
<path d="M1078.8 452.8C1080.9 452.8 1082.6 451.1 1082.6 449C1082.6 446.9 1080.9 445.2 1078.8 445.2C1076.7 445.2 1075 446.9 1075 449C1075 451.1 1076.7 452.8 1078.8 452.8Z" fill="#90A5D1"/>
<path d="M1106.4 452.5C1108.4 452.5 1109.9 450.9 1109.9 449C1109.9 447 1108.3 445.5 1106.4 445.5C1104.4 445.5 1102.9 447.1 1102.9 449C1102.8 450.9 1104.4 452.5 1106.4 452.5Z" fill="#90A5D1"/>
<path d="M1133.9 452.2C1135.7 452.2 1137.2 450.7 1137.2 448.9C1137.2 447.1 1135.7 445.6 1133.9 445.6C1132.1 445.6 1130.6 447.1 1130.6 448.9C1130.6 450.8 1132.1 452.2 1133.9 452.2Z" fill="#90A5D1"/>
<path d="M1161.4 452C1163.1 452 1164.4 450.6 1164.4 449C1164.4 447.3 1163 446 1161.4 446C1159.8 446 1158.4 447.4 1158.4 449C1158.4 450.6 1159.8 452 1161.4 452Z" fill="#90A5D1"/>
<path d="M1189 451.7C1190.5 451.7 1191.8 450.5 1191.8 448.9C1191.8 447.4 1190.6 446.1 1189 446.1C1187.5 446.1 1186.2 447.3 1186.2 448.9C1186.2 450.5 1187.5 451.7 1189 451.7Z" fill="#90A5D1"/>
<path d="M1216.5 451.5C1217.9 451.5 1219 450.4 1219 449C1219 447.6 1217.9 446.5 1216.5 446.5C1215.1 446.5 1214 447.6 1214 449C1214 450.4 1215.1 451.5 1216.5 451.5Z" fill="#90A5D1"/>
<path d="M1244.1 451.2C1245.3 451.2 1246.4 450.2 1246.4 448.9C1246.4 447.7 1245.4 446.6 1244.1 446.6C1242.9 446.6 1241.8 447.6 1241.8 448.9C1241.8 450.2 1242.8 451.2 1244.1 451.2Z" fill="#90A5D1"/>
<path d="M1271.6 450.9C1272.7 450.9 1273.6 450 1273.6 448.9C1273.6 447.8 1272.7 446.9 1271.6 446.9C1270.5 446.9 1269.6 447.8 1269.6 448.9C1269.6 450 1270.5 450.9 1271.6 450.9Z" fill="#90A5D1"/>
<path d="M1299.2 450.7C1300.2 450.7 1300.9 449.9 1300.9 449C1300.9 448 1300.1 447.3 1299.2 447.3C1298.2 447.3 1297.5 448.1 1297.5 449C1297.4 449.9 1298.2 450.7 1299.2 450.7Z" fill="#90A5D1"/>
<path d="M1326.7 450.4C1327.5 450.4 1328.2 449.7 1328.2 448.9C1328.2 448.1 1327.5 447.4 1326.7 447.4C1325.9 447.4 1325.2 448.1 1325.2 448.9C1325.2 449.7 1325.9 450.4 1326.7 450.4Z" fill="#90A5D1"/>
<path d="M1354.3 450.1C1355 450.1 1355.5 449.6 1355.5 448.9C1355.5 448.2 1355 447.7 1354.3 447.7C1353.6 447.7 1353.1 448.2 1353.1 448.9C1353 449.6 1353.6 450.1 1354.3 450.1Z" fill="#90A5D1"/>
<path d="M1381.8 449.9C1382.3 449.9 1382.8 449.5 1382.8 448.9C1382.8 448.4 1382.4 447.9 1381.8 447.9C1381.2 447.9 1380.8 448.3 1380.8 448.9C1380.8 449.4 1381.3 449.9 1381.8 449.9Z" fill="#90A5D1"/>
<path d="M1409.3 449.6C1409.7 449.6 1410 449.3 1410 448.9C1410 448.5 1409.7 448.2 1409.3 448.2C1408.9 448.2 1408.6 448.5 1408.6 448.9C1408.6 449.3 1409 449.6 1409.3 449.6Z" fill="#90A5D1"/>
<path d="M1436.9 449.4C1437.2 449.4 1437.4 449.2 1437.4 448.9C1437.4 448.6 1437.2 448.4 1436.9 448.4C1436.6 448.4 1436.4 448.6 1436.4 448.9C1436.4 449.2 1436.6 449.4 1436.9 449.4Z" fill="#90A5D1"/>
<path d="M1078.8 479.8C1080.9 479.8 1082.6 478.1 1082.6 476C1082.6 473.9 1080.9 472.2 1078.8 472.2C1076.7 472.2 1075 473.9 1075 476C1075 478.1 1076.7 479.8 1078.8 479.8Z" fill="#90A5D1"/>
<path d="M1106.4 479.6C1108.4 479.6 1109.9 478 1109.9 476.1C1109.9 474.1 1108.3 472.6 1106.4 472.6C1104.4 472.6 1102.9 474.2 1102.9 476.1C1102.8 478 1104.4 479.6 1106.4 479.6Z" fill="#90A5D1"/>
<path d="M1133.9 479.3C1135.7 479.3 1137.2 477.8 1137.2 476C1137.2 474.2 1135.7 472.7 1133.9 472.7C1132.1 472.7 1130.6 474.2 1130.6 476C1130.6 477.8 1132.1 479.3 1133.9 479.3Z" fill="#90A5D1"/>
<path d="M1161.4 479C1163.1 479 1164.4 477.6 1164.4 476C1164.4 474.3 1163 473 1161.4 473C1159.8 473 1158.4 474.4 1158.4 476C1158.4 477.7 1159.8 479 1161.4 479Z" fill="#90A5D1"/>
<path d="M1189 478.8C1190.5 478.8 1191.8 477.6 1191.8 476C1191.8 474.5 1190.6 473.2 1189 473.2C1187.5 473.2 1186.2 474.4 1186.2 476C1186.2 477.5 1187.5 478.8 1189 478.8Z" fill="#90A5D1"/>
<path d="M1216.5 478.5C1217.9 478.5 1219 477.4 1219 476C1219 474.6 1217.9 473.5 1216.5 473.5C1215.1 473.5 1214 474.6 1214 476C1214 477.4 1215.1 478.5 1216.5 478.5Z" fill="#90A5D1"/>
<path d="M1244.1 478.3C1245.3 478.3 1246.4 477.3 1246.4 476C1246.4 474.8 1245.4 473.7 1244.1 473.7C1242.9 473.7 1241.8 474.7 1241.8 476C1241.8 477.2 1242.8 478.3 1244.1 478.3Z" fill="#90A5D1"/>
<path d="M1271.6 478C1272.7 478 1273.6 477.1 1273.6 476C1273.6 474.9 1272.7 474 1271.6 474C1270.5 474 1269.6 474.9 1269.6 476C1269.6 477.1 1270.5 478 1271.6 478Z" fill="#90A5D1"/>
<path d="M1299.2 477.7C1300.2 477.7 1300.9 476.9 1300.9 476C1300.9 475 1300.1 474.3 1299.2 474.3C1298.2 474.3 1297.5 475.1 1297.5 476C1297.4 477 1298.2 477.7 1299.2 477.7Z" fill="#90A5D1"/>
<path d="M1326.7 477.5C1327.5 477.5 1328.2 476.8 1328.2 476C1328.2 475.2 1327.5 474.5 1326.7 474.5C1325.9 474.5 1325.2 475.2 1325.2 476C1325.2 476.8 1325.9 477.5 1326.7 477.5Z" fill="#90A5D1"/>
<path d="M1354.3 477.2C1355 477.2 1355.5 476.7 1355.5 476C1355.5 475.3 1355 474.8 1354.3 474.8C1353.6 474.8 1353.1 475.3 1353.1 476C1353.1 476.7 1353.6 477.2 1354.3 477.2Z" fill="#90A5D1"/>
<path d="M1381.8 476.9C1382.3 476.9 1382.8 476.5 1382.8 475.9C1382.8 475.4 1382.4 474.9 1381.8 474.9C1381.2 474.9 1380.8 475.3 1380.8 475.9C1380.8 476.5 1381.3 476.9 1381.8 476.9Z" fill="#90A5D1"/>
<path d="M1409.3 476.7C1409.7 476.7 1410 476.4 1410 476C1410 475.6 1409.7 475.3 1409.3 475.3C1408.9 475.3 1408.6 475.6 1408.6 476C1408.6 476.4 1409 476.7 1409.3 476.7Z" fill="#90A5D1"/>
<path d="M1436.9 476.4C1437.2 476.4 1437.4 476.2 1437.4 475.9C1437.4 475.6 1437.2 475.4 1436.9 475.4C1436.6 475.4 1436.4 475.6 1436.4 475.9C1436.4 476.2 1436.6 476.4 1436.9 476.4Z" fill="#90A5D1"/>
<path d="M1078.8 506.9C1080.9 506.9 1082.6 505.2 1082.6 503.1C1082.6 501 1080.9 499.3 1078.8 499.3C1076.7 499.3 1075 501 1075 503.1C1075 505.2 1076.7 506.9 1078.8 506.9Z" fill="#90A5D1"/>
<path d="M1106.4 506.6C1108.4 506.6 1109.9 505 1109.9 503.1C1109.9 501.1 1108.3 499.6 1106.4 499.6C1104.4 499.6 1102.9 501.2 1102.9 503.1C1102.8 505 1104.4 506.6 1106.4 506.6Z" fill="#90A5D1"/>
<path d="M1133.9 506.4C1135.7 506.4 1137.2 504.9 1137.2 503.1C1137.2 501.3 1135.7 499.8 1133.9 499.8C1132.1 499.8 1130.6 501.3 1130.6 503.1C1130.6 504.9 1132.1 506.4 1133.9 506.4Z" fill="#90A5D1"/>
<path d="M1161.4 506.1C1163.1 506.1 1164.4 504.7 1164.4 503.1C1164.4 501.5 1163 500.1 1161.4 500.1C1159.8 500.1 1158.4 501.5 1158.4 503.1C1158.4 504.7 1159.8 506.1 1161.4 506.1Z" fill="#90A5D1"/>
<path d="M1189 505.8C1190.5 505.8 1191.8 504.6 1191.8 503C1191.8 501.5 1190.6 500.2 1189 500.2C1187.5 500.2 1186.2 501.4 1186.2 503C1186.2 504.6 1187.5 505.8 1189 505.8Z" fill="#90A5D1"/>
<path d="M1216.5 505.6C1217.9 505.6 1219 504.5 1219 503.1C1219 501.7 1217.9 500.6 1216.5 500.6C1215.1 500.6 1214 501.7 1214 503.1C1214 504.5 1215.1 505.6 1216.5 505.6Z" fill="#90A5D1"/>
<path d="M1244.1 505.3C1245.3 505.3 1246.4 504.3 1246.4 503C1246.4 501.8 1245.4 500.7 1244.1 500.7C1242.9 500.7 1241.8 501.7 1241.8 503C1241.8 504.3 1242.8 505.3 1244.1 505.3Z" fill="#90A5D1"/>
<path d="M1271.6 505.1C1272.7 505.1 1273.6 504.2 1273.6 503.1C1273.6 502 1272.7 501.1 1271.6 501.1C1270.5 501.1 1269.6 502 1269.6 503.1C1269.6 504.2 1270.5 505.1 1271.6 505.1Z" fill="#90A5D1"/>
<path d="M1299.2 504.8C1300.2 504.8 1300.9 504 1300.9 503.1C1300.9 502.1 1300.1 501.4 1299.2 501.4C1298.2 501.4 1297.5 502.2 1297.5 503.1C1297.4 504 1298.2 504.8 1299.2 504.8Z" fill="#90A5D1"/>
<path d="M1326.7 504.5C1327.5 504.5 1328.2 503.8 1328.2 503C1328.2 502.2 1327.5 501.5 1326.7 501.5C1325.9 501.5 1325.2 502.2 1325.2 503C1325.2 503.9 1325.9 504.5 1326.7 504.5Z" fill="#90A5D1"/>
<path d="M1354.3 504.3C1355 504.3 1355.5 503.8 1355.5 503.1C1355.5 502.4 1355 501.9 1354.3 501.9C1353.6 501.9 1353.1 502.4 1353.1 503.1C1353.1 503.8 1353.6 504.3 1354.3 504.3Z" fill="#90A5D1"/>
<path d="M1381.8 504C1382.3 504 1382.8 503.6 1382.8 503C1382.8 502.5 1382.4 502 1381.8 502C1381.2 502 1380.8 502.4 1380.8 503C1380.8 503.6 1381.3 504 1381.8 504Z" fill="#90A5D1"/>
<path d="M1409.3 503.7C1409.7 503.7 1410 503.4 1410 503C1410 502.6 1409.7 502.3 1409.3 502.3C1408.9 502.3 1408.6 502.6 1408.6 503C1408.6 503.4 1409 503.7 1409.3 503.7Z" fill="#90A5D1"/>
<path d="M1436.9 503.5C1437.2 503.5 1437.4 503.3 1437.4 503C1437.4 502.7 1437.2 502.5 1436.9 502.5C1436.6 502.5 1436.4 502.7 1436.4 503C1436.4 503.3 1436.6 503.5 1436.9 503.5Z" fill="#90A5D1"/>
<path d="M1078.8 534C1080.9 534 1082.6 532.3 1082.6 530.2C1082.6 528.1 1080.9 526.4 1078.8 526.4C1076.7 526.4 1075 528.1 1075 530.2C1075 532.3 1076.7 534 1078.8 534Z" fill="#90A5D1"/>
<path d="M1106.4 533.7C1108.4 533.7 1109.9 532.1 1109.9 530.2C1109.9 528.3 1108.3 526.7 1106.4 526.7C1104.4 526.7 1102.9 528.3 1102.9 530.2C1102.9 532.1 1104.4 533.7 1106.4 533.7Z" fill="#90A5D1"/>
<path d="M1133.9 533.4C1135.7 533.4 1137.2 531.9 1137.2 530.1C1137.2 528.3 1135.7 526.8 1133.9 526.8C1132.1 526.8 1130.6 528.3 1130.6 530.1C1130.6 532 1132.1 533.4 1133.9 533.4Z" fill="#90A5D1"/>
<path d="M1161.4 533.2C1163.1 533.2 1164.4 531.8 1164.4 530.2C1164.4 528.6 1163 527.2 1161.4 527.2C1159.8 527.2 1158.4 528.6 1158.4 530.2C1158.4 531.8 1159.8 533.2 1161.4 533.2Z" fill="#90A5D1"/>
<path d="M1189 532.9C1190.5 532.9 1191.8 531.7 1191.8 530.1C1191.8 528.6 1190.6 527.3 1189 527.3C1187.5 527.3 1186.2 528.5 1186.2 530.1C1186.2 531.7 1187.5 532.9 1189 532.9Z" fill="#90A5D1"/>
<path d="M1216.5 532.6C1217.9 532.6 1219 531.5 1219 530.1C1219 528.7 1217.9 527.6 1216.5 527.6C1215.1 527.6 1214 528.7 1214 530.1C1214 531.5 1215.1 532.6 1216.5 532.6Z" fill="#90A5D1"/>
<path d="M1244.1 532.4C1245.3 532.4 1246.4 531.4 1246.4 530.1C1246.4 528.9 1245.4 527.8 1244.1 527.8C1242.9 527.8 1241.8 528.8 1241.8 530.1C1241.8 531.4 1242.8 532.4 1244.1 532.4Z" fill="#90A5D1"/>
<path d="M1271.6 532.1C1272.7 532.1 1273.6 531.2 1273.6 530.1C1273.6 529 1272.7 528.1 1271.6 528.1C1270.5 528.1 1269.6 529 1269.6 530.1C1269.6 531.2 1270.5 532.1 1271.6 532.1Z" fill="#90A5D1"/>
<path d="M1299.2 531.9C1300.2 531.9 1300.9 531.1 1300.9 530.2C1300.9 529.2 1300.1 528.5 1299.2 528.5C1298.2 528.5 1297.5 529.3 1297.5 530.2C1297.4 531.1 1298.2 531.9 1299.2 531.9Z" fill="#90A5D1"/>
<path d="M1326.7 531.6C1327.5 531.6 1328.2 530.9 1328.2 530.1C1328.2 529.3 1327.5 528.6 1326.7 528.6C1325.9 528.6 1325.2 529.3 1325.2 530.1C1325.2 530.9 1325.9 531.6 1326.7 531.6Z" fill="#90A5D1"/>
<path d="M1354.3 531.3C1355 531.3 1355.5 530.8 1355.5 530.1C1355.5 529.4 1355 528.9 1354.3 528.9C1353.6 528.9 1353.1 529.4 1353.1 530.1C1353 530.8 1353.6 531.3 1354.3 531.3Z" fill="#90A5D1"/>
<path d="M1381.8 531.1C1382.3 531.1 1382.8 530.7 1382.8 530.1C1382.8 529.6 1382.4 529.1 1381.8 529.1C1381.2 529.1 1380.8 529.5 1380.8 530.1C1380.8 530.6 1381.3 531.1 1381.8 531.1Z" fill="#90A5D1"/>
<path d="M1409.3 530.8C1409.7 530.8 1410 530.5 1410 530.1C1410 529.7 1409.7 529.4 1409.3 529.4C1408.9 529.4 1408.6 529.7 1408.6 530.1C1408.6 530.5 1409 530.8 1409.3 530.8Z" fill="#90A5D1"/>
<path d="M1436.9 530.5C1437.2 530.5 1437.4 530.3 1437.4 530C1437.4 529.7 1437.2 529.5 1436.9 529.5C1436.6 529.5 1436.4 529.7 1436.4 530C1436.4 530.3 1436.6 530.5 1436.9 530.5Z" fill="#90A5D1"/>
<path d="M1078.8 561C1080.9 561 1082.6 559.3 1082.6 557.2C1082.6 555.1 1080.9 553.4 1078.8 553.4C1076.7 553.4 1075 555.1 1075 557.2C1075 559.3 1076.7 561 1078.8 561Z" fill="#90A5D1"/>
<path d="M1106.4 560.8C1108.4 560.8 1109.9 559.2 1109.9 557.3C1109.9 555.3 1108.3 553.8 1106.4 553.8C1104.4 553.8 1102.9 555.4 1102.9 557.3C1102.8 559.2 1104.4 560.8 1106.4 560.8Z" fill="#90A5D1"/>
<path d="M1133.9 560.5C1135.7 560.5 1137.2 559 1137.2 557.2C1137.2 555.4 1135.7 553.9 1133.9 553.9C1132.1 553.9 1130.6 555.4 1130.6 557.2C1130.6 559 1132.1 560.5 1133.9 560.5Z" fill="#90A5D1"/>
<path d="M1161.4 560.2C1163.1 560.2 1164.4 558.8 1164.4 557.2C1164.4 555.6 1163 554.2 1161.4 554.2C1159.8 554.2 1158.4 555.6 1158.4 557.2C1158.4 558.8 1159.8 560.2 1161.4 560.2Z" fill="#90A5D1"/>
<path d="M1189 560C1190.5 560 1191.8 558.8 1191.8 557.2C1191.8 555.7 1190.6 554.4 1189 554.4C1187.5 554.4 1186.2 555.6 1186.2 557.2C1186.2 558.7 1187.5 560 1189 560Z" fill="#90A5D1"/>
<path d="M1216.5 559.7C1217.9 559.7 1219 558.6 1219 557.2C1219 555.8 1217.9 554.7 1216.5 554.7C1215.1 554.7 1214 555.8 1214 557.2C1214 558.6 1215.1 559.7 1216.5 559.7Z" fill="#90A5D1"/>
<path d="M1244.1 559.4C1245.3 559.4 1246.4 558.4 1246.4 557.1C1246.4 555.9 1245.4 554.8 1244.1 554.8C1242.9 554.8 1241.8 555.8 1241.8 557.1C1241.8 558.4 1242.8 559.4 1244.1 559.4Z" fill="#90A5D1"/>
<path d="M1271.6 559.2C1272.7 559.2 1273.6 558.3 1273.6 557.2C1273.6 556.1 1272.7 555.2 1271.6 555.2C1270.5 555.2 1269.6 556.1 1269.6 557.2C1269.6 558.3 1270.5 559.2 1271.6 559.2Z" fill="#90A5D1"/>
<path d="M1299.2 558.9C1300.2 558.9 1300.9 558.1 1300.9 557.2C1300.9 556.2 1300.1 555.5 1299.2 555.5C1298.2 555.5 1297.5 556.3 1297.5 557.2C1297.4 558.1 1298.2 558.9 1299.2 558.9Z" fill="#90A5D1"/>
<path d="M1326.7 558.7C1327.5 558.7 1328.2 558 1328.2 557.2C1328.2 556.4 1327.5 555.7 1326.7 555.7C1325.9 555.7 1325.2 556.4 1325.2 557.2C1325.2 558 1325.9 558.7 1326.7 558.7Z" fill="#90A5D1"/>
<path d="M1354.3 558.4C1355 558.4 1355.5 557.9 1355.5 557.2C1355.5 556.5 1355 556 1354.3 556C1353.6 556 1353.1 556.5 1353.1 557.2C1353 557.8 1353.6 558.4 1354.3 558.4Z" fill="#90A5D1"/>
<path d="M1381.8 558.1C1382.3 558.1 1382.8 557.7 1382.8 557.1C1382.8 556.6 1382.4 556.1 1381.8 556.1C1381.2 556.1 1380.8 556.5 1380.8 557.1C1380.8 557.7 1381.3 558.1 1381.8 558.1Z" fill="#90A5D1"/>
<path d="M1409.3 557.9C1409.7 557.9 1410 557.6 1410 557.2C1410 556.8 1409.7 556.5 1409.3 556.5C1408.9 556.5 1408.6 556.8 1408.6 557.2C1408.6 557.5 1409 557.9 1409.3 557.9Z" fill="#90A5D1"/>
<path d="M1436.9 557.6C1437.2 557.6 1437.4 557.4 1437.4 557.1C1437.4 556.8 1437.2 556.6 1436.9 556.6C1436.6 556.6 1436.4 556.8 1436.4 557.1C1436.4 557.4 1436.6 557.6 1436.9 557.6Z" fill="#90A5D1"/>
<path d="M1078.8 588.1C1080.9 588.1 1082.6 586.4 1082.6 584.3C1082.6 582.2 1080.9 580.5 1078.8 580.5C1076.7 580.5 1075 582.2 1075 584.3C1075 586.4 1076.7 588.1 1078.8 588.1Z" fill="#90A5D1"/>
<path d="M1106.4 587.8C1108.4 587.8 1109.9 586.2 1109.9 584.3C1109.9 582.3 1108.3 580.8 1106.4 580.8C1104.4 580.8 1102.9 582.4 1102.9 584.3C1102.8 586.2 1104.4 587.8 1106.4 587.8Z" fill="#90A5D1"/>
<path d="M1133.9 587.6C1135.7 587.6 1137.2 586.1 1137.2 584.3C1137.2 582.5 1135.7 581 1133.9 581C1132.1 581 1130.6 582.5 1130.6 584.3C1130.6 586.1 1132.1 587.6 1133.9 587.6Z" fill="#90A5D1"/>
<path d="M1161.4 587.3C1163.1 587.3 1164.4 585.9 1164.4 584.3C1164.4 582.6 1163 581.3 1161.4 581.3C1159.8 581.3 1158.4 582.7 1158.4 584.3C1158.4 585.9 1159.8 587.3 1161.4 587.3Z" fill="#90A5D1"/>
<path d="M1189 587C1190.5 587 1191.8 585.8 1191.8 584.2C1191.8 582.7 1190.6 581.4 1189 581.4C1187.5 581.4 1186.2 582.6 1186.2 584.2C1186.2 585.8 1187.5 587 1189 587Z" fill="#90A5D1"/>
<path d="M1216.5 586.8C1217.9 586.8 1219 585.7 1219 584.3C1219 582.9 1217.9 581.8 1216.5 581.8C1215.1 581.8 1214 582.9 1214 584.3C1214 585.6 1215.1 586.8 1216.5 586.8Z" fill="#90A5D1"/>
<path d="M1244.1 586.5C1245.3 586.5 1246.4 585.5 1246.4 584.2C1246.4 583 1245.4 581.9 1244.1 581.9C1242.9 581.9 1241.8 582.9 1241.8 584.2C1241.8 585.5 1242.8 586.5 1244.1 586.5Z" fill="#90A5D1"/>
<path d="M1271.6 586.2C1272.7 586.2 1273.6 585.3 1273.6 584.2C1273.6 583.1 1272.7 582.2 1271.6 582.2C1270.5 582.2 1269.6 583.1 1269.6 584.2C1269.6 585.3 1270.5 586.2 1271.6 586.2Z" fill="#90A5D1"/>
<path d="M1299.2 586C1300.2 586 1300.9 585.2 1300.9 584.3C1300.9 583.3 1300.1 582.6 1299.2 582.6C1298.2 582.6 1297.5 583.4 1297.5 584.3C1297.4 585.2 1298.2 586 1299.2 586Z" fill="#90A5D1"/>
<path d="M1326.7 585.7C1327.5 585.7 1328.2 585 1328.2 584.2C1328.2 583.4 1327.5 582.7 1326.7 582.7C1325.9 582.7 1325.2 583.4 1325.2 584.2C1325.2 585 1325.9 585.7 1326.7 585.7Z" fill="#90A5D1"/>
<path d="M1354.3 585.4C1355 585.4 1355.5 584.9 1355.5 584.2C1355.5 583.5 1355 583 1354.3 583C1353.6 583 1353.1 583.5 1353.1 584.2C1353 584.9 1353.6 585.4 1354.3 585.4Z" fill="#90A5D1"/>
<path d="M1381.8 585.2C1382.3 585.2 1382.8 584.8 1382.8 584.2C1382.8 583.7 1382.4 583.2 1381.8 583.2C1381.2 583.2 1380.8 583.6 1380.8 584.2C1380.8 584.7 1381.3 585.2 1381.8 585.2Z" fill="#90A5D1"/>
<path d="M1409.3 584.9C1409.7 584.9 1410 584.6 1410 584.2C1410 583.8 1409.7 583.5 1409.3 583.5C1408.9 583.5 1408.6 583.8 1408.6 584.2C1408.6 584.6 1409 584.9 1409.3 584.9Z" fill="#90A5D1"/>
<path d="M1436.9 584.7C1437.2 584.7 1437.4 584.5 1437.4 584.2C1437.4 583.9 1437.2 583.7 1436.9 583.7C1436.6 583.7 1436.4 583.9 1436.4 584.2C1436.4 584.5 1436.6 584.7 1436.9 584.7Z" fill="#90A5D1"/>
<path d="M1078.8 615.1C1080.9 615.1 1082.6 613.4 1082.6 611.3C1082.6 609.2 1080.9 607.5 1078.8 607.5C1076.7 607.5 1075 609.2 1075 611.3C1075 613.4 1076.7 615.1 1078.8 615.1Z" fill="#90A5D1"/>
<path d="M1106.4 614.9C1108.4 614.9 1109.9 613.3 1109.9 611.4C1109.9 609.4 1108.3 607.9 1106.4 607.9C1104.4 607.9 1102.9 609.5 1102.9 611.4C1102.8 613.3 1104.4 614.9 1106.4 614.9Z" fill="#90A5D1"/>
<path d="M1133.9 614.6C1135.7 614.6 1137.2 613.1 1137.2 611.3C1137.2 609.5 1135.7 608 1133.9 608C1132.1 608 1130.6 609.5 1130.6 611.3C1130.6 613.1 1132.1 614.6 1133.9 614.6Z" fill="#90A5D1"/>
<path d="M1161.4 614.4C1163.1 614.4 1164.4 613 1164.4 611.4C1164.4 609.7 1163 608.4 1161.4 608.4C1159.8 608.4 1158.4 609.8 1158.4 611.4C1158.4 613 1159.8 614.4 1161.4 614.4Z" fill="#90A5D1"/>
<path d="M1189 614.1C1190.5 614.1 1191.8 612.9 1191.8 611.3C1191.8 609.8 1190.6 608.5 1189 608.5C1187.5 608.5 1186.2 609.7 1186.2 611.3C1186.2 612.8 1187.5 614.1 1189 614.1Z" fill="#90A5D1"/>
<path d="M1216.5 613.8C1217.9 613.8 1219 612.7 1219 611.3C1219 609.9 1217.9 608.8 1216.5 608.8C1215.1 608.8 1214 609.9 1214 611.3C1214 612.7 1215.1 613.8 1216.5 613.8Z" fill="#90A5D1"/>
<path d="M1244.1 613.6C1245.3 613.6 1246.4 612.6 1246.4 611.3C1246.4 610.1 1245.4 609 1244.1 609C1242.9 609 1241.8 610 1241.8 611.3C1241.8 612.6 1242.8 613.6 1244.1 613.6Z" fill="#90A5D1"/>
<path d="M1271.6 613.3C1272.7 613.3 1273.6 612.4 1273.6 611.3C1273.6 610.2 1272.7 609.3 1271.6 609.3C1270.5 609.3 1269.6 610.2 1269.6 611.3C1269.6 612.4 1270.5 613.3 1271.6 613.3Z" fill="#90A5D1"/>
<path d="M1299.2 613C1300.2 613 1300.9 612.2 1300.9 611.3C1300.9 610.3 1300.1 609.6 1299.2 609.6C1298.2 609.6 1297.5 610.4 1297.5 611.3C1297.4 612.3 1298.2 613 1299.2 613Z" fill="#90A5D1"/>
<path d="M1326.7 612.8C1327.5 612.8 1328.2 612.1 1328.2 611.3C1328.2 610.5 1327.5 609.8 1326.7 609.8C1325.9 609.8 1325.2 610.5 1325.2 611.3C1325.2 612.1 1325.9 612.8 1326.7 612.8Z" fill="#90A5D1"/>
<path d="M1354.3 612.5C1355 612.5 1355.5 612 1355.5 611.3C1355.5 610.6 1355 610.1 1354.3 610.1C1353.6 610.1 1353.1 610.6 1353.1 611.3C1353 612 1353.6 612.5 1354.3 612.5Z" fill="#90A5D1"/>
<path d="M1381.8 612.2C1382.3 612.2 1382.8 611.8 1382.8 611.2C1382.8 610.7 1382.4 610.2 1381.8 610.2C1381.2 610.2 1380.8 610.6 1380.8 611.2C1380.8 611.8 1381.3 612.2 1381.8 612.2Z" fill="#90A5D1"/>
<path d="M1409.3 612C1409.7 612 1410 611.7 1410 611.3C1410 610.9 1409.7 610.6 1409.3 610.6C1408.9 610.6 1408.6 610.9 1408.6 611.3C1408.6 611.7 1409 612 1409.3 612Z" fill="#90A5D1"/>
<path d="M1436.9 611.7C1437.2 611.7 1437.4 611.5 1437.4 611.2C1437.4 610.9 1437.2 610.7 1436.9 610.7C1436.6 610.7 1436.4 610.9 1436.4 611.2C1436.4 611.5 1436.6 611.7 1436.9 611.7Z" fill="#90A5D1"/>
<path d="M1078.8 642.2C1080.9 642.2 1082.6 640.5 1082.6 638.4C1082.6 636.3 1080.9 634.6 1078.8 634.6C1076.7 634.6 1075 636.3 1075 638.4C1075 640.5 1076.7 642.2 1078.8 642.2Z" fill="#90A5D1"/>
<path d="M1106.4 641.9C1108.4 641.9 1109.9 640.3 1109.9 638.4C1109.9 636.4 1108.3 634.9 1106.4 634.9C1104.4 634.9 1102.9 636.5 1102.9 638.4C1102.8 640.4 1104.4 641.9 1106.4 641.9Z" fill="#90A5D1"/>
<path d="M1133.9 641.7C1135.7 641.7 1137.2 640.2 1137.2 638.4C1137.2 636.6 1135.7 635.1 1133.9 635.1C1132.1 635.1 1130.6 636.6 1130.6 638.4C1130.6 640.2 1132.1 641.7 1133.9 641.7Z" fill="#90A5D1"/>
<path d="M1161.4 641.4C1163.1 641.4 1164.4 640 1164.4 638.4C1164.4 636.8 1163 635.4 1161.4 635.4C1159.8 635.4 1158.4 636.8 1158.4 638.4C1158.4 640 1159.8 641.4 1161.4 641.4Z" fill="#90A5D1"/>
<path d="M1189 641.2C1190.5 641.2 1191.8 640 1191.8 638.4C1191.8 636.9 1190.6 635.6 1189 635.6C1187.5 635.6 1186.2 636.8 1186.2 638.4C1186.2 639.9 1187.5 641.2 1189 641.2Z" fill="#90A5D1"/>
<path d="M1216.5 640.9C1217.9 640.9 1219 639.8 1219 638.4C1219 637 1217.9 635.9 1216.5 635.9C1215.1 635.9 1214 637 1214 638.4C1214 639.8 1215.1 640.9 1216.5 640.9Z" fill="#90A5D1"/>
<path d="M1244.1 640.6C1245.3 640.6 1246.4 639.6 1246.4 638.3C1246.4 637.1 1245.4 636 1244.1 636C1242.9 636 1241.8 637 1241.8 638.3C1241.8 639.6 1242.8 640.6 1244.1 640.6Z" fill="#90A5D1"/>
<path d="M1271.6 640.4C1272.7 640.4 1273.6 639.5 1273.6 638.4C1273.6 637.3 1272.7 636.4 1271.6 636.4C1270.5 636.4 1269.6 637.3 1269.6 638.4C1269.6 639.5 1270.5 640.4 1271.6 640.4Z" fill="#90A5D1"/>
<path d="M1299.2 640.1C1300.2 640.1 1300.9 639.3 1300.9 638.4C1300.9 637.4 1300.1 636.7 1299.2 636.7C1298.2 636.7 1297.5 637.5 1297.5 638.4C1297.4 639.3 1298.2 640.1 1299.2 640.1Z" fill="#90A5D1"/>
<path d="M1326.7 639.8C1327.5 639.8 1328.2 639.1 1328.2 638.3C1328.2 637.5 1327.5 636.8 1326.7 636.8C1325.9 636.8 1325.2 637.5 1325.2 638.3C1325.2 639.2 1325.9 639.8 1326.7 639.8Z" fill="#90A5D1"/>
<path d="M1354.3 639.6C1355 639.6 1355.5 639.1 1355.5 638.4C1355.5 637.7 1355 637.2 1354.3 637.2C1353.6 637.2 1353.1 637.7 1353.1 638.4C1353 639 1353.6 639.6 1354.3 639.6Z" fill="#90A5D1"/>
<path d="M1381.8 639.3C1382.3 639.3 1382.8 638.9 1382.8 638.3C1382.8 637.8 1382.4 637.3 1381.8 637.3C1381.2 637.3 1380.8 637.7 1380.8 638.3C1380.8 638.9 1381.3 639.3 1381.8 639.3Z" fill="#90A5D1"/>
<path d="M1409.3 639C1409.7 639 1410 638.7 1410 638.3C1410 637.9 1409.7 637.6 1409.3 637.6C1408.9 637.6 1408.6 637.9 1408.6 638.3C1408.6 638.7 1409 639 1409.3 639Z" fill="#90A5D1"/>
<path d="M1436.9 638.8C1437.2 638.8 1437.4 638.6 1437.4 638.3C1437.4 638 1437.2 637.8 1436.9 637.8C1436.6 637.8 1436.4 638 1436.4 638.3C1436.4 638.6 1436.6 638.8 1436.9 638.8Z" fill="#90A5D1"/>
<path d="M1078.8 669.3C1080.9 669.3 1082.6 667.6 1082.6 665.5C1082.6 663.4 1080.9 661.7 1078.8 661.7C1076.7 661.7 1075 663.4 1075 665.5C1075 667.6 1076.7 669.3 1078.8 669.3Z" fill="#90A5D1"/>
<path d="M1106.4 669C1108.4 669 1109.9 667.4 1109.9 665.5C1109.9 663.5 1108.3 662 1106.4 662C1104.4 662 1102.9 663.6 1102.9 665.5C1102.8 667.4 1104.4 669 1106.4 669Z" fill="#90A5D1"/>
<path d="M1133.9 668.7C1135.7 668.7 1137.2 667.2 1137.2 665.4C1137.2 663.6 1135.7 662.1 1133.9 662.1C1132.1 662.1 1130.6 663.6 1130.6 665.4C1130.6 667.3 1132.1 668.7 1133.9 668.7Z" fill="#90A5D1"/>
<path d="M1161.4 668.5C1163.1 668.5 1164.4 667.1 1164.4 665.5C1164.4 663.9 1163 662.5 1161.4 662.5C1159.8 662.5 1158.4 663.9 1158.4 665.5C1158.4 667.1 1159.8 668.5 1161.4 668.5Z" fill="#90A5D1"/>
<path d="M1189 668.2C1190.5 668.2 1191.8 667 1191.8 665.4C1191.8 663.9 1190.6 662.6 1189 662.6C1187.5 662.6 1186.2 663.8 1186.2 665.4C1186.2 667 1187.5 668.2 1189 668.2Z" fill="#90A5D1"/>
<path d="M1216.5 668C1217.9 668 1219 666.9 1219 665.5C1219 664.1 1217.9 663 1216.5 663C1215.1 663 1214 664.1 1214 665.5C1214 666.8 1215.1 668 1216.5 668Z" fill="#90A5D1"/>
<path d="M1244.1 667.7C1245.3 667.7 1246.4 666.7 1246.4 665.4C1246.4 664.2 1245.4 663.1 1244.1 663.1C1242.9 663.1 1241.8 664.1 1241.8 665.4C1241.8 666.7 1242.8 667.7 1244.1 667.7Z" fill="#90A5D1"/>
<path d="M1271.6 667.4C1272.7 667.4 1273.6 666.5 1273.6 665.4C1273.6 664.3 1272.7 663.4 1271.6 663.4C1270.5 663.4 1269.6 664.3 1269.6 665.4C1269.6 666.5 1270.5 667.4 1271.6 667.4Z" fill="#90A5D1"/>
<path d="M1299.2 667.2C1300.2 667.2 1300.9 666.4 1300.9 665.5C1300.9 664.5 1300.1 663.8 1299.2 663.8C1298.2 663.8 1297.5 664.6 1297.5 665.5C1297.4 666.4 1298.2 667.2 1299.2 667.2Z" fill="#90A5D1"/>
<path d="M1326.7 666.9C1327.5 666.9 1328.2 666.2 1328.2 665.4C1328.2 664.6 1327.5 663.9 1326.7 663.9C1325.9 663.9 1325.2 664.6 1325.2 665.4C1325.2 666.2 1325.9 666.9 1326.7 666.9Z" fill="#90A5D1"/>
<path d="M1354.3 666.6C1355 666.6 1355.5 666.1 1355.5 665.4C1355.5 664.7 1355 664.2 1354.3 664.2C1353.6 664.2 1353.1 664.7 1353.1 665.4C1353 666.1 1353.6 666.6 1354.3 666.6Z" fill="#90A5D1"/>
<path d="M1381.8 666.4C1382.3 666.4 1382.8 666 1382.8 665.4C1382.8 664.9 1382.4 664.4 1381.8 664.4C1381.2 664.4 1380.8 664.8 1380.8 665.4C1380.8 665.9 1381.3 666.4 1381.8 666.4Z" fill="#90A5D1"/>
<path d="M1409.3 666.1C1409.7 666.1 1410 665.8 1410 665.4C1410 665 1409.7 664.7 1409.3 664.7C1408.9 664.7 1408.6 665 1408.6 665.4C1408.6 665.8 1409 666.1 1409.3 666.1Z" fill="#90A5D1"/>
<path d="M1436.9 665.8C1437.2 665.8 1437.4 665.6 1437.4 665.3C1437.4 665 1437.2 664.8 1436.9 664.8C1436.6 664.8 1436.4 665 1436.4 665.3C1436.4 665.6 1436.6 665.8 1436.9 665.8Z" fill="#90A5D1"/>
<path d="M1078.8 697.5C1080.9 697.5 1082.6 695.8 1082.6 693.7C1082.6 691.6 1080.9 689.9 1078.8 689.9C1076.7 689.9 1075 691.6 1075 693.7C1075 695.8 1076.7 697.5 1078.8 697.5Z" fill="#90A5D1"/>
<path d="M1106.4 697.2C1108.4 697.2 1109.9 695.6 1109.9 693.7C1109.9 691.7 1108.3 690.2 1106.4 690.2C1104.4 690.2 1102.9 691.8 1102.9 693.7C1102.8 695.6 1104.4 697.2 1106.4 697.2Z" fill="#90A5D1"/>
<path d="M1133.9 696.9C1135.7 696.9 1137.2 695.4 1137.2 693.6C1137.2 691.8 1135.7 690.3 1133.9 690.3C1132.1 690.3 1130.6 691.8 1130.6 693.6C1130.6 695.5 1132.1 696.9 1133.9 696.9Z" fill="#90A5D1"/>
<path d="M1161.4 696.7C1163.1 696.7 1164.4 695.3 1164.4 693.7C1164.4 692.1 1163 690.7 1161.4 690.7C1159.8 690.7 1158.4 692.1 1158.4 693.7C1158.4 695.3 1159.8 696.7 1161.4 696.7Z" fill="#90A5D1"/>
<path d="M1189 696.4C1190.5 696.4 1191.8 695.2 1191.8 693.6C1191.8 692.1 1190.6 690.8 1189 690.8C1187.5 690.8 1186.2 692 1186.2 693.6C1186.2 695.2 1187.5 696.4 1189 696.4Z" fill="#90A5D1"/>
<path d="M1216.5 696.2C1217.9 696.2 1219 695.1 1219 693.7C1219 692.3 1217.9 691.2 1216.5 691.2C1215.1 691.2 1214 692.3 1214 693.7C1214 695 1215.1 696.2 1216.5 696.2Z" fill="#90A5D1"/>
<path d="M1244.1 695.9C1245.3 695.9 1246.4 694.9 1246.4 693.6C1246.4 692.4 1245.4 691.3 1244.1 691.3C1242.9 691.3 1241.8 692.3 1241.8 693.6C1241.8 694.9 1242.8 695.9 1244.1 695.9Z" fill="#90A5D1"/>
<path d="M1271.6 695.6C1272.7 695.6 1273.6 694.7 1273.6 693.6C1273.6 692.5 1272.7 691.6 1271.6 691.6C1270.5 691.6 1269.6 692.5 1269.6 693.6C1269.6 694.7 1270.5 695.6 1271.6 695.6Z" fill="#90A5D1"/>
<path d="M1299.2 695.4C1300.2 695.4 1300.9 694.6 1300.9 693.7C1300.9 692.7 1300.1 692 1299.2 692C1298.2 692 1297.5 692.8 1297.5 693.7C1297.4 694.6 1298.2 695.4 1299.2 695.4Z" fill="#90A5D1"/>
<path d="M1326.7 695.1C1327.5 695.1 1328.2 694.4 1328.2 693.6C1328.2 692.8 1327.5 692.1 1326.7 692.1C1325.9 692.1 1325.2 692.8 1325.2 693.6C1325.2 694.4 1325.9 695.1 1326.7 695.1Z" fill="#90A5D1"/>
<path d="M1354.3 694.8C1355 694.8 1355.5 694.3 1355.5 693.6C1355.5 692.9 1355 692.4 1354.3 692.4C1353.6 692.4 1353.1 692.9 1353.1 693.6C1353 694.3 1353.6 694.8 1354.3 694.8Z" fill="#90A5D1"/>
<path d="M1381.8 694.6C1382.3 694.6 1382.8 694.2 1382.8 693.6C1382.8 693.1 1382.4 692.6 1381.8 692.6C1381.2 692.6 1380.8 693 1380.8 693.6C1380.8 694.1 1381.3 694.6 1381.8 694.6Z" fill="#90A5D1"/>
<path d="M1409.3 694.3C1409.7 694.3 1410 694 1410 693.6C1410 693.2 1409.7 692.9 1409.3 692.9C1408.9 692.9 1408.6 693.2 1408.6 693.6C1408.6 694 1409 694.3 1409.3 694.3Z" fill="#90A5D1"/>
<path d="M1436.9 694C1437.2 694 1437.4 693.8 1437.4 693.5C1437.4 693.2 1437.2 693 1436.9 693C1436.6 693 1436.4 693.2 1436.4 693.5C1436.4 693.8 1436.6 694 1436.9 694Z" fill="#90A5D1"/>
<path d="M1078.8 722C1080.9 722 1082.6 720.3 1082.6 718.2C1082.6 716.1 1080.9 714.4 1078.8 714.4C1076.7 714.4 1075 716.1 1075 718.2C1075 720.3 1076.7 722 1078.8 722Z" fill="#90A5D1"/>
<path d="M1106.4 721.8C1108.4 721.8 1109.9 720.2 1109.9 718.3C1109.9 716.3 1108.3 714.8 1106.4 714.8C1104.4 714.8 1102.9 716.4 1102.9 718.3C1102.8 720.2 1104.4 721.8 1106.4 721.8Z" fill="#90A5D1"/>
<path d="M1133.9 721.5C1135.7 721.5 1137.2 720 1137.2 718.2C1137.2 716.4 1135.7 714.9 1133.9 714.9C1132.1 714.9 1130.6 716.4 1130.6 718.2C1130.6 720 1132.1 721.5 1133.9 721.5Z" fill="#90A5D1"/>
<path d="M1161.4 721.2C1163.1 721.2 1164.4 719.8 1164.4 718.2C1164.4 716.6 1163 715.2 1161.4 715.2C1159.8 715.2 1158.4 716.6 1158.4 718.2C1158.4 719.8 1159.8 721.2 1161.4 721.2Z" fill="#90A5D1"/>
<path d="M1189 721C1190.5 721 1191.8 719.8 1191.8 718.2C1191.8 716.7 1190.6 715.4 1189 715.4C1187.5 715.4 1186.2 716.6 1186.2 718.2C1186.2 719.7 1187.5 721 1189 721Z" fill="#90A5D1"/>
<path d="M1216.5 720.7C1217.9 720.7 1219 719.6 1219 718.2C1219 716.8 1217.9 715.7 1216.5 715.7C1215.1 715.7 1214 716.8 1214 718.2C1214 719.6 1215.1 720.7 1216.5 720.7Z" fill="#90A5D1"/>
<path d="M1244.1 720.4C1245.3 720.4 1246.4 719.4 1246.4 718.1C1246.4 716.9 1245.4 715.8 1244.1 715.8C1242.9 715.8 1241.8 716.8 1241.8 718.1C1241.8 719.4 1242.8 720.4 1244.1 720.4Z" fill="#90A5D1"/>
<path d="M1271.6 720.2C1272.7 720.2 1273.6 719.3 1273.6 718.2C1273.6 717.1 1272.7 716.2 1271.6 716.2C1270.5 716.2 1269.6 717.1 1269.6 718.2C1269.6 719.3 1270.5 720.2 1271.6 720.2Z" fill="#90A5D1"/>
<path d="M1299.2 719.9C1300.2 719.9 1300.9 719.1 1300.9 718.2C1300.9 717.2 1300.1 716.5 1299.2 716.5C1298.2 716.5 1297.5 717.3 1297.5 718.2C1297.4 719.1 1298.2 719.9 1299.2 719.9Z" fill="#90A5D1"/>
<path d="M1326.7 719.7C1327.5 719.7 1328.2 719 1328.2 718.2C1328.2 717.4 1327.5 716.7 1326.7 716.7C1325.9 716.7 1325.2 717.4 1325.2 718.2C1325.2 719 1325.9 719.7 1326.7 719.7Z" fill="#90A5D1"/>
<path d="M1354.3 719.4C1355 719.4 1355.5 718.9 1355.5 718.2C1355.5 717.5 1355 717 1354.3 717C1353.6 717 1353.1 717.5 1353.1 718.2C1353 718.8 1353.6 719.4 1354.3 719.4Z" fill="#90A5D1"/>
<path d="M1381.8 719.1C1382.3 719.1 1382.8 718.7 1382.8 718.1C1382.8 717.6 1382.4 717.1 1381.8 717.1C1381.2 717.1 1380.8 717.5 1380.8 718.1C1380.8 718.7 1381.3 719.1 1381.8 719.1Z" fill="#90A5D1"/>
<path d="M1409.3 718.9C1409.7 718.9 1410 718.6 1410 718.2C1410 717.8 1409.7 717.5 1409.3 717.5C1408.9 717.5 1408.6 717.8 1408.6 718.2C1408.6 718.5 1409 718.9 1409.3 718.9Z" fill="#90A5D1"/>
<path d="M1436.9 718.6C1437.2 718.6 1437.4 718.4 1437.4 718.1C1437.4 717.8 1437.2 717.6 1436.9 717.6C1436.6 717.6 1436.4 717.8 1436.4 718.1C1436.4 718.4 1436.6 718.6 1436.9 718.6Z" fill="#90A5D1"/>
<path d="M1078.8 749.1C1080.9 749.1 1082.6 747.4 1082.6 745.3C1082.6 743.2 1080.9 741.5 1078.8 741.5C1076.7 741.5 1075 743.2 1075 745.3C1075 747.4 1076.7 749.1 1078.8 749.1Z" fill="#90A5D1"/>
<path d="M1106.4 748.8C1108.4 748.8 1109.9 747.2 1109.9 745.3C1109.9 743.3 1108.3 741.8 1106.4 741.8C1104.4 741.8 1102.9 743.4 1102.9 745.3C1102.8 747.2 1104.4 748.8 1106.4 748.8Z" fill="#90A5D1"/>
<path d="M1133.9 748.6C1135.7 748.6 1137.2 747.1 1137.2 745.3C1137.2 743.5 1135.7 742 1133.9 742C1132.1 742 1130.6 743.5 1130.6 745.3C1130.6 747.1 1132.1 748.6 1133.9 748.6Z" fill="#90A5D1"/>
<path d="M1161.4 748.3C1163.1 748.3 1164.4 746.9 1164.4 745.3C1164.4 743.6 1163 742.3 1161.4 742.3C1159.8 742.3 1158.4 743.7 1158.4 745.3C1158.4 746.9 1159.8 748.3 1161.4 748.3Z" fill="#90A5D1"/>
<path d="M1189 748C1190.5 748 1191.8 746.8 1191.8 745.2C1191.8 743.7 1190.6 742.4 1189 742.4C1187.5 742.4 1186.2 743.6 1186.2 745.2C1186.2 746.8 1187.5 748 1189 748Z" fill="#90A5D1"/>
<path d="M1216.5 747.8C1217.9 747.8 1219 746.7 1219 745.3C1219 743.9 1217.9 742.8 1216.5 742.8C1215.1 742.8 1214 743.9 1214 745.3C1214 746.6 1215.1 747.8 1216.5 747.8Z" fill="#90A5D1"/>
<path d="M1244.1 747.5C1245.3 747.5 1246.4 746.5 1246.4 745.2C1246.4 744 1245.4 742.9 1244.1 742.9C1242.9 742.9 1241.8 743.9 1241.8 745.2C1241.8 746.5 1242.8 747.5 1244.1 747.5Z" fill="#90A5D1"/>
<path d="M1271.6 747.2C1272.7 747.2 1273.6 746.3 1273.6 745.2C1273.6 744.1 1272.7 743.2 1271.6 743.2C1270.5 743.2 1269.6 744.1 1269.6 745.2C1269.6 746.3 1270.5 747.2 1271.6 747.2Z" fill="#90A5D1"/>
<path d="M1299.2 747C1300.2 747 1300.9 746.2 1300.9 745.3C1300.9 744.3 1300.1 743.6 1299.2 743.6C1298.2 743.6 1297.5 744.4 1297.5 745.3C1297.4 746.2 1298.2 747 1299.2 747Z" fill="#90A5D1"/>
<path d="M1326.7 746.7C1327.5 746.7 1328.2 746 1328.2 745.2C1328.2 744.4 1327.5 743.7 1326.7 743.7C1325.9 743.7 1325.2 744.4 1325.2 745.2C1325.2 746 1325.9 746.7 1326.7 746.7Z" fill="#90A5D1"/>
<path d="M1354.3 746.4C1355 746.4 1355.5 745.9 1355.5 745.2C1355.5 744.5 1355 744 1354.3 744C1353.6 744 1353.1 744.5 1353.1 745.2C1353 745.9 1353.6 746.4 1354.3 746.4Z" fill="#90A5D1"/>
<path d="M1381.8 746.2C1382.3 746.2 1382.8 745.8 1382.8 745.2C1382.8 744.7 1382.4 744.2 1381.8 744.2C1381.2 744.2 1380.8 744.6 1380.8 745.2C1380.8 745.7 1381.3 746.2 1381.8 746.2Z" fill="#90A5D1"/>
<path d="M1409.3 745.9C1409.7 745.9 1410 745.6 1410 745.2C1410 744.8 1409.7 744.5 1409.3 744.5C1408.9 744.5 1408.6 744.8 1408.6 745.2C1408.6 745.6 1409 745.9 1409.3 745.9Z" fill="#90A5D1"/>
<path d="M1436.9 745.7C1437.2 745.7 1437.4 745.5 1437.4 745.2C1437.4 744.9 1437.2 744.7 1436.9 744.7C1436.6 744.7 1436.4 744.9 1436.4 745.2C1436.4 745.5 1436.6 745.7 1436.9 745.7Z" fill="#90A5D1"/>
<path d="M1078.8 776.1C1080.9 776.1 1082.6 774.4 1082.6 772.3C1082.6 770.2 1080.9 768.5 1078.8 768.5C1076.7 768.5 1075 770.2 1075 772.3C1075 774.4 1076.7 776.1 1078.8 776.1Z" fill="#90A5D1"/>
<path d="M1106.4 775.9C1108.4 775.9 1109.9 774.3 1109.9 772.4C1109.9 770.4 1108.3 768.9 1106.4 768.9C1104.4 768.9 1102.9 770.5 1102.9 772.4C1102.8 774.3 1104.4 775.9 1106.4 775.9Z" fill="#90A5D1"/>
<path d="M1133.9 775.6C1135.7 775.6 1137.2 774.1 1137.2 772.3C1137.2 770.5 1135.7 769 1133.9 769C1132.1 769 1130.6 770.5 1130.6 772.3C1130.6 774.1 1132.1 775.6 1133.9 775.6Z" fill="#90A5D1"/>
<path d="M1161.4 775.4C1163.1 775.4 1164.4 774 1164.4 772.4C1164.4 770.7 1163 769.4 1161.4 769.4C1159.8 769.4 1158.4 770.8 1158.4 772.4C1158.4 774 1159.8 775.4 1161.4 775.4Z" fill="#90A5D1"/>
<path d="M1189 775.1C1190.5 775.1 1191.8 773.9 1191.8 772.3C1191.8 770.8 1190.6 769.5 1189 769.5C1187.5 769.5 1186.2 770.7 1186.2 772.3C1186.2 773.8 1187.5 775.1 1189 775.1Z" fill="#90A5D1"/>
<path d="M1216.5 774.8C1217.9 774.8 1219 773.7 1219 772.3C1219 770.9 1217.9 769.8 1216.5 769.8C1215.1 769.8 1214 770.9 1214 772.3C1214 773.7 1215.1 774.8 1216.5 774.8Z" fill="#90A5D1"/>
<path d="M1244.1 774.6C1245.3 774.6 1246.4 773.6 1246.4 772.3C1246.4 771.1 1245.4 770 1244.1 770C1242.9 770 1241.8 771 1241.8 772.3C1241.8 773.6 1242.8 774.6 1244.1 774.6Z" fill="#90A5D1"/>
<path d="M1271.6 774.3C1272.7 774.3 1273.6 773.4 1273.6 772.3C1273.6 771.2 1272.7 770.3 1271.6 770.3C1270.5 770.3 1269.6 771.2 1269.6 772.3C1269.6 773.4 1270.5 774.3 1271.6 774.3Z" fill="#90A5D1"/>
<path d="M1299.2 774C1300.2 774 1300.9 773.2 1300.9 772.3C1300.9 771.3 1300.1 770.6 1299.2 770.6C1298.2 770.6 1297.5 771.4 1297.5 772.3C1297.4 773.3 1298.2 774 1299.2 774Z" fill="#90A5D1"/>
<path d="M1326.7 773.8C1327.5 773.8 1328.2 773.1 1328.2 772.3C1328.2 771.5 1327.5 770.8 1326.7 770.8C1325.9 770.8 1325.2 771.5 1325.2 772.3C1325.2 773.1 1325.9 773.8 1326.7 773.8Z" fill="#90A5D1"/>
<path d="M1354.3 773.5C1355 773.5 1355.5 773 1355.5 772.3C1355.5 771.6 1355 771.1 1354.3 771.1C1353.6 771.1 1353.1 771.6 1353.1 772.3C1353 773 1353.6 773.5 1354.3 773.5Z" fill="#90A5D1"/>
<path d="M1381.8 773.2C1382.3 773.2 1382.8 772.8 1382.8 772.2C1382.8 771.7 1382.4 771.2 1381.8 771.2C1381.2 771.2 1380.8 771.6 1380.8 772.2C1380.8 772.8 1381.3 773.2 1381.8 773.2Z" fill="#90A5D1"/>
<path d="M1409.3 773C1409.7 773 1410 772.7 1410 772.3C1410 771.9 1409.7 771.6 1409.3 771.6C1408.9 771.6 1408.6 771.9 1408.6 772.3C1408.6 772.7 1409 773 1409.3 773Z" fill="#90A5D1"/>
<path d="M1436.9 772.7C1437.2 772.7 1437.4 772.5 1437.4 772.2C1437.4 771.9 1437.2 771.7 1436.9 771.7C1436.6 771.7 1436.4 771.9 1436.4 772.2C1436.4 772.5 1436.6 772.7 1436.9 772.7Z" fill="#90A5D1"/>
<path d="M1078.8 803.2C1080.9 803.2 1082.6 801.5 1082.6 799.4C1082.6 797.3 1080.9 795.6 1078.8 795.6C1076.7 795.6 1075 797.3 1075 799.4C1075 801.5 1076.7 803.2 1078.8 803.2Z" fill="#90A5D1"/>
<path d="M1106.4 802.9C1108.4 802.9 1109.9 801.3 1109.9 799.4C1109.9 797.4 1108.3 795.9 1106.4 795.9C1104.4 795.9 1102.9 797.5 1102.9 799.4C1102.8 801.4 1104.4 802.9 1106.4 802.9Z" fill="#90A5D1"/>
<path d="M1133.9 802.7C1135.7 802.7 1137.2 801.2 1137.2 799.4C1137.2 797.6 1135.7 796.1 1133.9 796.1C1132.1 796.1 1130.6 797.6 1130.6 799.4C1130.6 801.2 1132.1 802.7 1133.9 802.7Z" fill="#90A5D1"/>
<path d="M1161.4 802.4C1163.1 802.4 1164.4 801 1164.4 799.4C1164.4 797.8 1163 796.4 1161.4 796.4C1159.8 796.4 1158.4 797.8 1158.4 799.4C1158.4 801 1159.8 802.4 1161.4 802.4Z" fill="#90A5D1"/>
<path d="M1189 802.2C1190.5 802.2 1191.8 801 1191.8 799.4C1191.8 797.9 1190.6 796.6 1189 796.6C1187.5 796.6 1186.2 797.8 1186.2 799.4C1186.2 800.9 1187.5 802.2 1189 802.2Z" fill="#90A5D1"/>
<path d="M1216.5 801.9C1217.9 801.9 1219 800.8 1219 799.4C1219 798 1217.9 796.9 1216.5 796.9C1215.1 796.9 1214 798 1214 799.4C1214 800.8 1215.1 801.9 1216.5 801.9Z" fill="#90A5D1"/>
<path d="M1244.1 801.6C1245.3 801.6 1246.4 800.6 1246.4 799.3C1246.4 798.1 1245.4 797 1244.1 797C1242.9 797 1241.8 798 1241.8 799.3C1241.8 800.6 1242.8 801.6 1244.1 801.6Z" fill="#90A5D1"/>
<path d="M1271.6 801.4C1272.7 801.4 1273.6 800.5 1273.6 799.4C1273.6 798.3 1272.7 797.4 1271.6 797.4C1270.5 797.4 1269.6 798.3 1269.6 799.4C1269.6 800.5 1270.5 801.4 1271.6 801.4Z" fill="#90A5D1"/>
<path d="M1299.2 801.1C1300.2 801.1 1300.9 800.3 1300.9 799.4C1300.9 798.4 1300.1 797.7 1299.2 797.7C1298.2 797.7 1297.5 798.5 1297.5 799.4C1297.4 800.3 1298.2 801.1 1299.2 801.1Z" fill="#90A5D1"/>
<path d="M1326.7 800.8C1327.5 800.8 1328.2 800.1 1328.2 799.3C1328.2 798.5 1327.5 797.8 1326.7 797.8C1325.9 797.8 1325.2 798.5 1325.2 799.3C1325.2 800.2 1325.9 800.8 1326.7 800.8Z" fill="#90A5D1"/>
<path d="M1354.3 800.6C1355 800.6 1355.5 800.1 1355.5 799.4C1355.5 798.7 1355 798.2 1354.3 798.2C1353.6 798.2 1353.1 798.7 1353.1 799.4C1353 800 1353.6 800.6 1354.3 800.6Z" fill="#90A5D1"/>
<path d="M1381.8 800.3C1382.3 800.3 1382.8 799.9 1382.8 799.3C1382.8 798.8 1382.4 798.3 1381.8 798.3C1381.2 798.3 1380.8 798.7 1380.8 799.3C1380.8 799.9 1381.3 800.3 1381.8 800.3Z" fill="#90A5D1"/>
<path d="M1409.3 800C1409.7 800 1410 799.7 1410 799.3C1410 798.9 1409.7 798.6 1409.3 798.6C1408.9 798.6 1408.6 798.9 1408.6 799.3C1408.6 799.7 1409 800 1409.3 800Z" fill="#90A5D1"/>
<path d="M1436.9 799.8C1437.2 799.8 1437.4 799.6 1437.4 799.3C1437.4 799 1437.2 798.8 1436.9 798.8C1436.6 798.8 1436.4 799 1436.4 799.3C1436.4 799.6 1436.6 799.8 1436.9 799.8Z" fill="#90A5D1"/>
<path d="M1078.8 830.3C1080.9 830.3 1082.6 828.6 1082.6 826.5C1082.6 824.4 1080.9 822.7 1078.8 822.7C1076.7 822.7 1075 824.4 1075 826.5C1075 828.6 1076.7 830.3 1078.8 830.3Z" fill="#90A5D1"/>
<path d="M1106.4 830C1108.4 830 1109.9 828.4 1109.9 826.5C1109.9 824.5 1108.3 823 1106.4 823C1104.4 823 1102.9 824.6 1102.9 826.5C1102.8 828.4 1104.4 830 1106.4 830Z" fill="#90A5D1"/>
<path d="M1133.9 829.7C1135.7 829.7 1137.2 828.2 1137.2 826.4C1137.2 824.6 1135.7 823.1 1133.9 823.1C1132.1 823.1 1130.6 824.6 1130.6 826.4C1130.6 828.3 1132.1 829.7 1133.9 829.7Z" fill="#90A5D1"/>
<path d="M1161.4 829.5C1163.1 829.5 1164.4 828.1 1164.4 826.5C1164.4 824.9 1163 823.5 1161.4 823.5C1159.8 823.5 1158.4 824.9 1158.4 826.5C1158.4 828.1 1159.8 829.5 1161.4 829.5Z" fill="#90A5D1"/>
<path d="M1189 829.2C1190.5 829.2 1191.8 828 1191.8 826.4C1191.8 824.9 1190.6 823.6 1189 823.6C1187.5 823.6 1186.2 824.8 1186.2 826.4C1186.2 828 1187.5 829.2 1189 829.2Z" fill="#90A5D1"/>
<path d="M1216.5 829C1217.9 829 1219 827.9 1219 826.5C1219 825.1 1217.9 824 1216.5 824C1215.1 824 1214 825.1 1214 826.5C1214 827.8 1215.1 829 1216.5 829Z" fill="#90A5D1"/>
<path d="M1244.1 828.7C1245.3 828.7 1246.4 827.7 1246.4 826.4C1246.4 825.2 1245.4 824.1 1244.1 824.1C1242.9 824.1 1241.8 825.1 1241.8 826.4C1241.8 827.7 1242.8 828.7 1244.1 828.7Z" fill="#90A5D1"/>
<path d="M1271.6 828.4C1272.7 828.4 1273.6 827.5 1273.6 826.4C1273.6 825.3 1272.7 824.4 1271.6 824.4C1270.5 824.4 1269.6 825.3 1269.6 826.4C1269.6 827.5 1270.5 828.4 1271.6 828.4Z" fill="#90A5D1"/>
<path d="M1299.2 828.2C1300.2 828.2 1300.9 827.4 1300.9 826.5C1300.9 825.5 1300.1 824.8 1299.2 824.8C1298.2 824.8 1297.5 825.6 1297.5 826.5C1297.4 827.4 1298.2 828.2 1299.2 828.2Z" fill="#90A5D1"/>
<path d="M1326.7 827.9C1327.5 827.9 1328.2 827.2 1328.2 826.4C1328.2 825.6 1327.5 824.9 1326.7 824.9C1325.9 824.9 1325.2 825.6 1325.2 826.4C1325.2 827.2 1325.9 827.9 1326.7 827.9Z" fill="#90A5D1"/>
<path d="M1354.3 827.6C1355 827.6 1355.5 827.1 1355.5 826.4C1355.5 825.7 1355 825.2 1354.3 825.2C1353.6 825.2 1353.1 825.7 1353.1 826.4C1353 827.1 1353.6 827.6 1354.3 827.6Z" fill="#90A5D1"/>
<path d="M1381.8 827.4C1382.3 827.4 1382.8 827 1382.8 826.4C1382.8 825.9 1382.4 825.4 1381.8 825.4C1381.2 825.4 1380.8 825.8 1380.8 826.4C1380.8 826.9 1381.3 827.4 1381.8 827.4Z" fill="#90A5D1"/>
<path d="M1409.3 827.1C1409.7 827.1 1410 826.8 1410 826.4C1410 826 1409.7 825.7 1409.3 825.7C1408.9 825.7 1408.6 826 1408.6 826.4C1408.6 826.8 1409 827.1 1409.3 827.1Z" fill="#90A5D1"/>
<path d="M1436.9 826.8C1437.2 826.8 1437.4 826.6 1437.4 826.3C1437.4 826 1437.2 825.8 1436.9 825.8C1436.6 825.8 1436.4 826 1436.4 826.3C1436.4 826.6 1436.6 826.8 1436.9 826.8Z" fill="#90A5D1"/>
<path d="M1078.8 858.5C1080.9 858.5 1082.6 856.8 1082.6 854.7C1082.6 852.6 1080.9 850.9 1078.8 850.9C1076.7 850.9 1075 852.6 1075 854.7C1075 856.8 1076.7 858.5 1078.8 858.5Z" fill="#90A5D1"/>
<path d="M1106.4 858.2C1108.4 858.2 1109.9 856.6 1109.9 854.7C1109.9 852.7 1108.3 851.2 1106.4 851.2C1104.4 851.2 1102.9 852.8 1102.9 854.7C1102.8 856.6 1104.4 858.2 1106.4 858.2Z" fill="#90A5D1"/>
<path d="M1133.9 857.9C1135.7 857.9 1137.2 856.4 1137.2 854.6C1137.2 852.8 1135.7 851.3 1133.9 851.3C1132.1 851.3 1130.6 852.8 1130.6 854.6C1130.6 856.5 1132.1 857.9 1133.9 857.9Z" fill="#90A5D1"/>
<path d="M1161.4 857.7C1163.1 857.7 1164.4 856.3 1164.4 854.7C1164.4 853.1 1163 851.7 1161.4 851.7C1159.8 851.7 1158.4 853.1 1158.4 854.7C1158.4 856.3 1159.8 857.7 1161.4 857.7Z" fill="#90A5D1"/>
<path d="M1189 857.4C1190.5 857.4 1191.8 856.2 1191.8 854.6C1191.8 853.1 1190.6 851.8 1189 851.8C1187.5 851.8 1186.2 853 1186.2 854.6C1186.2 856.2 1187.5 857.4 1189 857.4Z" fill="#90A5D1"/>
<path d="M1216.5 857.2C1217.9 857.2 1219 856.1 1219 854.7C1219 853.3 1217.9 852.2 1216.5 852.2C1215.1 852.2 1214 853.3 1214 854.7C1214 856 1215.1 857.2 1216.5 857.2Z" fill="#90A5D1"/>
<path d="M1244.1 856.9C1245.3 856.9 1246.4 855.9 1246.4 854.6C1246.4 853.4 1245.4 852.3 1244.1 852.3C1242.9 852.3 1241.8 853.3 1241.8 854.6C1241.8 855.9 1242.8 856.9 1244.1 856.9Z" fill="#90A5D1"/>
<path d="M1271.6 856.6C1272.7 856.6 1273.6 855.7 1273.6 854.6C1273.6 853.5 1272.7 852.6 1271.6 852.6C1270.5 852.6 1269.6 853.5 1269.6 854.6C1269.6 855.7 1270.5 856.6 1271.6 856.6Z" fill="#90A5D1"/>
<path d="M1299.2 856.4C1300.2 856.4 1300.9 855.6 1300.9 854.7C1300.9 853.7 1300.1 853 1299.2 853C1298.2 853 1297.5 853.8 1297.5 854.7C1297.4 855.6 1298.2 856.4 1299.2 856.4Z" fill="#90A5D1"/>
<path d="M1326.7 856.1C1327.5 856.1 1328.2 855.4 1328.2 854.6C1328.2 853.8 1327.5 853.1 1326.7 853.1C1325.9 853.1 1325.2 853.8 1325.2 854.6C1325.2 855.4 1325.9 856.1 1326.7 856.1Z" fill="#90A5D1"/>
<path d="M1354.3 855.8C1355 855.8 1355.5 855.3 1355.5 854.6C1355.5 853.9 1355 853.4 1354.3 853.4C1353.6 853.4 1353.1 853.9 1353.1 854.6C1353 855.3 1353.6 855.8 1354.3 855.8Z" fill="#90A5D1"/>
<path d="M1381.8 855.6C1382.3 855.6 1382.8 855.2 1382.8 854.6C1382.8 854.1 1382.4 853.6 1381.8 853.6C1381.2 853.6 1380.8 854 1380.8 854.6C1380.8 855.1 1381.3 855.6 1381.8 855.6Z" fill="#90A5D1"/>
<path d="M1409.3 855.3C1409.7 855.3 1410 855 1410 854.6C1410 854.2 1409.7 853.9 1409.3 853.9C1408.9 853.9 1408.6 854.2 1408.6 854.6C1408.6 855 1409 855.3 1409.3 855.3Z" fill="#90A5D1"/>
<path d="M1436.9 855C1437.2 855 1437.4 854.8 1437.4 854.5C1437.4 854.2 1437.2 854 1436.9 854C1436.6 854 1436.4 854.2 1436.4 854.5C1436.4 854.8 1436.6 855 1436.9 855Z" fill="#90A5D1"/>
</svg>
