<svg width="25" height="14" viewBox="0 0 25 14" fill="none" xmlns="http://www.w3.org/2000/svg">
<rect width="14" height="14" rx="2" fill="#1DD96C"/>
<path d="M20.3672 6.34766H21.082C21.5195 6.34766 21.8848 6.27344 22.1777 6.125C22.4746 5.97266 22.6973 5.77148 22.8457 5.52148C22.998 5.27148 23.0742 4.99414 23.0742 4.68945C23.0742 4.3457 23.0098 4.04492 22.8809 3.78711C22.752 3.52539 22.5547 3.32227 22.2891 3.17773C22.0273 3.0293 21.6914 2.95508 21.2812 2.95508C20.9219 2.95508 20.6016 3.02539 20.3203 3.16602C20.0391 3.30664 19.8164 3.50781 19.6523 3.76953C19.4883 4.03125 19.4062 4.34375 19.4062 4.70703H18.709C18.709 4.24219 18.8203 3.83398 19.043 3.48242C19.2656 3.12695 19.5723 2.84961 19.9629 2.65039C20.3535 2.45117 20.793 2.35156 21.2812 2.35156C21.7852 2.35156 22.2227 2.44336 22.5938 2.62695C22.9688 2.81055 23.2578 3.07812 23.4609 3.42969C23.668 3.78125 23.7715 4.20898 23.7715 4.71289C23.7715 4.9707 23.7148 5.22461 23.6016 5.47461C23.4922 5.72461 23.3281 5.95117 23.1094 6.1543C22.8906 6.35352 22.6191 6.51367 22.2949 6.63477C21.9707 6.75586 21.5938 6.81641 21.1641 6.81641H20.3672V6.34766ZM20.3672 6.95117V6.48828H21.1641C21.6523 6.48828 22.0703 6.54492 22.418 6.6582C22.7656 6.76758 23.0508 6.92383 23.2734 7.12695C23.5 7.32617 23.666 7.55859 23.7715 7.82422C23.877 8.08984 23.9297 8.375 23.9297 8.67969C23.9297 9.07031 23.8652 9.41602 23.7363 9.7168C23.6074 10.0176 23.4238 10.2734 23.1855 10.4844C22.9512 10.6914 22.6738 10.8496 22.3535 10.959C22.0371 11.0645 21.6895 11.1172 21.3105 11.1172C20.9668 11.1172 20.6309 11.0664 20.3027 10.9648C19.9785 10.8633 19.6855 10.7129 19.4238 10.5137C19.166 10.3105 18.9609 10.0566 18.8086 9.75195C18.6562 9.44336 18.5801 9.08789 18.5801 8.68555H19.2773C19.2773 9.04492 19.3633 9.36328 19.5352 9.64062C19.707 9.91406 19.9453 10.1289 20.25 10.2852C20.5586 10.4375 20.9121 10.5137 21.3105 10.5137C21.7129 10.5137 22.0566 10.4453 22.3418 10.3086C22.6309 10.168 22.8516 9.96289 23.0039 9.69336C23.1562 9.42383 23.2324 9.09375 23.2324 8.70312C23.2324 8.29297 23.1406 7.95898 22.957 7.70117C22.7773 7.44336 22.5254 7.25391 22.2012 7.13281C21.8809 7.01172 21.5078 6.95117 21.082 6.95117H20.3672Z" fill="#7B7B7B"/>
</svg>
