<svg width="106" height="105" viewBox="0 0 106 105" fill="none" xmlns="http://www.w3.org/2000/svg">
<path d="M105.068 52.3613C105.068 44.4329 103.258 36.6092 99.7772 29.4861C96.296 22.363 91.2349 16.1283 84.9795 11.2572C78.7241 6.38601 71.4395 3.00682 63.6805 1.37703C55.9215 -0.252765 47.8929 -0.0901649 40.2063 1.85244C32.5196 3.79505 25.3778 7.46641 19.3247 12.5868C13.2717 17.7073 8.46721 24.1417 5.27724 31.4C2.08727 38.6582 0.595982 46.5488 0.916987 54.4706C1.23799 62.3924 3.36282 70.1364 7.1296 77.1128L18.59 70.9249C15.7649 65.6926 14.1713 59.8846 13.9305 53.9432C13.6898 48.0019 14.8082 42.084 17.2007 36.6403C19.5932 31.1966 23.1966 26.3708 27.7363 22.5305C32.2761 18.6901 37.6325 15.9366 43.3975 14.4796C49.1624 13.0227 55.1839 12.9007 61.0031 14.1231C66.8224 15.3454 72.2859 17.8798 76.9774 21.5332C81.6689 25.1866 85.4647 29.8625 88.0757 35.2049C90.6866 40.5472 92.0437 46.415 92.0437 52.3613H105.068Z" fill="#676D99"/>
<path d="M6.84051 76.5697C12.3442 87.0572 21.2571 95.3563 32.1099 100.099C42.9628 104.842 55.1078 105.745 66.5427 102.659C77.9777 99.5739 88.02 92.6842 95.0141 83.1259C102.008 73.5677 105.537 61.9116 105.018 50.0791L92.0062 50.6496C92.3954 59.524 89.749 68.2661 84.5034 75.4348C79.2578 82.6034 71.726 87.7707 63.1498 90.0848C54.5736 92.3988 45.4649 91.7216 37.3252 88.1646C29.1856 84.6076 22.5009 78.3832 18.3732 70.5176L6.84051 76.5697Z" fill="#FA7457"/>
</svg>
