<svg width="1025" height="205" viewBox="0 0 1025 205" fill="none" xmlns="http://www.w3.org/2000/svg">
<line x1="0.5" x2="0.5" y2="204" stroke="#C6D2E4" stroke-opacity="0.5"/>
<line x1="45.5" x2="45.5" y2="204" stroke="#C6D2E4" stroke-opacity="0.5"/>
<line x1="86.5" x2="86.5" y2="204" stroke="#C6D2E4" stroke-opacity="0.5"/>
<line x1="131.5" x2="131.5" y2="204" stroke="#C6D2E4" stroke-opacity="0.5"/>
<line x1="175.5" x2="175.5" y2="204" stroke="#C6D2E4" stroke-opacity="0.5"/>
<line x1="220.5" x2="220.5" y2="204" stroke="#C6D2E4" stroke-opacity="0.5"/>
<line x1="261.5" x2="261.5" y2="204" stroke="#C6D2E4" stroke-opacity="0.5"/>
<line x1="306.5" x2="306.5" y2="204" stroke="#C6D2E4" stroke-opacity="0.5"/>
<line x1="351.5" x2="351.5" y2="204" stroke="#C6D2E4" stroke-opacity="0.5"/>
<line x1="396.5" x2="396.5" y2="204" stroke="#C6D2E4" stroke-opacity="0.5"/>
<line x1="437.5" x2="437.5" y2="204" stroke="#C6D2E4" stroke-opacity="0.5"/>
<line x1="482.5" x2="482.5" y2="204" stroke="#C6D2E4" stroke-opacity="0.5"/>
<line x1="526.5" x2="526.5" y2="204" stroke="#C6D2E4" stroke-opacity="0.5"/>
<line x1="571.5" x2="571.5" y2="204" stroke="#C6D2E4" stroke-opacity="0.5"/>
<line x1="612.5" x2="612.5" y2="204" stroke="#C6D2E4" stroke-opacity="0.5"/>
<line x1="657.5" x2="657.5" y2="204" stroke="#C6D2E4" stroke-opacity="0.5"/>
<line x1="703.5" x2="703.5" y2="204" stroke="#C6D2E4" stroke-opacity="0.5"/>
<line x1="748.5" x2="748.5" y2="204" stroke="#C6D2E4" stroke-opacity="0.5"/>
<line x1="789.5" x2="789.5" y2="204" stroke="#C6D2E4" stroke-opacity="0.5"/>
<line x1="834.5" x2="834.5" y2="204" stroke="#C6D2E4" stroke-opacity="0.5"/>
<line x1="878.5" x2="878.5" y2="204" stroke="#C6D2E4" stroke-opacity="0.5"/>
<line x1="923.5" x2="923.5" y2="204" stroke="#C6D2E4" stroke-opacity="0.5"/>
<line x1="964.5" x2="964.5" y2="204" stroke="#C6D2E4" stroke-opacity="0.5"/>
<line x1="1009.5" x2="1009.5" y2="204" stroke="#C6D2E4" stroke-opacity="0.5"/>
<line x1="0.498962" y1="203.891" x2="1025" y2="203.891" stroke="#C6D2E4" stroke-opacity="0.5"/>
<line x1="0.498962" y1="162.891" x2="1025" y2="162.891" stroke="#C6D2E4" stroke-opacity="0.5"/>
<line x1="0.498962" y1="123.891" x2="1025" y2="123.891" stroke="#C6D2E4" stroke-opacity="0.5"/>
<line x1="0.498962" y1="82.8906" x2="1025" y2="82.8906" stroke="#C6D2E4" stroke-opacity="0.5"/>
<line x1="0.498962" y1="39.8906" x2="1025" y2="39.8906" stroke="#C6D2E4" stroke-opacity="0.5"/>
<circle cx="79" cy="66" r="9.5" fill="#F37358" fill-opacity="0.5" stroke="#F37358"/>
<circle cx="253" cy="119" r="9.5" fill="#F37358" fill-opacity="0.5" stroke="#F37358"/>
<circle cx="396" cy="36" r="9.5" fill="#F37358" fill-opacity="0.5" stroke="#F37358"/>
<circle cx="379" cy="158" r="9.5" fill="#F37358" fill-opacity="0.5" stroke="#F37358"/>
<circle cx="444" cy="112" r="9.5" fill="#F37358" fill-opacity="0.5" stroke="#F37358"/>
<circle cx="499" cy="66" r="9.5" fill="#F37358" fill-opacity="0.5" stroke="#F37358"/>
<circle cx="607" cy="143" r="9.5" fill="#F37358" fill-opacity="0.5" stroke="#F37358"/>
<circle cx="671" cy="59" r="9.5" fill="#F37358" fill-opacity="0.5" stroke="#F37358"/>
<circle cx="739" cy="134" r="9.5" fill="#F37358" fill-opacity="0.5" stroke="#F37358"/>
<circle cx="817" cy="21" r="9.5" fill="#F37358" fill-opacity="0.5" stroke="#F37358"/>
<circle cx="790" cy="164" r="9.5" fill="#F37358" fill-opacity="0.5" stroke="#F37358"/>
<circle cx="870" cy="143" r="9.5" fill="#F37358" fill-opacity="0.5" stroke="#F37358"/>
<circle cx="893" cy="89" r="9.5" fill="#F37358" fill-opacity="0.5" stroke="#F37358"/>
<circle cx="817" cy="74" r="9.5" fill="#F37358" fill-opacity="0.5" stroke="#F37358"/>
<circle cx="951" cy="36" r="9.5" fill="#F37358" fill-opacity="0.5" stroke="#F37358"/>
<circle cx="960" cy="149" r="9.5" fill="#F37358" fill-opacity="0.5" stroke="#F37358"/>
<circle cx="681" cy="173" r="9.5" fill="#F37358" fill-opacity="0.5" stroke="#F37358"/>
<circle cx="581" cy="76" r="9.5" fill="#F37358" fill-opacity="0.5" stroke="#F37358"/>
<circle cx="361" cy="91" r="9.5" fill="#F37358" fill-opacity="0.5" stroke="#F37358"/>
<circle cx="96" cy="143" r="9.5" fill="#F37358" fill-opacity="0.5" stroke="#F37358"/>
<circle cx="220" cy="44" r="9.5" fill="#F37358" fill-opacity="0.5" stroke="#F37358"/>
<circle cx="176" cy="149" r="9.5" fill="#F37358" fill-opacity="0.5" stroke="#F37358"/>
<circle cx="302" cy="164" r="9.5" fill="#F37358" fill-opacity="0.5" stroke="#F37358"/>
<circle cx="474" cy="179" r="9.5" fill="#F37358" fill-opacity="0.5" stroke="#F37358"/>
<circle cx="305" cy="57" r="9.5" fill="#F37358" fill-opacity="0.5" stroke="#F37358"/>
<circle cx="158" cy="88" r="9.5" fill="#F37358" fill-opacity="0.5" stroke="#F37358"/>
<circle cx="38" cy="121" r="9.5" fill="#F37358" fill-opacity="0.5" stroke="#F37358"/>
<circle cx="55" cy="167" r="9.5" fill="#F37358" fill-opacity="0.5" stroke="#F37358"/>
<circle cx="29" cy="35" r="9.5" fill="#F37358" fill-opacity="0.5" stroke="#F37358"/>
<circle cx="537" cy="121" r="9.5" fill="#F37358" fill-opacity="0.5" stroke="#F37358"/>
<circle cx="675" cy="117" r="9.5" fill="#F37358" fill-opacity="0.5" stroke="#F37358"/>
</svg>
