<svg width="25" height="14" viewBox="0 0 25 14" fill="none" xmlns="http://www.w3.org/2000/svg">
<rect width="14" height="14" rx="2" fill="#2F80ED"/>
<path d="M24.1465 10.3965V11H18.8086V10.4551L21.6035 7.28516C21.9512 6.89062 22.2285 6.54492 22.4355 6.24805C22.6426 5.94727 22.791 5.67383 22.8809 5.42773C22.9746 5.17773 23.0215 4.93555 23.0215 4.70117C23.0215 4.35742 22.9531 4.05469 22.8164 3.79297C22.6836 3.53125 22.4844 3.32617 22.2188 3.17773C21.9531 3.0293 21.625 2.95508 21.2344 2.95508C20.8438 2.95508 20.5039 3.03906 20.2148 3.20703C19.9258 3.375 19.7031 3.60938 19.5469 3.91016C19.3945 4.20703 19.3184 4.54492 19.3184 4.92383H18.6211C18.6211 4.45508 18.7246 4.02539 18.9316 3.63477C19.1426 3.24414 19.4434 2.93359 19.834 2.70312C20.2246 2.46875 20.6914 2.35156 21.2344 2.35156C21.75 2.35156 22.1934 2.44336 22.5645 2.62695C22.9355 2.80664 23.2207 3.06641 23.4199 3.40625C23.623 3.74609 23.7246 4.15625 23.7246 4.63672C23.7246 4.89453 23.6777 5.1543 23.584 5.41602C23.4941 5.67773 23.3691 5.93945 23.209 6.20117C23.0527 6.45898 22.873 6.71484 22.6699 6.96875C22.4707 7.22266 22.2617 7.47266 22.043 7.71875L19.6641 10.3965H24.1465Z" fill="#7B7B7B"/>
</svg>
