<svg width="61" height="14" viewBox="0 0 61 14" fill="none" xmlns="http://www.w3.org/2000/svg">
<rect width="14" height="14" rx="2" fill="#2F80ED"/>
<path d="M25.3867 10.3848V11H20.5879V10.3848H25.3867ZM20.8047 2.46875V11H20.084V2.46875H20.8047ZM24.7891 6.29492V6.91016H20.5879V6.29492H24.7891ZM25.3574 2.46875V3.08984H20.5879V2.46875H25.3574ZM27.0453 4.66016L28.7563 7.2207L30.4731 4.66016H31.3051L29.1547 7.76562L31.393 11H30.5727L28.7621 8.32227L26.9575 11H26.1371L28.3754 7.76562L26.225 4.66016H27.0453ZM33.4149 4.66016V11H32.7176V4.66016H33.4149ZM32.5946 2.82617C32.5946 2.69336 32.6356 2.58203 32.7176 2.49219C32.8036 2.39844 32.9208 2.35156 33.0692 2.35156C33.2176 2.35156 33.3348 2.39844 33.4208 2.49219C33.5106 2.58203 33.5555 2.69336 33.5555 2.82617C33.5555 2.95508 33.5106 3.06641 33.4208 3.16016C33.3348 3.25 33.2176 3.29492 33.0692 3.29492C32.9208 3.29492 32.8036 3.25 32.7176 3.16016C32.6356 3.06641 32.5946 2.95508 32.5946 2.82617ZM39.1458 9.38281C39.1458 9.21094 39.1028 9.04102 39.0169 8.87305C38.931 8.70508 38.7649 8.55078 38.5188 8.41016C38.2767 8.26953 37.9192 8.15039 37.4466 8.05273C37.095 7.97461 36.7806 7.88672 36.5032 7.78906C36.2298 7.69141 35.9993 7.57422 35.8118 7.4375C35.6243 7.30078 35.4817 7.13672 35.3841 6.94531C35.2864 6.75391 35.2376 6.52734 35.2376 6.26562C35.2376 6.03125 35.2884 5.81055 35.3899 5.60352C35.4954 5.39258 35.6438 5.20898 35.8352 5.05273C36.0306 4.89258 36.2649 4.76758 36.5384 4.67773C36.8157 4.58789 37.1263 4.54297 37.47 4.54297C37.9583 4.54297 38.3763 4.62695 38.7239 4.79492C39.0755 4.95898 39.3431 5.18359 39.5267 5.46875C39.7142 5.75391 39.8079 6.07617 39.8079 6.43555H39.1106C39.1106 6.2168 39.0462 6.00977 38.9173 5.81445C38.7923 5.61914 38.6067 5.45898 38.3606 5.33398C38.1185 5.20898 37.8216 5.14648 37.47 5.14648C37.1067 5.14648 36.8118 5.20117 36.5852 5.31055C36.3587 5.41992 36.1927 5.55859 36.0872 5.72656C35.9856 5.89453 35.9349 6.06836 35.9349 6.24805C35.9349 6.38867 35.9563 6.51758 35.9993 6.63477C36.0462 6.74805 36.1282 6.85352 36.2454 6.95117C36.3665 7.04883 36.5384 7.14062 36.761 7.22656C36.9837 7.3125 37.2727 7.39648 37.6282 7.47852C38.1399 7.5918 38.5579 7.73047 38.8821 7.89453C39.2102 8.05469 39.4524 8.25391 39.6087 8.49219C39.7649 8.72656 39.8431 9.01172 39.8431 9.34766C39.8431 9.60938 39.7884 9.84961 39.679 10.0684C39.5696 10.2832 39.4114 10.4688 39.2044 10.625C39.0013 10.7812 38.7552 10.9023 38.4661 10.9883C38.181 11.0742 37.8606 11.1172 37.5052 11.1172C36.97 11.1172 36.5169 11.0293 36.1458 10.8535C35.7786 10.6738 35.4993 10.4395 35.3079 10.1504C35.1204 9.85742 35.0267 9.54688 35.0267 9.21875H35.7239C35.7474 9.54688 35.8509 9.80664 36.0345 9.99805C36.2181 10.1855 36.4427 10.3184 36.7083 10.3965C36.9778 10.4746 37.2435 10.5137 37.5052 10.5137C37.8645 10.5137 38.1653 10.4609 38.4075 10.3555C38.6497 10.25 38.8333 10.1113 38.9583 9.93945C39.0833 9.76758 39.1458 9.58203 39.1458 9.38281ZM43.8454 4.66016V5.23438H40.6697V4.66016H43.8454ZM41.8357 3.03125H42.5329V9.45898C42.5329 9.75195 42.572 9.97266 42.6501 10.1211C42.7283 10.2695 42.8298 10.3691 42.9548 10.4199C43.0798 10.4707 43.2146 10.4961 43.3591 10.4961C43.4646 10.4961 43.5661 10.4902 43.6638 10.4785C43.7615 10.4629 43.8493 10.4473 43.9275 10.4316L43.9568 11.0234C43.8708 11.0508 43.7595 11.0723 43.6228 11.0879C43.4861 11.1074 43.3493 11.1172 43.2126 11.1172C42.9431 11.1172 42.7048 11.0684 42.4978 10.9707C42.2908 10.8691 42.1286 10.6973 42.0115 10.4551C41.8943 10.209 41.8357 9.875 41.8357 9.45312V3.03125ZM46.1134 4.66016V11H45.4162V4.66016H46.1134ZM45.2931 2.82617C45.2931 2.69336 45.3341 2.58203 45.4162 2.49219C45.5021 2.39844 45.6193 2.35156 45.7677 2.35156C45.9162 2.35156 46.0334 2.39844 46.1193 2.49219C46.2091 2.58203 46.2541 2.69336 46.2541 2.82617C46.2541 2.95508 46.2091 3.06641 46.1193 3.16016C46.0334 3.25 45.9162 3.29492 45.7677 3.29492C45.6193 3.29492 45.5021 3.25 45.4162 3.16016C45.3341 3.06641 45.2931 2.95508 45.2931 2.82617ZM48.7447 6.01367V11H48.0475V4.66016H48.7154L48.7447 6.01367ZM48.5865 7.4375L48.276 7.26172C48.2994 6.88672 48.3756 6.53516 48.5045 6.20703C48.6334 5.87891 48.8072 5.58984 49.026 5.33984C49.2486 5.08984 49.5084 4.89453 49.8053 4.75391C50.106 4.61328 50.4381 4.54297 50.8014 4.54297C51.1178 4.54297 51.401 4.58594 51.651 4.67188C51.901 4.75781 52.1139 4.89453 52.2896 5.08203C52.4654 5.26953 52.5982 5.50977 52.6881 5.80273C52.7818 6.0957 52.8287 6.45312 52.8287 6.875V11H52.1256V6.86914C52.1256 6.43164 52.065 6.08984 51.9439 5.84375C51.8228 5.59375 51.651 5.41602 51.4283 5.31055C51.2057 5.20508 50.942 5.15234 50.6373 5.15234C50.3014 5.15234 50.0064 5.22656 49.7525 5.375C49.5025 5.51953 49.2916 5.70898 49.1197 5.94336C48.9517 6.17383 48.8228 6.42188 48.733 6.6875C48.6432 6.94922 48.5943 7.19922 48.5865 7.4375ZM58.835 4.66016H59.4854V10.8887C59.4854 11.4395 59.3799 11.9121 59.169 12.3066C58.9619 12.7012 58.667 13.0039 58.2842 13.2148C57.9053 13.4258 57.458 13.5312 56.9424 13.5312C56.6807 13.5312 56.4112 13.4902 56.1338 13.4082C55.8604 13.3301 55.6006 13.209 55.3545 13.0449C55.1123 12.8848 54.9053 12.6855 54.7334 12.4473L55.126 12.0195C55.3838 12.332 55.6592 12.5605 55.9522 12.7051C56.2451 12.8535 56.5615 12.9277 56.9014 12.9277C57.3037 12.9277 57.6436 12.8477 57.9209 12.6875C58.2022 12.5273 58.4151 12.2969 58.5596 11.9961C58.708 11.6953 58.7822 11.334 58.7822 10.9121V6.05469L58.835 4.66016ZM54.3819 7.89453V7.77148C54.3819 7.2793 54.4365 6.83594 54.5459 6.44141C54.6592 6.04297 54.8213 5.70312 55.0322 5.42188C55.2432 5.13672 55.499 4.91992 55.7998 4.77148C56.1045 4.61914 56.4483 4.54297 56.8311 4.54297C57.1983 4.54297 57.5244 4.60352 57.8096 4.72461C58.0947 4.8457 58.3408 5.01953 58.5479 5.24609C58.7549 5.47266 58.9209 5.74219 59.0459 6.05469C59.1748 6.36719 59.2686 6.71484 59.3272 7.09766V8.66211C59.2803 9.02148 59.1944 9.35156 59.0694 9.65234C58.9444 9.94922 58.7783 10.209 58.5713 10.4316C58.3643 10.6504 58.1143 10.8203 57.8213 10.9414C57.5322 11.0586 57.1983 11.1172 56.8194 11.1172C56.4405 11.1172 56.1006 11.0391 55.7998 10.8828C55.499 10.7266 55.2432 10.5059 55.0322 10.2207C54.8213 9.93164 54.6592 9.58984 54.5459 9.19531C54.4365 8.80078 54.3819 8.36719 54.3819 7.89453ZM55.085 7.77148V7.89453C55.085 8.26562 55.1221 8.60938 55.1963 8.92578C55.2705 9.24219 55.3838 9.51758 55.5362 9.75195C55.6885 9.98633 55.8819 10.1699 56.1162 10.3027C56.3506 10.4355 56.626 10.502 56.9424 10.502C57.3447 10.502 57.6826 10.4258 57.9561 10.2734C58.2295 10.1172 58.4463 9.91211 58.6065 9.6582C58.7666 9.40039 58.8838 9.11914 58.958 8.81445V6.99219C58.9151 6.78516 58.8487 6.57422 58.7588 6.35938C58.6729 6.14453 58.5518 5.94727 58.3955 5.76758C58.2432 5.58398 58.0479 5.4375 57.8096 5.32812C57.5752 5.21484 57.2901 5.1582 56.9541 5.1582C56.6338 5.1582 56.3545 5.22461 56.1162 5.35742C55.8819 5.49023 55.6885 5.67578 55.5362 5.91406C55.3838 6.14844 55.2705 6.42383 55.1963 6.74023C55.1221 7.05664 55.085 7.40039 55.085 7.77148Z" fill="#7B7B7B"/>
</svg>
