<svg width="43" height="14" viewBox="0 0 43 14" fill="none" xmlns="http://www.w3.org/2000/svg">
<rect width="14" height="14" rx="2" fill="#FB9435"/>
<path d="M26.4355 2.46875V11H25.709L20.8047 3.71094V11H20.084V2.46875H20.8047L25.7207 9.75781V2.46875H26.4355ZM30.9184 11.1172C30.5043 11.1172 30.1235 11.041 29.7758 10.8887C29.4321 10.7363 29.1313 10.5215 28.8735 10.2441C28.6196 9.9668 28.4223 9.63867 28.2817 9.25977C28.145 8.87695 28.0766 8.45898 28.0766 8.00586V7.75391C28.0766 7.26562 28.1489 6.82422 28.2934 6.42969C28.4379 6.03516 28.6371 5.69727 28.891 5.41602C29.145 5.13477 29.434 4.91992 29.7582 4.77148C30.0864 4.61914 30.4301 4.54297 30.7895 4.54297C31.1918 4.54297 31.5492 4.61523 31.8617 4.75977C32.1742 4.90039 32.436 5.10156 32.6469 5.36328C32.8617 5.62109 33.0239 5.92773 33.1332 6.2832C33.2426 6.63477 33.2973 7.02344 33.2973 7.44922V7.87695H28.4985V7.2793H32.6V7.19727C32.5922 6.8418 32.52 6.50977 32.3832 6.20117C32.2504 5.88867 32.0512 5.63477 31.7856 5.43945C31.52 5.24414 31.1879 5.14648 30.7895 5.14648C30.4926 5.14648 30.2192 5.20898 29.9692 5.33398C29.7231 5.45898 29.5102 5.63867 29.3305 5.87305C29.1547 6.10352 29.018 6.37891 28.9203 6.69922C28.8266 7.01562 28.7797 7.36719 28.7797 7.75391V8.00586C28.7797 8.35742 28.8305 8.68555 28.9321 8.99023C29.0375 9.29102 29.186 9.55664 29.3774 9.78711C29.5727 10.0176 29.8032 10.1973 30.0688 10.3262C30.3344 10.4551 30.6274 10.5195 30.9477 10.5195C31.3227 10.5195 31.6547 10.4512 31.9438 10.3145C32.2328 10.1738 32.4926 9.95312 32.7231 9.65234L33.1625 9.99219C33.0258 10.1953 32.8539 10.3828 32.6469 10.5547C32.4438 10.7266 32.1996 10.8633 31.9145 10.9648C31.6293 11.0664 31.2973 11.1172 30.9184 11.1172ZM36.4559 9.51758L37.9852 4.66016H38.4774L38.1844 5.9668L36.5848 11H36.0926L36.4559 9.51758ZM34.868 4.66016L36.2098 9.54688L36.4969 11H35.9872L34.1473 4.66016H34.868ZM40.3817 9.5293L41.6883 4.66016H42.409L40.5692 11H40.0653L40.3817 9.5293ZM38.577 4.66016L40.0829 9.47656L40.4637 11H39.9715L38.3368 5.96094L38.0614 4.66016H38.577Z" fill="#7B7B7B"/>
</svg>
