<svg width="147" height="85" viewBox="0 0 147 85" fill="none" xmlns="http://www.w3.org/2000/svg">
<path d="M0.770996 34.1274C0.770996 34.1274 13.5786 73.3035 27.1395 72.5501C40.7005 71.7967 32.4132 3.23852 47.481 0.978362C62.5487 -1.2818 76.1096 51.4552 85.9037 49.1951C95.6977 46.9349 99.4646 5.49865 113.026 5.49868C126.587 5.49871 146.175 62.756 146.175 62.756" stroke="#EB5757" stroke-width="0.753386"/>
<path d="M27.1395 74.1275C13.5786 74.8809 0.770996 35.7048 0.770996 35.7048V84.6042H146.175V64.3334C146.175 64.3334 126.587 7.0761 113.026 7.07607C99.4646 7.07605 95.6977 48.5123 85.9037 50.7725C76.1096 53.0326 62.5487 0.295595 47.481 2.55575C32.4132 4.81591 40.7005 73.3741 27.1395 74.1275Z" fill="url(#paint0_linear_1_545)"/>
<defs>
<linearGradient id="paint0_linear_1_545" x1="68.5758" y1="-74.3603" x2="73.0961" y2="55.2222" gradientUnits="userSpaceOnUse">
<stop stop-color="#FA7457"/>
<stop offset="1" stop-color="#E2B93B" stop-opacity="0"/>
</linearGradient>
</defs>
</svg>
