<svg width="145" height="100" viewBox="0 0 145 100" fill="none" xmlns="http://www.w3.org/2000/svg">
<path d="M19.1881 28.7095C5.53429 35.0112 1.33313 54.4416 1.33313 54.4416V99.604H144.173V36.5867C144.173 36.5867 129.469 81.7491 117.915 83.3246C106.362 84.9001 86.4067 1.92706 74.8535 1.40192C63.3003 0.876772 66.9763 16.106 67.5014 22.4077C68.0266 28.7095 63.3003 42.8884 55.9482 49.1901C48.5962 55.4919 32.8418 22.4077 19.1881 28.7095Z" fill="url(#paint0_linear_1_531)"/>
<path d="M1.33313 54.4416C1.33313 54.4416 5.53429 35.0112 19.1881 28.7095C32.8418 22.4077 48.5962 55.4919 55.9482 49.1901C63.3003 42.8884 68.0266 28.7095 67.5014 22.4077C66.9763 16.106 63.3003 0.876772 74.8535 1.40192C86.4067 1.92706 106.362 84.9 117.915 83.3246C129.469 81.7491 144.173 36.5866 144.173 36.5866" stroke="#2F80ED" stroke-width="0.854047"/>
<defs>
<linearGradient id="paint0_linear_1_531" x1="53.857" y1="-27.2219" x2="73.0731" y2="68.4313" gradientUnits="userSpaceOnUse">
<stop stop-color="#446AA8"/>
<stop offset="1" stop-color="#D9D9D9" stop-opacity="0"/>
</linearGradient>
</defs>
</svg>
